<?xml version="1.0" encoding="UTF-8"?>
<svg version="1.1" xmlns="http://www.w3.org/2000/svg" width="64" height="64">
<path d="M0 0 C6.86344161 4.46402707 11.56724155 9.17993469 13.921875 17.25 C15.10769249 26.75582154 14.69337555 35.21112424 8.921875 43.25 C4.93672151 47.95043745 0.12150867 52.1257141 -6.078125 53.25 C-14.81584145 53.87705965 -23.4961481 54.22900948 -31.078125 49.25 C-37.5680675 43.59352615 -41.51601513 37.78571495 -42.38671875 29.2109375 C-42.72203942 20.53324505 -41.58137607 13.59863019 -36.0546875 6.73828125 C-26.59410663 -3.28735138 -12.74655215 -6.90038914 0 0 Z " fill="#0C73F6" transform="translate(46.078125,6.75)"/>
<path d="M0 0 C-0.59325536 3.20911192 -1.57586157 5.01255841 -3.72265625 7.453125 C-4.26083984 8.071875 -4.79902344 8.690625 -5.35351562 9.328125 C-5.91748047 9.96234375 -6.48144531 10.5965625 -7.0625 11.25 C-7.63033203 11.8996875 -8.19816406 12.549375 -8.78320312 13.21875 C-10.1825444 14.81799717 -11.59045241 16.40974119 -13 18 C-16.98043326 16.14067632 -20.02048495 13.56092277 -23.25 10.625 C-23.80429687 10.14289062 -24.35859375 9.66078125 -24.9296875 9.1640625 C-26.515625 7.7265625 -26.515625 7.7265625 -29 5 C-29 3.68 -29 2.36 -29 1 C-19.33456945 -0.1922117 -9.71824449 -0.09622024 0 0 Z " fill="#F4F9FE" transform="translate(47,19)"/>
<path d="M0 0 C5.03163018 4.29785078 10.02718443 8.63425542 15 13 C18.76488042 11.27845212 21.15063897 9.00765886 24 6 C25.98 6.99 27.96 7.98 30 9 C29.9921875 11.109375 29.9921875 11.109375 29 14 C26.59527212 16.38482879 23.8823579 18.29347475 21.125 20.25 C20.39152344 20.79140625 19.65804687 21.3328125 18.90234375 21.890625 C13.48336694 25.83887769 13.48336694 25.83887769 10 27 C5.46628303 18.60422783 1.61798475 9.44120774 0 0 Z " fill="#80A9F9" transform="translate(17,23)"/>
<path d="M0 0 C5.1160081 3.84793772 8.2880369 8.6148082 10.078125 14.75 C11.26394249 24.25582154 10.84962555 32.71112424 5.078125 40.75 C1.11639804 45.42280616 -3.73277217 49.68871072 -9.921875 50.75 C-12.51561414 50.81898242 -15.07997697 50.84434752 -17.671875 50.8125 C-18.36925781 50.80798828 -19.06664063 50.80347656 -19.78515625 50.79882812 C-21.49743303 50.7871002 -23.20966533 50.76916653 -24.921875 50.75 C-24.921875 50.42 -24.921875 50.09 -24.921875 49.75 C-23.87128906 49.66363281 -22.82070313 49.57726563 -21.73828125 49.48828125 C-8.50710908 48.3089444 -8.50710908 48.3089444 1.87890625 40.59765625 C7.53883417 32.47923935 9.05838255 25.63625601 8.078125 15.75 C6.24949926 9.83995703 2.56260096 4.45184757 -2.55078125 0.94921875 C-10.90898683 -3.35787254 -17.96142466 -5.00499737 -27.109375 -2.1875 C-34.51022177 1.04942066 -39.43188176 6.62459713 -42.921875 13.75 C-43.251875 12.76 -43.581875 11.77 -43.921875 10.75 C-40.5428452 4.55511203 -35.01016715 -2.34558429 -28.1953125 -4.8125 C-17.74010204 -6.82449926 -8.83168166 -5.74418319 0 0 Z " fill="#EAF3FE" transform="translate(49.921875,9.25)"/>
<path d="M0 0 C3.46156377 1.11522438 6.91862018 2.24382115 10.375 3.375 C11.35984375 3.69210938 12.3446875 4.00921875 13.359375 4.3359375 C14.30039062 4.6453125 15.24140625 4.9546875 16.2109375 5.2734375 C17.08024902 5.55622559 17.94956055 5.83901367 18.84521484 6.13037109 C21 7 21 7 23 9 C21.02 11.31 19.04 13.62 17 16 C12.97552686 13.98776343 10.07104775 11.57734454 6.8125 8.5625 C6.26658203 8.07201172 5.72066406 7.58152344 5.15820312 7.07617188 C2.62938635 4.75417283 1.10288398 3.30865193 0 0 Z " fill="#CED9FA" transform="translate(17,21)"/>
<path d="M0 0 C0.33 0 0.66 0 1 0 C0.93039063 0.94359375 0.86078125 1.8871875 0.7890625 2.859375 C0.39784815 12.13674377 1.131308 19.32112206 7 27 C10.12629096 29.76276876 13.39045037 31.92497491 17 34 C17.99 34.66 18.98 35.32 20 36 C13.38075161 35.36959539 9.248545 32.54750052 4.8125 27.75 C-1.30346053 20.14116721 -1.68136946 12.57848224 -1 3 C-0.67 2.01 -0.34 1.02 0 0 Z " fill="#E7F0FD" transform="translate(5,23)"/>
</svg>
