<?xml version="1.0" encoding="UTF-8"?>
<svg version="1.1" xmlns="http://www.w3.org/2000/svg" width="32" height="32">
<path d="M0 0 C3.37104576 3.60623499 5.54561593 6.82449248 5.78125 11.890625 C5.40968955 16.75806695 3.90868694 20.11694858 0.6875 23.875 C-4.53840965 26.46577354 -9.59397373 26.53838264 -15.3125 25.875 C-19.49360801 24.00843392 -20.91314569 22.54488464 -23.25 18.625 C-24.91139421 12.76125575 -24.42082781 8.90056462 -21.5 3.5625 C-15.56382087 -3.73052007 -8.09293185 -5.19169213 0 0 Z " fill="#A7CFFD" transform="translate(25.3125,4.125)"/>
<path d="M0 0 C1.32 0 2.64 0 4 0 C4.65134925 1.56020867 5.29582964 3.12328579 5.9375 4.6875 C6.47697266 5.99267578 6.47697266 5.99267578 7.02734375 7.32421875 C7.9570312 9.88179265 8.54162625 12.3221323 9 15 C9.62648438 14.4946875 10.25296875 13.989375 10.8984375 13.46875 C11.71570312 12.8190625 12.53296875 12.169375 13.375 11.5 C14.18710937 10.8503125 14.99921875 10.200625 15.8359375 9.53125 C18 8 18 8 20 8 C19.01 7.01 18.02 6.02 17 5 C18.75 1.125 18.75 1.125 21 0 C21 0.66 21 1.32 21 2 C21.66 2 22.32 2 23 2 C23.33 1.34 23.66 0.68 24 0 C25.24234627 3.72703881 25.53316853 7.12905043 25 11 C22.17884131 16.54156171 22.17884131 16.54156171 18.75 17.875 C18.1725 17.91625 17.595 17.9575 17 18 C17 18.66 17 19.32 17 20 C7.45964469 21.06947044 7.45964469 21.06947044 3.96875 18.51171875 C-0.30417509 13.45332949 -1.44864109 9.66363975 -1 3 C-0.67 2.01 -0.34 1.02 0 0 Z " fill="#1D6AF5" transform="translate(4,10)"/>
<path d="M0 0 C1.32 0 2.64 0 4 0 C4.65134925 1.56020867 5.29582964 3.12328579 5.9375 4.6875 C6.47697266 5.99267578 6.47697266 5.99267578 7.02734375 7.32421875 C7.9570312 9.88179265 8.54162625 12.3221323 9 15 C9.61875 14.505 10.2375 14.01 10.875 13.5 C13 12 13 12 15 12 C14 15 14 15 11.1875 16.75 C8 18 8 18 5.875 17.9375 C2.72731647 16.36365823 0.56822912 14.13645823 -1 11 C-1.23188406 3.69565217 -1.23188406 3.69565217 0 0 Z " fill="#0455EC" transform="translate(4,10)"/>
<path d="M0 0 C5.59551078 -0.61917537 9.80373013 -0.68794397 14.5 2.6875 C17.40634536 5.20633264 19.3492066 7.09523962 20 11 C19.81535119 16.81643764 18.9582726 20.49196732 15 25 C12.25 25.875 12.25 25.875 10 26 C10.78375 25.4225 11.5675 24.845 12.375 24.25 C15.48361126 21.60537692 15.48361126 21.60537692 17 18 C17.15007306 15.30903473 17.08999955 12.69998637 17 10 C13.05786799 8.09251677 9.48827528 7.64216813 5.18359375 7.34375 C2.79871043 6.9683122 1.09384925 6.17749345 -1 5 C-0.67 3.35 -0.34 1.7 0 0 Z " fill="#50B3FD" transform="translate(11,3)"/>
<path d="M0 0 C2.31 1.65 4.62 3.3 7 5 C8.32 3.68 9.64 2.36 11 1 C11.99 1.66 12.98 2.32 14 3 C14 3.66 14 4.32 14 5 C12.1015625 6.7265625 12.1015625 6.7265625 9.625 8.625 C8.81289063 9.25664062 8.00078125 9.88828125 7.1640625 10.5390625 C5 12 5 12 3 12 C2.49166409 10.75336669 1.99368855 9.50250613 1.5 8.25 C1.2215625 7.55390625 0.943125 6.8578125 0.65625 6.140625 C0 4 0 4 0 0 Z " fill="#80A9F9" transform="translate(10,13)"/>
<path d="M0 0 C4.62 0 9.24 0 14 0 C12.04783565 3.90432869 10.12613393 6.03839944 7 9 C5.82460004 8.07347299 4.65989423 7.13336613 3.5 6.1875 C2.52546875 5.40439453 2.52546875 5.40439453 1.53125 4.60546875 C0 3 0 3 0 0 Z " fill="#F8FAFE" transform="translate(9,10)"/>
<path d="M0 0 C0.33 0.66 0.66 1.32 1 2 C1.66 2 2.32 2 3 2 C3.33 1.34 3.66 0.68 4 0 C5.28317892 3.84953676 5.06643637 6.94738135 5 11 C-0.75 10.125 -0.75 10.125 -3 9 C-2.01 8.67 -1.02 8.34 0 8 C-0.99 7.01 -1.98 6.02 -3 5 C-1.125 1.125 -1.125 1.125 0 0 Z " fill="#0A80FD" transform="translate(24,10)"/>
<path d="M0 0 C7.75 0.875 7.75 0.875 10 2 C9.34 3.65 8.68 5.3 8 7 C6.66382648 6.02471263 5.3311249 5.04466681 4 4.0625 C3.2575 3.51722656 2.515 2.97195312 1.75 2.41015625 C1.1725 1.94480469 0.595 1.47945312 0 1 C0 0.67 0 0.34 0 0 Z " fill="#CED9FA" transform="translate(9,12)"/>
<path d="M0 0 C1.32 0.33 2.64 0.66 4 1 C0.535 3.97 0.535 3.97 -3 7 C-3.66 6.34 -4.32 5.68 -5 5 C-2.75 2.4375 -2.75 2.4375 0 0 Z " fill="#066CFD" transform="translate(9,4)"/>
</svg>
