<?xml version="1.0" encoding="UTF-8"?>
<svg version="1.1" xmlns="http://www.w3.org/2000/svg" width="512" height="512">
<path d="M0 0 C1.82337891 0.0012085 1.82337891 0.0012085 3.68359375 0.00244141 C43.64504038 0.27004038 43.64504038 0.27004038 48.5625 5.1875 C50.31298611 5.18162589 52.06341024 5.13265066 53.8125 5.0625 C58.38626128 5.00931673 60.81258531 5.43020979 64.5625 8.1875 C66.22405063 8.54546423 67.89212188 8.87329333 69.5625 9.1875 C72.00511515 9.8565992 74.44243485 10.54523813 76.875 11.25 C78.75638672 11.79333984 78.75638672 11.79333984 80.67578125 12.34765625 C81.62839844 12.62480469 82.58101563 12.90195312 83.5625 13.1875 C83.5625 13.8475 83.5625 14.5075 83.5625 15.1875 C84.7690625 15.3421875 84.7690625 15.3421875 86 15.5 C93.71190072 16.98826154 100.45441904 19.92981731 107.3125 23.6875 C108.40498047 24.27337891 108.40498047 24.27337891 109.51953125 24.87109375 C113.25960506 26.8870682 116.92682379 28.98791589 120.5625 31.1875 C121.94695312 31.95126953 121.94695312 31.95126953 123.359375 32.73046875 C129.43266148 36.11255024 134.6153532 39.65890583 139.625 44.48828125 C141.52279714 46.15267995 143.26206129 47.17592316 145.5625 48.1875 C145.5625 48.8475 145.5625 49.5075 145.5625 50.1875 C146.14 50.435 146.7175 50.6825 147.3125 50.9375 C149.89189979 52.37049988 151.62371592 53.97174676 153.5625 56.1875 C153.5625 56.8475 153.5625 57.5075 153.5625 58.1875 C154.2225 58.1875 154.8825 58.1875 155.5625 58.1875 C157.1875 59.5625 157.1875 59.5625 158.5625 61.1875 C158.5625 61.8475 158.5625 62.5075 158.5625 63.1875 C159.5525 63.5175 160.5425 63.8475 161.5625 64.1875 C161.5625 64.8475 161.5625 65.5075 161.5625 66.1875 C162.2225 66.1875 162.8825 66.1875 163.5625 66.1875 C164.94739414 67.81157628 166.2707305 69.4884158 167.5625 71.1875 C168.32949219 72.10789062 169.09648437 73.02828125 169.88671875 73.9765625 C170.66660156 74.91242188 171.44648438 75.84828125 172.25 76.8125 C173.03761719 77.75351563 173.82523437 78.69453125 174.63671875 79.6640625 C176.5625 82.1875 176.5625 82.1875 177.5625 85.1875 C178.2225 85.1875 178.8825 85.1875 179.5625 85.1875 C179.913125 85.97125 180.26375 86.755 180.625 87.5625 C182.07120248 90.47517883 183.83192237 93.00187557 185.75 95.625 C190.36621865 102.13406144 193.99217158 109.07310693 197.5625 116.1875 C197.97999512 117.01846191 198.39749023 117.84942383 198.82763672 118.70556641 C208.0661579 137.24049851 208.0661579 137.24049851 210.74609375 147.30078125 C211.40576138 149.63329023 212.15976084 151.79741822 213.03515625 154.05078125 C214.54144442 157.99750786 215.62300378 161.94771324 216.5625 166.0625 C216.72983643 166.78574463 216.89717285 167.50898926 217.06958008 168.25415039 C218.29361339 173.68386653 219.3265681 179.13661268 220.25 184.625 C220.36923828 185.33317871 220.48847656 186.04135742 220.61132812 186.77099609 C222.39084424 197.83125448 222.76340224 208.75496985 222.75 219.9375 C222.75006042 220.70874207 222.75012085 221.47998413 222.75018311 222.27459717 C222.7325646 238.0890526 222.25868481 253.75108261 218.5625 269.1875 C218.30678223 270.31357666 218.30678223 270.31357666 218.04589844 271.46240234 C215.86369213 281.04346215 213.33606525 290.39813416 209.9375 299.625 C209.50401245 300.80425049 209.50401245 300.80425049 209.06176758 302.00732422 C207.5407689 306.0094929 205.80425771 309.52825204 203.5625 313.1875 C202.9173362 314.90179239 202.3137583 316.63224032 201.75 318.375 C200.03360202 323.25559731 197.81914367 327.41803148 195.06640625 331.78515625 C193.63797403 334.06693759 192.33941872 336.38092573 191.0625 338.75 C184.83947944 350.03045949 177.03223957 360.50779763 168.5625 370.1875 C167.9025 371.1775 167.2425 372.1675 166.5625 373.1875 C165.9025 373.1875 165.2425 373.1875 164.5625 373.1875 C164.5625 373.8475 164.5625 374.5075 164.5625 375.1875 C163.9025 375.1875 163.2425 375.1875 162.5625 375.1875 C162.2325 376.1775 161.9025 377.1675 161.5625 378.1875 C160.13671875 379.625 160.13671875 379.625 158.25 381.1875 C155.64429854 383.38547479 153.08840529 385.61013372 150.609375 387.94921875 C150.09544189 388.43197266 149.58150879 388.91472656 149.05200195 389.41210938 C148.04327362 390.36291954 147.03893286 391.31841384 146.03979492 392.27929688 C142.45047269 395.63956487 138.8349067 397.83919135 134.5625 400.1875 C133.1213135 401.40450194 131.68060357 402.62213756 130.25 403.8515625 C126.62358994 406.72247046 122.58388789 408.92258038 118.5625 411.1875 C117.98129395 411.51766113 117.40008789 411.84782227 116.80126953 412.18798828 C108.06373785 417.1128609 99.13478297 421.39329578 89.875 425.25 C88.47652832 425.84131714 88.47652832 425.84131714 87.04980469 426.44458008 C82.40649749 428.3294995 78.67210228 429.72133904 73.5625 429.1875 C73.5625 429.8475 73.5625 430.5075 73.5625 431.1875 C57.54586171 436.25008723 42.03887223 439.47320402 25.3034668 440.9375 C22.82648751 441.16342204 20.36338582 441.44205539 17.89453125 441.7421875 C4.52984546 443.24380391 -8.92620454 442.23161279 -22.25 440.8125 C-23.4356958 440.68649414 -24.6213916 440.56048828 -25.84301758 440.43066406 C-31.87506035 439.74128775 -37.58874968 438.8072509 -43.4375 437.1875 C-44.60667969 436.91550781 -45.77585938 436.64351563 -46.98046875 436.36328125 C-69.69447552 430.98300741 -91.20479443 422.81544132 -111.15673828 410.57568359 C-113.10689929 409.38871983 -115.07424525 408.26753105 -117.07421875 407.16796875 C-121.00837051 404.8513428 -124.61339938 402.25279647 -128.25 399.5 C-129.29341553 398.71532349 -129.29341553 398.71532349 -130.35791016 397.91479492 C-135.35012338 394.11828329 -140.04720142 390.13091646 -144.6171875 385.83203125 C-146.34834045 384.12051559 -146.34834045 384.12051559 -148.4375 383.1875 C-148.4375 382.5275 -148.4375 381.8675 -148.4375 381.1875 C-149.0975 381.1875 -149.7575 381.1875 -150.4375 381.1875 C-151.79136936 379.53747172 -153.12428142 377.8700613 -154.4375 376.1875 C-155.0975 375.8575 -155.7575 375.5275 -156.4375 375.1875 C-156.4375 374.5275 -156.4375 373.8675 -156.4375 373.1875 C-157.0975 373.1875 -157.7575 373.1875 -158.4375 373.1875 C-159.953125 371.68359375 -159.953125 371.68359375 -161.6875 369.625 C-162.31527344 368.88378906 -162.94304687 368.14257812 -163.58984375 367.37890625 C-164.19957031 366.65574219 -164.80929688 365.93257813 -165.4375 365.1875 C-166.15099609 364.39666016 -166.15099609 364.39666016 -166.87890625 363.58984375 C-170.45539385 359.60577921 -173.61045952 355.33028559 -176.75 351 C-177.19512939 350.39333496 -177.64025879 349.78666992 -178.09887695 349.16162109 C-180.22573011 346.1892011 -181.70230259 343.7597743 -182.4375 340.1875 C-183.0975 340.1875 -183.7575 340.1875 -184.4375 340.1875 C-186.75146623 335.9042008 -189.04123879 331.60905873 -191.31298828 327.30322266 C-192.33814 325.37444177 -193.38380476 323.45840083 -194.43359375 321.54296875 C-203.70362111 304.24171195 -210.76115124 284.12666629 -214.0625 264.75 C-214.98558508 259.40748397 -214.98558508 259.40748397 -216.4375 254.1875 C-217.76556687 244.30288798 -217.67551906 234.26714976 -217.6875 224.3125 C-217.68950409 223.5012265 -217.69150818 222.689953 -217.693573 221.85409546 C-217.7129658 189.7384316 -217.7129658 189.7384316 -213.4375 181.1875 C-213.16418784 179.35749684 -212.9192835 177.52322534 -212.6875 175.6875 C-210.8990324 163.72463893 -207.59115163 152.007406 -202.6484375 140.9609375 C-201.6878105 138.76079179 -200.83826494 136.58148542 -200.01953125 134.328125 C-198.5134411 130.26760656 -196.70900956 126.42193283 -194.75 122.5625 C-194.22237061 121.52283081 -194.22237061 121.52283081 -193.68408203 120.4621582 C-192.61107536 118.36570139 -191.52669473 116.27558567 -190.4375 114.1875 C-189.84066406 113.03894531 -189.24382812 111.89039063 -188.62890625 110.70703125 C-179.97137065 94.82557347 -168.73798948 80.72516066 -156.07958984 67.86474609 C-154.52732778 66.27925094 -153.00505919 64.67014817 -151.48828125 63.05078125 C-144.08274017 55.25719889 -135.8168303 48.81312279 -127.16015625 42.46044922 C-125.77554782 41.43729894 -124.4148513 40.38182775 -123.0625 39.31640625 C-121.4375 38.1875 -121.4375 38.1875 -119.4375 38.1875 C-119.4375 37.5275 -119.4375 36.8675 -119.4375 36.1875 C-108.93892778 30.15640532 -98.35844461 24.41831365 -87.4375 19.1875 C-86.8094043 18.88070312 -86.18130859 18.57390625 -85.53417969 18.2578125 C-74.62199312 12.96842533 -63.43511373 9.77749957 -51.70361328 6.79614258 C-49.89066992 6.30921435 -48.10310634 5.72817354 -46.328125 5.1171875 C-42.53674567 3.89779793 -38.73828928 3.25916596 -34.8125 2.625 C-33.71615234 2.43647461 -33.71615234 2.43647461 -32.59765625 2.24414062 C-21.77372279 0.4588459 -10.95670524 -0.00765989 0 0 Z " fill="#0974F6" transform="translate(253.4375,34.8125)"/>
<path d="M0 0 C0.86809296 -0.0231427 1.73618591 -0.0462854 2.63058472 -0.07012939 C9.69622333 -0.05643371 15.36621082 2.16661101 21.1171875 6.234375 C22.69559331 8.63629688 23.25519032 10.37593883 23.046875 13.26171875 C20.60486345 23.97943612 13.13675481 31.85691542 6.01806641 39.76855469 C3.90857252 42.15185342 1.92069442 44.62680509 -0.0703125 47.109375 C-3.86857629 51.79207205 -7.88693747 56.22840864 -11.96875 60.6640625 C-15.19980552 64.26205177 -18.23025858 68.00317165 -21.26171875 71.76953125 C-24.06189192 75.17081495 -27.01599848 78.41522655 -30.01171875 81.64453125 C-31.65458561 83.30075311 -31.65458561 83.30075311 -31.4453125 85.421875 C-30.29643555 85.81455566 -29.14755859 86.20723633 -27.96386719 86.61181641 C-23.64452257 88.09065854 -19.32907969 89.58062101 -15.01464844 91.07373047 C-13.1575991 91.71472446 -11.29954636 92.35281994 -9.44042969 92.98779297 C22.2536083 103.81971661 22.2536083 103.81971661 27.5546875 114.421875 C28.38886294 121.09527849 26.22636132 125.88113645 22.5546875 131.421875 C16.41291856 138.76231632 8.8786776 144.45319594 1.25341797 150.14208984 C-1.57686671 152.27436238 -4.35294482 154.47453553 -7.1328125 156.671875 C-12.55333455 160.94386464 -17.9948104 165.18821315 -23.4453125 169.421875 C-30.56868599 174.95627481 -37.67228013 180.51495715 -44.75976562 186.09521484 C-47.65340077 188.37273706 -50.54950573 190.64711507 -53.4453125 192.921875 C-54.61199046 193.8385273 -55.77865714 194.75519395 -56.9453125 195.671875 C-59.27864583 197.50520833 -61.61197917 199.33854167 -63.9453125 201.171875 C-64.52249023 201.6253833 -65.09966797 202.0788916 -65.69433594 202.54614258 C-66.86421266 203.46530813 -68.03413473 204.38441595 -69.20410156 205.3034668 C-72.07202407 207.55643594 -74.9392224 209.81031223 -77.8046875 212.06640625 C-85.10547024 217.81239267 -92.42962505 223.52752108 -99.76806641 229.2253418 C-103.81732637 232.37107993 -107.85588266 235.52927011 -111.87792969 238.7097168 C-117.60559407 243.23516657 -123.37825637 247.69935596 -129.1953125 252.109375 C-129.8877002 252.63934082 -130.58008789 253.16930664 -131.29345703 253.71533203 C-136.21291596 257.421875 -136.21291596 257.421875 -138.4453125 257.421875 C-138.80085205 256.40061523 -139.1563916 255.37935547 -139.52270508 254.32714844 C-143.23401064 243.71283512 -147.1318718 233.17997104 -151.1328125 222.671875 C-151.75074932 221.04458319 -152.36850324 219.4172219 -152.98608398 217.78979492 C-154.22443932 214.52729446 -155.46381925 211.26518634 -156.70410156 208.00341797 C-158.25398947 203.92671417 -159.79972725 199.84846011 -161.34375 195.76953125 C-166.05051677 183.33715725 -170.77706265 170.91236409 -175.51998901 158.4937439 C-176.08625008 157.01094624 -176.65227755 155.52805935 -177.2180481 154.04507446 C-179.95468077 146.87336175 -182.71057098 139.71233396 -185.58032227 132.5925293 C-187.17606124 128.58809372 -188.6607927 124.5426648 -190.15625 120.5 C-191.49228415 116.90851036 -192.87151731 113.33925053 -194.30371094 109.78491211 C-196.340535 104.70360942 -198.31501474 99.60021703 -200.2734375 94.48828125 C-200.99855616 92.60215904 -201.72382142 90.71609318 -202.44921875 88.83007812 C-203.56702494 85.92217613 -204.68397983 83.01396084 -205.79833984 80.10473633 C-206.89139417 77.25232708 -207.98764987 74.40117938 -209.0859375 71.55078125 C-209.44464935 70.61870346 -209.80336121 69.68662567 -210.17294312 68.7263031 C-211.95690014 64.12693946 -213.79231081 59.56023899 -215.74462891 55.02954102 C-216.11303894 54.17428329 -216.48144897 53.31902557 -216.86102295 52.43785095 C-217.55472336 50.84168513 -218.25678378 49.24911376 -218.96905518 47.66114807 C-221.7458097 41.29524311 -223.07153304 35.33084831 -221.4453125 28.421875 C-219.0286454 22.91474885 -214.77397368 19.12420041 -209.39770508 16.53149414 C-205.88706801 15.21206592 -202.38079853 14.47907506 -198.69921875 13.84375 C-197.95283142 13.71435532 -197.20644409 13.58496063 -196.43743896 13.4516449 C-189.15221804 12.26100628 -181.90904332 11.83494628 -174.54043579 11.57067871 C-170.26641787 11.41338907 -165.99464091 11.20832484 -161.72265625 11.00390625 C-160.80796066 10.96035004 -159.89326508 10.91679382 -158.95085144 10.87191772 C-148.20477968 10.34045671 -137.48375981 9.50737745 -126.7578125 8.671875 C-122.29303229 8.32729904 -117.82815572 7.98397723 -113.36328125 7.640625 C-111.56241058 7.50197273 -111.56241058 7.50197273 -109.72515869 7.36051941 C-93.83289233 6.13985443 -77.93830382 4.95076954 -62.04141712 3.79182053 C-57.37846616 3.45173591 -52.71577661 3.10874685 -48.05361938 2.75793457 C-13.88723459 0.19098613 -13.88723459 0.19098613 0 0 Z " fill="#7FA8F9" transform="translate(354.4453125,148.578125)"/>
<path d="M0 0 C0.86809296 -0.0231427 1.73618591 -0.0462854 2.63058472 -0.07012939 C9.69622333 -0.05643371 15.36621082 2.16661101 21.1171875 6.234375 C22.69559331 8.63629688 23.25519032 10.37593883 23.046875 13.26171875 C20.60486345 23.97943612 13.13675481 31.85691542 6.01806641 39.76855469 C3.90857252 42.15185342 1.92069442 44.62680509 -0.0703125 47.109375 C-3.87090813 51.79494687 -7.8916923 56.23399133 -11.9765625 60.671875 C-14.38909354 63.35925134 -16.6778746 66.11152944 -18.9453125 68.921875 C-22.78483052 73.68071423 -26.84390929 78.18250475 -30.984375 82.6796875 C-33.35571145 85.32203383 -35.59784247 88.02881667 -37.8203125 90.796875 C-41.68750113 95.5932821 -45.79511966 100.0922896 -50.00341797 104.58544922 C-53.12070586 107.93269285 -56.08097732 111.35183406 -58.9453125 114.921875 C-63.28060183 120.3212808 -67.93982711 125.36237866 -72.66015625 130.421875 C-75.40932579 133.3704995 -78.07343516 136.38479773 -80.7109375 139.43359375 C-84.23698315 143.47583978 -87.84895528 147.44223255 -91.4453125 151.421875 C-94.36365467 150.10703927 -96.39452179 148.70554224 -98.6171875 146.41015625 C-99.19984375 145.81654297 -99.7825 145.22292969 -100.3828125 144.61132812 C-100.9809375 143.99193359 -101.5790625 143.37253906 -102.1953125 142.734375 C-105.76868063 139.05428017 -109.34330404 135.45862481 -113.2421875 132.12109375 C-119.39025081 126.82214069 -124.97377591 120.93604482 -130.66796875 115.16015625 C-134.48983033 111.30491596 -138.28723102 107.48320488 -142.4140625 103.953125 C-148.23136154 98.97107011 -153.50862146 93.41476625 -158.88183594 87.96484375 C-165.48154862 81.25139374 -165.48154862 81.25139374 -172.4453125 74.921875 C-178.25417858 69.95298752 -183.51914465 64.40409283 -188.88183594 58.96484375 C-193.97801007 53.80257589 -199.09406035 48.72783946 -204.60498047 44.00439453 C-207.65932747 41.37793165 -210.59995126 38.64621542 -213.5078125 35.859375 C-214.10013672 35.32119141 -214.69246094 34.78300781 -215.30273438 34.22851562 C-219.42227374 30.24325694 -219.42227374 30.24325694 -219.53515625 26.21875 C-217.52853815 21.06914942 -213.22234452 18.70239532 -208.3359375 16.44921875 C-197.63019719 12.56155028 -186.18149488 12.09986612 -174.91763306 11.64611816 C-158.83845569 10.98393258 -142.80103466 9.91845216 -126.7578125 8.671875 C-122.29301428 8.32753337 -117.82814747 7.98408368 -113.36328125 7.640625 C-112.16267563 7.54818512 -110.96207001 7.45574524 -109.7250824 7.36050415 C-93.83283864 6.13987992 -77.93827829 4.95076768 -62.04141712 3.79182053 C-57.37846616 3.45173591 -52.71577661 3.10874685 -48.05361938 2.75793457 C-13.88723459 0.19098613 -13.88723459 0.19098613 0 0 Z " fill="#FDFEFE" transform="translate(354.4453125,148.578125)"/>
<path d="M0 0 C3.93694732 0.95872516 7.67741427 2.32094704 11.46875 3.7421875 C12.56136642 4.13707367 13.65398285 4.53195984 14.77970886 4.93881226 C18.35870007 6.2361334 21.92912292 7.55552732 25.5 8.875 C28.01352061 9.79031896 30.52748716 10.70428576 33.04223633 11.61621094 C38.19615139 13.48731575 43.34656183 15.36775156 48.49462891 17.25488281 C58.5187435 20.92801743 68.56605792 24.53635916 78.61346436 28.14517212 C81.68644705 29.24962156 84.75863537 30.35625215 87.83056641 31.46362305 C102.00047143 36.57088408 116.18292318 41.64218769 130.375 46.6875 C131.73605362 47.17156311 131.73605362 47.17156311 133.12460327 47.66540527 C145.73613165 52.14936295 158.36296794 56.58845015 171 61 C170.14225601 65.47021189 167.58713716 67.88889104 164.5 71.0625 C160.68994418 75.07518842 157.01379904 79.10570195 153.5625 83.4375 C149.53488871 88.45922225 145.20654144 93.12582761 140.79711914 97.80834961 C136.7891211 102.08787796 133.07269416 106.53339739 129.41015625 111.11328125 C124.52478721 116.96463898 119.23260564 122.46006977 114 128 C111.08165783 126.68516427 109.05079071 125.28366724 106.828125 122.98828125 C105.95414063 122.09786133 105.95414063 122.09786133 105.0625 121.18945312 C104.464375 120.57005859 103.86625 119.95066406 103.25 119.3125 C99.67663187 115.63240517 96.10200846 112.03674981 92.203125 108.69921875 C86.05506169 103.40026569 80.47153659 97.51416982 74.77734375 91.73828125 C70.95548217 87.88304096 67.15808148 84.06132988 63.03125 80.53125 C57.21395096 75.54919511 51.93669104 69.99289125 46.56347656 64.54296875 C39.96376388 57.82951874 39.96376388 57.82951874 33 51.5 C27.19113392 46.53111252 21.92616785 40.98221783 16.56347656 35.54296875 C11.4681809 30.38159076 6.35165825 25.31228897 0.84033203 20.59130859 C-2.23001848 17.93642074 -5.15632344 15.14476225 -8.0625 12.3125 C-8.65482422 11.75755859 -9.24714844 11.20261719 -9.85742188 10.63085938 C-11.53515625 8.98828125 -11.53515625 8.98828125 -14 6 C-13.84155273 3.93823242 -13.84155273 3.93823242 -13 2 C-8.67883726 -0.88077516 -5.07495825 -0.53617199 0 0 Z " fill="#CFDAFA" transform="translate(149,172)"/>
<path d="M0 0 C1.82337891 0.0012085 1.82337891 0.0012085 3.68359375 0.00244141 C43.64504038 0.27004038 43.64504038 0.27004038 48.5625 5.1875 C50.31298611 5.18162589 52.06341024 5.13265066 53.8125 5.0625 C58.38626128 5.00931673 60.81258531 5.43020979 64.5625 8.1875 C66.22405063 8.54546423 67.89212188 8.87329333 69.5625 9.1875 C72.00511515 9.8565992 74.44243485 10.54523813 76.875 11.25 C78.75638672 11.79333984 78.75638672 11.79333984 80.67578125 12.34765625 C81.62839844 12.62480469 82.58101563 12.90195312 83.5625 13.1875 C83.5625 13.8475 83.5625 14.5075 83.5625 15.1875 C84.7690625 15.3421875 84.7690625 15.3421875 86 15.5 C93.71190072 16.98826154 100.45441904 19.92981731 107.3125 23.6875 C108.40498047 24.27337891 108.40498047 24.27337891 109.51953125 24.87109375 C113.25960506 26.8870682 116.92682379 28.98791589 120.5625 31.1875 C121.94695312 31.95126953 121.94695312 31.95126953 123.359375 32.73046875 C129.43266148 36.11255024 134.6153532 39.65890583 139.625 44.48828125 C141.52279714 46.15267995 143.26206129 47.17592316 145.5625 48.1875 C145.5625 48.8475 145.5625 49.5075 145.5625 50.1875 C146.14 50.435 146.7175 50.6825 147.3125 50.9375 C149.89189979 52.37049988 151.62371592 53.97174676 153.5625 56.1875 C153.5625 56.8475 153.5625 57.5075 153.5625 58.1875 C154.2225 58.1875 154.8825 58.1875 155.5625 58.1875 C157.1875 59.5625 157.1875 59.5625 158.5625 61.1875 C158.5625 61.8475 158.5625 62.5075 158.5625 63.1875 C159.5525 63.5175 160.5425 63.8475 161.5625 64.1875 C161.5625 64.8475 161.5625 65.5075 161.5625 66.1875 C162.2225 66.1875 162.8825 66.1875 163.5625 66.1875 C164.94739414 67.81157628 166.2707305 69.4884158 167.5625 71.1875 C168.32949219 72.10789062 169.09648437 73.02828125 169.88671875 73.9765625 C170.66660156 74.91242188 171.44648438 75.84828125 172.25 76.8125 C173.03761719 77.75351563 173.82523437 78.69453125 174.63671875 79.6640625 C176.5625 82.1875 176.5625 82.1875 177.5625 85.1875 C178.2225 85.1875 178.8825 85.1875 179.5625 85.1875 C179.913125 85.97125 180.26375 86.755 180.625 87.5625 C182.07120248 90.47517883 183.83192237 93.00187557 185.75 95.625 C190.36621865 102.13406144 193.99217158 109.07310693 197.5625 116.1875 C197.97999512 117.01846191 198.39749023 117.84942383 198.82763672 118.70556641 C208.0661579 137.24049851 208.0661579 137.24049851 210.74609375 147.30078125 C211.40576138 149.63329023 212.15976084 151.79741822 213.03515625 154.05078125 C214.54144442 157.99750786 215.62300378 161.94771324 216.5625 166.0625 C216.72983643 166.78574463 216.89717285 167.50898926 217.06958008 168.25415039 C218.29361339 173.68386653 219.3265681 179.13661268 220.25 184.625 C220.36923828 185.33317871 220.48847656 186.04135742 220.61132812 186.77099609 C222.39084424 197.83125448 222.76340224 208.75496985 222.75 219.9375 C222.75006042 220.70874207 222.75012085 221.47998413 222.75018311 222.27459717 C222.7325646 238.0890526 222.25868481 253.75108261 218.5625 269.1875 C218.30678223 270.31357666 218.30678223 270.31357666 218.04589844 271.46240234 C215.86369213 281.04346215 213.33606525 290.39813416 209.9375 299.625 C209.50401245 300.80425049 209.50401245 300.80425049 209.06176758 302.00732422 C207.5407689 306.0094929 205.80425771 309.52825204 203.5625 313.1875 C202.9173362 314.90179239 202.3137583 316.63224032 201.75 318.375 C200.03360202 323.25559731 197.81914367 327.41803148 195.06640625 331.78515625 C193.63797403 334.06693759 192.33941872 336.38092573 191.0625 338.75 C184.83947944 350.03045949 177.03223957 360.50779763 168.5625 370.1875 C167.9025 371.1775 167.2425 372.1675 166.5625 373.1875 C165.9025 373.1875 165.2425 373.1875 164.5625 373.1875 C164.5625 373.8475 164.5625 374.5075 164.5625 375.1875 C163.9025 375.1875 163.2425 375.1875 162.5625 375.1875 C162.2325 376.1775 161.9025 377.1675 161.5625 378.1875 C160.13671875 379.625 160.13671875 379.625 158.25 381.1875 C155.64429854 383.38547479 153.08840529 385.61013372 150.609375 387.94921875 C150.09544189 388.43197266 149.58150879 388.91472656 149.05200195 389.41210938 C148.04327362 390.36291954 147.03893286 391.31841384 146.03979492 392.27929688 C142.45047269 395.63956487 138.8349067 397.83919135 134.5625 400.1875 C133.1213135 401.40450194 131.68060357 402.62213756 130.25 403.8515625 C126.62358994 406.72247046 122.58388789 408.92258038 118.5625 411.1875 C117.98129395 411.51766113 117.40008789 411.84782227 116.80126953 412.18798828 C108.06373785 417.1128609 99.13478297 421.39329578 89.875 425.25 C88.47652832 425.84131714 88.47652832 425.84131714 87.04980469 426.44458008 C82.40649749 428.3294995 78.67210228 429.72133904 73.5625 429.1875 C73.5625 429.8475 73.5625 430.5075 73.5625 431.1875 C57.54586171 436.25008723 42.03887223 439.47320402 25.3034668 440.9375 C22.82648751 441.16342204 20.36338582 441.44205539 17.89453125 441.7421875 C4.52984546 443.24380391 -8.92620454 442.23161279 -22.25 440.8125 C-23.4356958 440.68649414 -24.6213916 440.56048828 -25.84301758 440.43066406 C-31.87506035 439.74128775 -37.58874968 438.8072509 -43.4375 437.1875 C-44.60667969 436.91550781 -45.77585938 436.64351563 -46.98046875 436.36328125 C-69.69447552 430.98300741 -91.20479443 422.81544132 -111.15673828 410.57568359 C-113.10689929 409.38871983 -115.07424525 408.26753105 -117.07421875 407.16796875 C-121.00837051 404.8513428 -124.61339938 402.25279647 -128.25 399.5 C-129.29341553 398.71532349 -129.29341553 398.71532349 -130.35791016 397.91479492 C-135.35012338 394.11828329 -140.04720142 390.13091646 -144.6171875 385.83203125 C-146.34834045 384.12051559 -146.34834045 384.12051559 -148.4375 383.1875 C-148.4375 382.5275 -148.4375 381.8675 -148.4375 381.1875 C-149.0975 381.1875 -149.7575 381.1875 -150.4375 381.1875 C-151.79136936 379.53747172 -153.12428142 377.8700613 -154.4375 376.1875 C-155.0975 375.8575 -155.7575 375.5275 -156.4375 375.1875 C-156.4375 374.5275 -156.4375 373.8675 -156.4375 373.1875 C-157.0975 373.1875 -157.7575 373.1875 -158.4375 373.1875 C-159.953125 371.68359375 -159.953125 371.68359375 -161.6875 369.625 C-162.31527344 368.88378906 -162.94304687 368.14257812 -163.58984375 367.37890625 C-164.19957031 366.65574219 -164.80929688 365.93257813 -165.4375 365.1875 C-166.15099609 364.39666016 -166.15099609 364.39666016 -166.87890625 363.58984375 C-170.45539385 359.60577921 -173.61045952 355.33028559 -176.75 351 C-177.19512939 350.39333496 -177.64025879 349.78666992 -178.09887695 349.16162109 C-180.22573011 346.1892011 -181.70230259 343.7597743 -182.4375 340.1875 C-183.0975 340.1875 -183.7575 340.1875 -184.4375 340.1875 C-186.75146623 335.9042008 -189.04123879 331.60905873 -191.31298828 327.30322266 C-192.33814 325.37444177 -193.38380476 323.45840083 -194.43359375 321.54296875 C-203.70362111 304.24171195 -210.76115124 284.12666629 -214.0625 264.75 C-214.98558508 259.40748397 -214.98558508 259.40748397 -216.4375 254.1875 C-217.76556687 244.30288798 -217.67551906 234.26714976 -217.6875 224.3125 C-217.68950409 223.5012265 -217.69150818 222.689953 -217.693573 221.85409546 C-217.7129658 189.7384316 -217.7129658 189.7384316 -213.4375 181.1875 C-213.16418784 179.35749684 -212.9192835 177.52322534 -212.6875 175.6875 C-210.8990324 163.72463893 -207.59115163 152.007406 -202.6484375 140.9609375 C-201.6878105 138.76079179 -200.83826494 136.58148542 -200.01953125 134.328125 C-198.5134411 130.26760656 -196.70900956 126.42193283 -194.75 122.5625 C-194.22237061 121.52283081 -194.22237061 121.52283081 -193.68408203 120.4621582 C-192.61107536 118.36570139 -191.52669473 116.27558567 -190.4375 114.1875 C-189.84066406 113.03894531 -189.24382812 111.89039063 -188.62890625 110.70703125 C-179.97137065 94.82557347 -168.73798948 80.72516066 -156.07958984 67.86474609 C-154.52732778 66.27925094 -153.00505919 64.67014817 -151.48828125 63.05078125 C-144.08274017 55.25719889 -135.8168303 48.81312279 -127.16015625 42.46044922 C-125.77554782 41.43729894 -124.4148513 40.38182775 -123.0625 39.31640625 C-121.4375 38.1875 -121.4375 38.1875 -119.4375 38.1875 C-119.4375 37.5275 -119.4375 36.8675 -119.4375 36.1875 C-108.93892778 30.15640532 -98.35844461 24.41831365 -87.4375 19.1875 C-86.8094043 18.88070312 -86.18130859 18.57390625 -85.53417969 18.2578125 C-74.62199312 12.96842533 -63.43511373 9.77749957 -51.70361328 6.79614258 C-49.89066992 6.30921435 -48.10310634 5.72817354 -46.328125 5.1171875 C-42.53674567 3.89779793 -38.73828928 3.25916596 -34.8125 2.625 C-33.71615234 2.43647461 -33.71615234 2.43647461 -32.59765625 2.24414062 C-21.77372279 0.4588459 -10.95670524 -0.00765989 0 0 Z M-150.4375 68.1875 C-151.21996094 68.91582031 -152.00242188 69.64414063 -152.80859375 70.39453125 C-159.42471959 76.75120118 -164.93463387 83.87463602 -170.4375 91.1875 C-170.86708008 91.75098145 -171.29666016 92.31446289 -171.73925781 92.89501953 C-205.82086692 137.79931051 -219.10523104 194.80648945 -212.1875 250.375 C-211.67639979 253.99392899 -211.08946265 257.59141876 -210.4375 261.1875 C-210.30359863 261.93338379 -210.16969727 262.67926758 -210.03173828 263.44775391 C-202.35296027 304.13131598 -182.12664367 341.58456808 -153.4375 371.1875 C-152.90543945 371.7453418 -152.37337891 372.30318359 -151.82519531 372.87792969 C-124.8371485 401.11181825 -89.86689325 421.24977017 -52.1875 431.375 C-51.32060547 431.6129126 -50.45371094 431.8508252 -49.56054688 432.09594727 C-32.53363659 436.48964112 -15.5251306 437.76743406 2 437.6875 C3.49663177 437.68585342 3.49663177 437.68585342 5.02349854 437.68417358 C27.59028262 437.613257 49.25968517 435.0222019 70.5625 427.1875 C72.39554687 426.56294922 72.39554687 426.56294922 74.265625 425.92578125 C97.91834903 417.70229203 120.68482023 405.72610866 139.5625 389.1875 C140.72481619 388.20496168 141.88899981 387.22462974 143.0546875 386.24609375 C153.30077947 377.61759133 162.18560268 368.67708924 170.5625 358.1875 C171.22121094 357.39601563 171.87992187 356.60453125 172.55859375 355.7890625 C194.6477437 329.03319073 208.20163639 296.88150993 215.5625 263.1875 C215.74184082 262.37603516 215.92118164 261.56457031 216.10595703 260.72851562 C218.92321328 247.15420848 218.8692012 233.36595322 218.9375 219.5625 C218.9455365 218.65632935 218.953573 217.75015869 218.96185303 216.81652832 C219.32960963 162.0740385 196.12362485 110.44644183 158.5625 71.1875 C158.04349121 70.63594238 157.52448242 70.08438477 156.98974609 69.51611328 C144.14699719 55.91362005 129.57978138 44.8168312 113.5625 35.1875 C112.25285278 34.38662964 112.25285278 34.38662964 110.91674805 33.56958008 C103.8247048 29.31435413 96.63485786 25.79334768 89 22.625 C87.86667236 22.15247803 86.73334473 21.67995605 85.56567383 21.19311523 C69.20754354 14.47399906 53.03695023 9.91202937 35.5625 7.1875 C34.82725098 7.06890625 34.09200195 6.9503125 33.33447266 6.828125 C-35.24606339 -3.74936415 -100.76622241 21.38581479 -150.4375 68.1875 Z " fill="#F7FAFE" transform="translate(253.4375,34.8125)"/>
<path d="M0 0 C0 0.33 0 0.66 0 1 C-6.72397335 1.84222253 -13.35512752 2.18391489 -20.125 2.375 C-29.62813792 2.69438962 -38.9323328 3.58679045 -48.33642578 4.98388672 C-53.62992754 5.75983217 -58.64835653 6.14379416 -64 6 C-46.41709727 -3.68047454 -19.48851205 -0.45673455 0 0 Z " fill="#249BFD" transform="translate(270,40)"/>
<path d="M0 0 C0.66 0 1.32 0 2 0 C2 0.66 2 1.32 2 2 C0.75180089 3.05375603 -0.55390967 4.03920703 -1.875 5 C-10.6701646 11.81243963 -18.2314749 20.06640327 -26 28 C-26.99 27.67 -27.98 27.34 -29 27 C-20.03421588 17.82890463 -11.17532878 8.84000742 -1 1 C-0.67 0.67 -0.34 0.34 0 0 Z " fill="#106DFD" transform="translate(123,85)"/>
<path d="M0 0 C4 1 4 1 4 1 Z " fill="#000000" transform="translate(20,0)"/>
</svg>
