<!--
  - Copyright (c) 2022 船山信息 chuanshaninfo.com
  - The project is licensed under Mulan PubL v2.
  - You can use this software according to the terms and conditions of the Mulan
  - PubL v2. You may obtain a copy of Mulan PubL v2 at:
  -          http://license.coscl.org.cn/MulanPubL-2.0
  - THIS SOFTWARE IS PROVIDED ON AN "AS IS" BASIS, WITHOUT WARRANTIES OF ANY KIND,
  - EITHER EXPRESS OR IMPLIED, INCLUDING BUT NOT LIMITED TO NON-INFRINGEMENT,
  - MERCHANTABILITY OR FIT FOR A PARTICULAR PURPOSE.
  - See the Mulan PubL v2 for more details.
  -->

<svg xmlns="http://www.w3.org/2000/svg" width="64" height="64" viewBox="0 0 64 64"><path fill="#699635" d="M53.127 10.699c-11.695-11.6-30.561-11.6-42.256 0L32 26.953l21.127-16.254zM10.871 53.301c11.695 11.599 30.561 11.599 42.256 0L32 37.047 10.871 53.301z"/><path fill="#3E4347" d="M58.01 46.962c5.32-9.233 5.32-20.689 0-29.924L38.561 32 58.01 46.962zM5.988 17.038c-5.318 9.234-5.318 20.69 0 29.924L25.438 32 5.988 17.038z"/><path fill="#FFE62E" d="M53.127 10.699L32 26.952 10.871 10.699a30.197 30.197 0 0 0-4.879 6.342L25.438 32 5.994 46.959a30.079 30.079 0 0 0 4.879 6.342L32 37.047l21.125 16.254a30.121 30.121 0 0 0 4.881-6.342L38.561 32l19.445-14.959a30.097 30.097 0 0 0-4.879-6.342z"/></svg>