<!--
  - Copyright (c) 2022 船山信息 chuanshaninfo.com
  - The project is licensed under Mulan PubL v2.
  - You can use this software according to the terms and conditions of the Mulan
  - PubL v2. You may obtain a copy of Mulan PubL v2 at:
  -          http://license.coscl.org.cn/MulanPubL-2.0
  - THIS SOFTWARE IS PROVIDED ON AN "AS IS" BASIS, WITHOUT WARRANTIES OF ANY KIND,
  - EITHER EXPRESS OR IMPLIED, INCLUDING BUT NOT LIMITED TO NON-INFRINGEMENT,
  - MERCHANTABILITY OR FIT FOR A PARTICULAR PURPOSE.
  - See the Mulan PubL v2 for more details.
  -->

<svg xmlns="http://www.w3.org/2000/svg" width="64" height="64" viewBox="0 0 64 64"><path fill="#C94747" d="M32 62c16.568 0 30-13.432 30-30H2c0 16.568 13.431 30 30 30z"/><path fill="#F9F9F9" d="M32 2C15.431 2 2 15.432 2 32h60C62 15.432 48.568 2 32 2z"/><g><path fill="#C94747" d="M24 17c8.283 0 15 6.716 15 15H9c0-8.284 6.716-15 15-15z"/><path fill="#F9F9F9" d="M24 47c-8.284 0-15-6.717-15-15h30c0 8.283-6.717 15-15 15z"/></g></svg>