<!--
  - Copyright (c) 2022 船山信息 chuanshaninfo.com
  - The project is licensed under Mulan PubL v2.
  - You can use this software according to the terms and conditions of the Mulan
  - PubL v2. You may obtain a copy of Mulan PubL v2 at:
  -          http://license.coscl.org.cn/MulanPubL-2.0
  - THIS SOFTWARE IS PROVIDED ON AN "AS IS" BASIS, WITHOUT WARRANTIES OF ANY KIND,
  - EITHER EXPRESS OR IMPLIED, INCLUDING BUT NOT LIMITED TO NON-INFRINGEMENT,
  - MERCHANTABILITY OR FIT FOR A PARTICULAR PURPOSE.
  - See the Mulan PubL v2 for more details.
  -->

<svg xmlns="http://www.w3.org/2000/svg" width="64" height="64" viewBox="0 0 64 64"><path fill="#B4D7EE" d="M60.913 24C57.411 11.316 45.797 2 32 2S6.589 11.316 3.087 24v16C6.589 52.684 18.203 62 32 62c13.796 0 25.41-9.316 28.913-22V24z"/><path fill="#FFF" d="M61.577 27.012A30.385 30.385 0 0 0 60.913 24H3.087c-.272.984-.493 1.99-.665 3.012h59.155zM2.423 36.988c.171 1.022.392 2.028.664 3.012h57.826c.271-.984.492-1.99.664-3.012H2.423z"/><path fill="#3E4347" d="M2 32c0 1.705.149 3.373.423 5h59.154c.274-1.627.423-3.295.423-5s-.149-3.373-.423-5H2.423A30.068 30.068 0 0 0 2 32z"/></svg>