<!--
  - Copyright (c) 2022 船山信息 chuanshaninfo.com
  - The project is licensed under Mulan PubL v2.
  - You can use this software according to the terms and conditions of the Mulan
  - PubL v2. You may obtain a copy of Mulan PubL v2 at:
  -          http://license.coscl.org.cn/MulanPubL-2.0
  - THIS SOFTWARE IS PROVIDED ON AN "AS IS" BASIS, WITHOUT WARRANTIES OF ANY KIND,
  - EITHER EXPRESS OR IMPLIED, INCLUDING BUT NOT LIMITED TO NON-INFRINGEMENT,
  - MERCHANTABILITY OR FIT FOR A PARTICULAR PURPOSE.
  - See the Mulan PubL v2 for more details.
  -->

<svg xmlns="http://www.w3.org/2000/svg" width="64" height="64" viewBox="0 0 64 64"><circle fill="#4FD1D9" cx="32" cy="32" r="30"/><path fill="#FFF" d="M20.356 17.118h6.16v17.82c0 1.993.236 3.448.707 4.366.732 1.626 2.328 2.439 4.785 2.439 2.445 0 4.035-.813 4.768-2.439.471-.918.705-2.373.705-4.366v-17.82h6.162v17.834c0 3.084-.479 5.486-1.434 7.205-1.783 3.149-5.182 4.725-10.201 4.725-5.018 0-8.424-1.575-10.219-4.725-.957-1.719-1.434-4.121-1.434-7.205V17.118z"/></svg>