<!--
  - Copyright (c) 2022 船山信息 chuanshaninfo.com
  - The project is licensed under Mulan PubL v2.
  - You can use this software according to the terms and conditions of the Mulan
  - PubL v2. You may obtain a copy of Mulan PubL v2 at:
  -          http://license.coscl.org.cn/MulanPubL-2.0
  - THIS SOFTWARE IS PROVIDED ON AN "AS IS" BASIS, WITHOUT WARRANTIES OF ANY KIND,
  - EITHER EXPRESS OR IMPLIED, INCLUDING BUT NOT LIMITED TO NON-INFRINGEMENT,
  - MERCHANTABILITY OR FIT FOR A PARTICULAR PURPOSE.
  - See the Mulan PubL v2 for more details.
  -->

<svg xmlns="http://www.w3.org/2000/svg" width="64" height="64" viewBox="0 0 64 64"><path fill="#FFE62E" d="M32 62a29.848 29.848 0 0 0 16-4.628V6.628A29.848 29.848 0 0 0 32 2a29.85 29.85 0 0 0-16 4.628v50.744A29.85 29.85 0 0 0 32 62z"/><path fill="#2A5F9E" d="M16 6.628C7.59 11.943 2 21.316 2 32s5.59 20.057 14 25.372V6.628z"/><path fill="#699635" d="M48 57.372C56.41 52.057 62 42.684 62 32S56.41 11.943 48 6.628v50.744z"/><g fill="#699635"><path d="M24.772 17.92L18.75 28.271l6.022 10.352 6.024-10.352zM39.228 17.92l-6.024 10.351 6.024 10.352 6.022-10.352zM25.978 41.729L32 52.08l6.022-10.351L32 31.377z"/></g></svg>