<!--
  - Copyright (c) 2022 船山信息 chuanshaninfo.com
  - The project is licensed under Mulan PubL v2.
  - You can use this software according to the terms and conditions of the Mulan
  - PubL v2. You may obtain a copy of Mulan PubL v2 at:
  -          http://license.coscl.org.cn/MulanPubL-2.0
  - THIS SOFTWARE IS PROVIDED ON AN "AS IS" BASIS, WITHOUT WARRANTIES OF ANY KIND,
  - EITHER EXPRESS OR IMPLIED, INCLUDING BUT NOT LIMITED TO NON-INFRINGEMENT,
  - MERCHANTABILITY OR FIT FOR A PARTICULAR PURPOSE.
  - See the Mulan PubL v2 for more details.
  -->

<svg xmlns="http://www.w3.org/2000/svg" width="64" height="64" viewBox="0 0 64 64"><path fill="#ED4C5C" d="M32 2v30H2c0 16.568 13.432 30 30 30s30-13.432 30-30S48.568 2 32 2z"/><path fill="#2A5F9E" d="M32 2C15.432 2 2 15.432 2 32h30V2z"/><g><path fill="#FFF" d="M23.988 20.337L29 19l-5.012-1.337L27.66 14l-5.009 1.349L24 10.34l-3.663 3.672L19 9l-1.337 5.012L14 10.34l1.349 5.009L10.34 14l3.672 3.663L9 19l5.012 1.337L10.34 24l5.009-1.349L14 27.66l3.663-3.672L19 29l1.337-5.012L24 27.66l-1.349-5.009L27.66 24l-3.672-3.663z"/><circle fill="#428BC1" cx="19" cy="19" r="5.667"/><circle fill="#FFF" cx="19" cy="19" r="5"/></g></svg>