<!--
  - Copyright (c) 2022 船山信息 chuanshaninfo.com
  - The project is licensed under Mulan PubL v2.
  - You can use this software according to the terms and conditions of the Mulan
  - PubL v2. You may obtain a copy of Mulan PubL v2 at:
  -          http://license.coscl.org.cn/MulanPubL-2.0
  - THIS SOFTWARE IS PROVIDED ON AN "AS IS" BASIS, WITHOUT WARRANTIES OF ANY KIND,
  - EITHER EXPRESS OR IMPLIED, INCLUDING BUT NOT LIMITED TO NON-INFRINGEMENT,
  - MERCHANTABILITY OR FIT FOR A PARTICULAR PURPOSE.
  - See the Mulan PubL v2 for more details.
  -->

<svg xmlns="http://www.w3.org/2000/svg" width="64" height="64" viewBox="0 0 64 64"><path fill="#ED4C5C" d="M32 2C21.316 2 11.943 7.59 6.628 16h50.744C52.058 7.59 42.685 2 32 2z"/><path fill="#2A5F9E" d="M6.628 16A29.848 29.848 0 0 0 2 32h60a29.84 29.84 0 0 0-4.628-16H6.628z"/><path fill="#699635" d="M6.628 48C11.943 56.41 21.316 62 32 62c10.685 0 20.058-5.59 25.372-14H6.628z"/><path fill="#FFCE31" d="M57.372 48A29.84 29.84 0 0 0 62 32H2a29.848 29.848 0 0 0 4.628 16h50.744z"/></svg>