<!--
  - Copyright (c) 2022 船山信息 chuanshaninfo.com
  - The project is licensed under Mulan PubL v2.
  - You can use this software according to the terms and conditions of the Mulan
  - PubL v2. You may obtain a copy of Mulan PubL v2 at:
  -          http://license.coscl.org.cn/MulanPubL-2.0
  - THIS SOFTWARE IS PROVIDED ON AN "AS IS" BASIS, WITHOUT WARRANTIES OF ANY KIND,
  - EITHER EXPRESS OR IMPLIED, INCLUDING BUT NOT LIMITED TO NON-INFRINGEMENT,
  - MERCHANTABILITY OR FIT FOR A PARTICULAR PURPOSE.
  - See the Mulan PubL v2 for more details.
  -->

<svg xmlns="http://www.w3.org/2000/svg" width="64" height="64" viewBox="0 0 64 64"><path fill="#947151" d="M25 52.125h14V64H25z"/><path fill="#71A03A" d="M32 34.931L2 55.133s14.5 3.439 30 3.439c15.501 0 30-3.439 30-3.439L32 34.931z"/><path fill="#76AA3F" d="M32 23.62L7 43.824s12.083 3.438 25 3.438 25-3.438 25-3.438L32 23.62z"/><path fill="#7CB545" d="M32 12.31L12 32.514s9.667 3.438 20 3.438c10.334 0 20-3.438 20-3.438L32 12.31z"/><path fill="#83BF4F" d="M32 1L17 20.811s7.25 3.831 15 3.831 15-3.831 15-3.831L32 1z"/></svg>