<!--
  - Copyright (c) 2022 船山信息 chuanshaninfo.com
  - The project is licensed under Mulan PubL v2.
  - You can use this software according to the terms and conditions of the Mulan
  - PubL v2. You may obtain a copy of Mulan PubL v2 at:
  -          http://license.coscl.org.cn/MulanPubL-2.0
  - THIS SOFTWARE IS PROVIDED ON AN "AS IS" BASIS, WITHOUT WARRANTIES OF ANY KIND,
  - EITHER EXPRESS OR IMPLIED, INCLUDING BUT NOT LIMITED TO NON-INFRINGEMENT,
  - MERCHANTABILITY OR FIT FOR A PARTICULAR PURPOSE.
  - See the Mulan PubL v2 for more details.
  -->

<svg xmlns="http://www.w3.org/2000/svg" width="64" height="64" viewBox="0 0 64 64"><circle fill="#4FD1D9" cx="32" cy="32" r="30"/><path fill="#FFF" d="M42 16a7.994 7.994 0 0 0-7 4.131A7.994 7.994 0 0 0 28 16a8 8 0 0 0 0 16 7.994 7.994 0 0 0 7-4.131A7.994 7.994 0 0 0 42 32a8 8 0 0 0 0-16zM28 27a3 3 0 1 1 0-6 3 3 0 0 1 0 6zm14 0a3 3 0 1 1 0-6 3 3 0 0 1 0 6z"/><path fill="#FFF" d="M46 32H23c-1.1 0-2 .9-2 2v.5L16 32v16l5-2.5v.5c0 1.1.9 2 2 2h23c1.1 0 2-.9 2-2V34c0-1.1-.9-2-2-2z"/></svg>