<!--
  - Copyright (c) 2022 船山信息 chuanshaninfo.com
  - The project is licensed under Mulan PubL v2.
  - You can use this software according to the terms and conditions of the Mulan
  - PubL v2. You may obtain a copy of Mulan PubL v2 at:
  -          http://license.coscl.org.cn/MulanPubL-2.0
  - THIS SOFTWARE IS PROVIDED ON AN "AS IS" BASIS, WITHOUT WARRANTIES OF ANY KIND,
  - EITHER EXPRESS OR IMPLIED, INCLUDING BUT NOT LIMITED TO NON-INFRINGEMENT,
  - MERCHANTABILITY OR FIT FOR A PARTICULAR PURPOSE.
  - See the Mulan PubL v2 for more details.
  -->

<svg xmlns="http://www.w3.org/2000/svg" width="64" height="64" viewBox="0 0 64 64"><path fill="#493B30" d="M62 9.325C62 20.212 48.57 29.5 32 29.5c-16.569 0-30-9.287-30-20.174 0 0 14.284 3.188 30 3.188 15.718-.001 30-3.189 30-3.189z"/><path fill="#FF717F" d="M8 29.053c0-17.058.005-11.822 24-11.822 24.005 0 24-5.236 24 11.822 0 17.057-10.744 25.622-24 25.622-13.254 0-24-8.565-24-25.622z"/><path fill="#E2596C" d="M33.5 17.231L32 46.477l-1.5-29.246z"/></svg>