<!--
  - Copyright (c) 2022 船山信息 chuanshaninfo.com
  - The project is licensed under Mulan PubL v2.
  - You can use this software according to the terms and conditions of the Mulan
  - PubL v2. You may obtain a copy of Mulan PubL v2 at:
  -          http://license.coscl.org.cn/MulanPubL-2.0
  - THIS SOFTWARE IS PROVIDED ON AN "AS IS" BASIS, WITHOUT WARRANTIES OF ANY KIND,
  - EITHER EXPRESS OR IMPLIED, INCLUDING BUT NOT LIMITED TO NON-INFRINGEMENT,
  - MERCHANTABILITY OR FIT FOR A PARTICULAR PURPOSE.
  - See the Mulan PubL v2 for more details.
  -->

<svg xmlns="http://www.w3.org/2000/svg" width="64" height="64" viewBox="0 0 64 64"><path fill="#4D5357" d="M48.875 28.25h-33.75a5.624 5.624 0 1 1 0-11.25h33.75a5.626 5.626 0 0 1 5.625 5.625H62C62 15.376 56.124 9.5 48.875 9.5H35.75V2h-7.5v7.5H15.125C7.876 9.5 2 15.376 2 22.625S7.876 35.75 15.125 35.75h33.75a5.626 5.626 0 0 1 0 11.252V47h-33.75v.002A5.626 5.626 0 0 1 9.5 41.375H2C2 48.624 7.876 54.5 15.125 54.5H28.25V62h7.5v-7.5h13.125C56.124 54.5 62 48.624 62 41.375S56.124 28.25 48.875 28.25z"/></svg>