<!--
  - Copyright (c) 2022 船山信息 chuanshaninfo.com
  - The project is licensed under Mulan PubL v2.
  - You can use this software according to the terms and conditions of the Mulan
  - PubL v2. You may obtain a copy of Mulan PubL v2 at:
  -          http://license.coscl.org.cn/MulanPubL-2.0
  - THIS SOFTWARE IS PROVIDED ON AN "AS IS" BASIS, WITHOUT WARRANTIES OF ANY KIND,
  - EITHER EXPRESS OR IMPLIED, INCLUDING BUT NOT LIMITED TO NON-INFRINGEMENT,
  - MERCHANTABILITY OR FIT FOR A PARTICULAR PURPOSE.
  - See the Mulan PubL v2 for more details.
  -->

<svg xmlns="http://www.w3.org/2000/svg" width="64" height="64" viewBox="0 0 64 64"><circle fill="#4FD1D9" cx="32" cy="32" r="30"/><g fill="#FFF"><path d="M27.325 20.058a11.952 11.952 0 0 1 4.895-1.041c6.588 0 11.948 5.129 11.948 11.982H52c0-10.771-8.874-19.813-19.78-19.813-3.846 0-7.557 1.086-10.764 3.17L18 10.999v13.146h13.532l-4.207-4.087zM36.5 42.563a11.358 11.358 0 0 1-4.691 1.016c-6.598 0-11.966-5.346-11.966-12.58H12c0 11.367 8.887 20.848 19.809 20.848 3.708 0 7.249-1.092 10.331-3.088l3.86 4.24V38.233H32.558l3.942 4.33z"/></g></svg>