<!--
  - Copyright (c) 2022 船山信息 chuanshaninfo.com
  - The project is licensed under Mulan PubL v2.
  - You can use this software according to the terms and conditions of the Mulan
  - PubL v2. You may obtain a copy of Mulan PubL v2 at:
  -          http://license.coscl.org.cn/MulanPubL-2.0
  - THIS SOFTWARE IS PROVIDED ON AN "AS IS" BASIS, WITHOUT WARRANTIES OF ANY KIND,
  - EITHER EXPRESS OR IMPLIED, INCLUDING BUT NOT LIMITED TO NON-INFRINGEMENT,
  - MERCHANTABILITY OR FIT FOR A PARTICULAR PURPOSE.
  - See the Mulan PubL v2 for more details.
  -->

<svg xmlns="http://www.w3.org/2000/svg" width="64" height="64" viewBox="0 0 64 64"><path fill="#94989B" d="M2 32c0 8.25 6.751 15 15 15h30c8.251 0 15-6.75 15-15s-6.749-15-15-15H17C8.751 17 2 23.75 2 32z"/><path fill="#3E4347" d="M3.875 32c0 7.238 5.889 13.125 13.125 13.125h30c7.238 0 13.125-5.887 13.125-13.125S54.238 18.875 47 18.875H17C9.764 18.875 3.875 24.762 3.875 32z"/><circle fill="#FFE62E" cx="32" cy="32" r="7.5"/><circle fill="#ED4C5C" cx="13.25" cy="32" r="7.5"/><circle fill="#83BF4F" cx="50.75" cy="32" r="7.5"/></svg>