<!--
  - Copyright (c) 2022 船山信息 chuanshaninfo.com
  - The project is licensed under Mulan PubL v2.
  - You can use this software according to the terms and conditions of the Mulan
  - PubL v2. You may obtain a copy of Mulan PubL v2 at:
  -          http://license.coscl.org.cn/MulanPubL-2.0
  - THIS SOFTWARE IS PROVIDED ON AN "AS IS" BASIS, WITHOUT WARRANTIES OF ANY KIND,
  - EITHER EXPRESS OR IMPLIED, INCLUDING BUT NOT LIMITED TO NON-INFRINGEMENT,
  - MERCHANTABILITY OR FIT FOR A PARTICULAR PURPOSE.
  - See the Mulan PubL v2 for more details.
  -->

<svg xmlns="http://www.w3.org/2000/svg" width="64" height="64" viewBox="0 0 64 64"><circle fill="#4FD1D9" cx="32" cy="32" r="30"/><g fill="#FFF"><path d="M28 38l-1 10h-8l-1-10h-2v13h14V38z"/><path d="M20 37l3-3 3 4-4 2zM45 23H33c-1 0-2 1-2 2l-1 4-5 3 1 2 6-2 2-5 1 24h3l1-13 1 13h3l1-24 1 9h3l-1-11c0-1-1-2-2-2zM43 19c0 1-1 2-2 1.998h-4C36 21 35 20 35 19v-4c0-1 1-2 2-2h4c1 0 2 1 2 2v4z"/></g></svg>