<!--
  - Copyright (c) 2022 船山信息 chuanshaninfo.com
  - The project is licensed under Mulan PubL v2.
  - You can use this software according to the terms and conditions of the Mulan
  - PubL v2. You may obtain a copy of Mulan PubL v2 at:
  -          http://license.coscl.org.cn/MulanPubL-2.0
  - THIS SOFTWARE IS PROVIDED ON AN "AS IS" BASIS, WITHOUT WARRANTIES OF ANY KIND,
  - EITHER EXPRESS OR IMPLIED, INCLUDING BUT NOT LIMITED TO NON-INFRINGEMENT,
  - MERCHANTABILITY OR FIT FOR A PARTICULAR PURPOSE.
  - See the Mulan PubL v2 for more details.
  -->

<svg xmlns="http://www.w3.org/2000/svg" width="64" height="64" viewBox="0 0 64 64"><circle fill="#4FD1D9" cx="32.001" cy="32" r="30"/><g fill="#FFF"><path d="M15.586 45l-4.585-26h3.97l2.895 17.855L21.375 19h4.61l3.364 18.16L32.298 19h3.903l-4.665 26h-4.112l-3.821-19.439L19.79 45h-4.204zM46.001 41.287c-1.93 0-3.5-1.67-3.5-3.717V26.428c0-2.047 1.57-3.713 3.5-3.713 1.929 0 3.5 1.666 3.5 3.713h3.5c0-4.094-3.14-7.428-7-7.428-3.858 0-7 3.334-7 7.428V37.57c0 4.098 3.142 7.43 7 7.43 3.86 0 7-3.332 7-7.43h-3.5c0 2.047-1.571 3.717-3.5 3.717z"/></g></svg>