<!--
  - Copyright (c) 2022 船山信息 chuanshaninfo.com
  - The project is licensed under Mulan PubL v2.
  - You can use this software according to the terms and conditions of the Mulan
  - PubL v2. You may obtain a copy of Mulan PubL v2 at:
  -          http://license.coscl.org.cn/MulanPubL-2.0
  - THIS SOFTWARE IS PROVIDED ON AN "AS IS" BASIS, WITHOUT WARRANTIES OF ANY KIND,
  - EITHER EXPRESS OR IMPLIED, INCLUDING BUT NOT LIMITED TO NON-INFRINGEMENT,
  - MERCHANTABILITY OR FIT FOR A PARTICULAR PURPOSE.
  - See the Mulan PubL v2 for more details.
  -->

<svg xmlns="http://www.w3.org/2000/svg" width="64" height="64" viewBox="0 0 64 64"><circle fill="#EDA454" cx="32" cy="32" r="30"/><g fill="#FFF"><path d="M37 19.5c0 1.25-1.25 2.502-2.5 2.5h-5c-1.25.002-2.5-1.25-2.5-2.5v-5c0-1.25 1.25-2.5 2.5-2.5h5c1.25 0 2.5 1.25 2.5 2.5v5zM31 41l-5-3-3 7 3 7 3-1-2-6zM33 41l5-3 3 7-3 7-3-1 2-6z"/><path d="M36 24h-8.054L20 21l-1 2 7 5v6c0 2 1 3 3 3h6c2 0 3-1 3-3v-6l7-5-1-2-8 3z"/></g></svg>