<!--
  - Copyright (c) 2022 船山信息 chuanshaninfo.com
  - The project is licensed under Mulan PubL v2.
  - You can use this software according to the terms and conditions of the Mulan
  - PubL v2. You may obtain a copy of Mulan PubL v2 at:
  -          http://license.coscl.org.cn/MulanPubL-2.0
  - THIS SOFTWARE IS PROVIDED ON AN "AS IS" BASIS, WITHOUT WARRANTIES OF ANY KIND,
  - EITHER EXPRESS OR IMPLIED, INCLUDING BUT NOT LIMITED TO NON-INFRINGEMENT,
  - MERCHANTABILITY OR FIT FOR A PARTICULAR PURPOSE.
  - See the Mulan PubL v2 for more details.
  -->

<svg xmlns="http://www.w3.org/2000/svg" width="64" height="64" viewBox="0 0 64 64"><circle fill="#4FD1D9" cx="32" cy="32" r="30"/><circle fill="#FFF" cx="14.5" cy="48" r="2"/><circle fill="#FFF" cx="21.5" cy="48" r="2"/><circle fill="#FFF" cx="28.5" cy="48" r="2"/><circle fill="#FFF" cx="35.5" cy="48" r="2"/><circle fill="#FFF" cx="42.5" cy="48" r="2"/><circle fill="#FFF" cx="49.5" cy="48" r="2"/><path fill="#FFF" d="M41 19h-2v-3.903c0-.569-.447-1.032-1-1.032H26c-.551 0-1 .463-1 1.032V19h-2v-3.903C23 13.389 24.346 12 26 12h12c1.654 0 3 1.389 3 3.097V19z"/><g fill="#FFF"><path d="M50 19h-3.5v24H50a2 2 0 0 0 2-2V21a2 2 0 0 0-2-2zM19.5 19h25v24h-25zM17.5 19H14a2 2 0 0 0-2 2v20a2 2 0 0 0 2 2h3.5V19z"/></g></svg>