<!--
  - Copyright (c) 2022 船山信息 chuanshaninfo.com
  - The project is licensed under Mulan PubL v2.
  - You can use this software according to the terms and conditions of the Mulan
  - PubL v2. You may obtain a copy of Mulan PubL v2 at:
  -          http://license.coscl.org.cn/MulanPubL-2.0
  - THIS SOFTWARE IS PROVIDED ON AN "AS IS" BASIS, WITHOUT WARRANTIES OF ANY KIND,
  - EITHER EXPRESS OR IMPLIED, INCLUDING BUT NOT LIMITED TO NON-INFRINGEMENT,
  - MERCHANTABILITY OR FIT FOR A PARTICULAR PURPOSE.
  - See the Mulan PubL v2 for more details.
  -->

<svg xmlns="http://www.w3.org/2000/svg" width="64" height="64" viewBox="0 0 64 64"><circle fill="#3E4347" cx="32" cy="32" r="30"/><circle fill="#FFE62E" cx="32" cy="32" r="27"/><circle fill="#3E4347" cx="32" cy="32" r="5"/><g fill="#3E4347"><path d="M8 28.759l17.12 2.221a6.922 6.922 0 0 1 2.668-4.619L17.303 12.644c-5 3.828-8.46 9.561-9.303 16.115zM32 38.816a6.89 6.89 0 0 1-2.669-.533l-6.639 15.939A24.145 24.145 0 0 0 32 56.078c3.299 0 6.441-.662 9.308-1.856l-6.639-15.939a6.89 6.89 0 0 1-2.669.533zM38.88 30.98L56 28.759c-.843-6.555-4.303-12.287-9.304-16.116L36.212 26.361a6.92 6.92 0 0 1 2.668 4.619z"/></g></svg>