<!--
  - Copyright (c) 2022 船山信息 chuanshaninfo.com
  - The project is licensed under Mulan PubL v2.
  - You can use this software according to the terms and conditions of the Mulan
  - PubL v2. You may obtain a copy of Mulan PubL v2 at:
  -          http://license.coscl.org.cn/MulanPubL-2.0
  - THIS SOFTWARE IS PROVIDED ON AN "AS IS" BASIS, WITHOUT WARRANTIES OF ANY KIND,
  - EITHER EXPRESS OR IMPLIED, INCLUDING BUT NOT LIMITED TO NON-INFRINGEMENT,
  - MERCHANTABILITY OR FIT FOR A PARTICULAR PURPOSE.
  - See the Mulan PubL v2 for more details.
  -->

<svg xmlns="http://www.w3.org/2000/svg" width="64" height="64" viewBox="0 0 64 64"><path fill="#4D5357" d="M62 32.938C62 18.47 32 2 32 2S2 18.47 2 32.938c0 8.576 7.226 15.938 15.938 15.938 4.193 0 7.925-1.617 10.702-4.242l-.389 3.305c-.504 3.589-2.993 6.872-6.563 7.5L17 56.375V62h30v-5.625l-4.688-.938c-3.569-.628-6.058-3.909-6.563-7.5l-.389-3.305c2.776 2.627 6.508 4.242 10.701 4.242C54.774 48.875 62 41.514 62 32.938z"/></svg>