<!--
  - Copyright (c) 2022 船山信息 chuanshaninfo.com
  - The project is licensed under Mulan PubL v2.
  - You can use this software according to the terms and conditions of the Mulan
  - PubL v2. You may obtain a copy of Mulan PubL v2 at:
  -          http://license.coscl.org.cn/MulanPubL-2.0
  - THIS SOFTWARE IS PROVIDED ON AN "AS IS" BASIS, WITHOUT WARRANTIES OF ANY KIND,
  - EITHER EXPRESS OR IMPLIED, INCLUDING BUT NOT LIMITED TO NON-INFRINGEMENT,
  - MERCHANTABILITY OR FIT FOR A PARTICULAR PURPOSE.
  - See the Mulan PubL v2 for more details.
  -->

<svg xmlns="http://www.w3.org/2000/svg" width="64" height="64" viewBox="0 0 64 64"><path fill="#FFE54D" d="M22 0c0 16.889-9.127 32-22 32 12.873 0 22 15.111 22 32 0-16.889 9.127-32 22-32-12.873 0-22-15.111-22-32z"/><path fill="#6ADBC6" d="M53 0c0 8.445-4.563 16-11 16 6.437 0 11 7.556 11 16 0-8.444 4.563-16 11-16-6.437 0-11-7.555-11-16z"/><path fill="#FF73C0" d="M48 32c0 8.445-4.563 16-11 16 6.437 0 11 7.556 11 16 0-8.444 4.563-16 11-16-6.437 0-11-7.555-11-16z"/></svg>