<!--
  - Copyright (c) 2022 船山信息 chuanshaninfo.com
  - The project is licensed under Mulan PubL v2.
  - You can use this software according to the terms and conditions of the Mulan
  - PubL v2. You may obtain a copy of Mulan PubL v2 at:
  -          http://license.coscl.org.cn/MulanPubL-2.0
  - THIS SOFTWARE IS PROVIDED ON AN "AS IS" BASIS, WITHOUT WARRANTIES OF ANY KIND,
  - EITHER EXPRESS OR IMPLIED, INCLUDING BUT NOT LIMITED TO NON-INFRINGEMENT,
  - MERCHANTABILITY OR FIT FOR A PARTICULAR PURPOSE.
  - See the Mulan PubL v2 for more details.
  -->

<svg t="1730464084446" class="icon" viewBox="0 0 1024 1024" version="1.1" xmlns="http://www.w3.org/2000/svg"
     p-id="19998" width="200" height="200">
    <path d="M864.01024 160.01024H159.98976c-35.18464 0-64 27.29984-64 60.57984v454.71744c0 33.30048 28.81536 60.60032 64 60.60032h704.02048c35.18464 0 63.97952-27.29984 63.97952-60.6208V220.61056c0-33.28-28.79488-60.60032-63.97952-60.60032z m0 512H159.98976V223.96928h704.02048v448.02048z"
          fill="#ffffff" p-id="19999"></path>
    <path d="M960 224.01024H64c-17.6128 0-32.01024-14.41792-32.01024-32.01024 0-17.6128 14.41792-32.01024 32.01024-32.01024h896c17.6128 0 32.01024 14.41792 32.01024 32.01024 0 17.6128-14.41792 32.01024-32.01024 32.01024zM688.00512 911.9744a32.23552 32.23552 0 0 0 0-45.30176l-146.69824-146.69824a32.23552 32.23552 0 0 0-45.30176 0 32.23552 32.23552 0 0 0 0 45.30176l146.69824 146.69824c12.4928 12.41088 32.89088 12.41088 45.30176 0z"
          fill="#ffffff" p-id="20000"></path>
    <path d="M304.00512 911.99488a32.23552 32.23552 0 0 1 0-45.30176l146.69824-146.69824a32.23552 32.23552 0 0 1 45.30176 0 32.23552 32.23552 0 0 1 0 45.30176l-146.69824 146.69824a32.23552 32.23552 0 0 1-45.30176 0z m208.4864-687.98464a31.62112 31.62112 0 0 1-31.49824-31.51872V127.50848c0-17.3056 14.21312-31.49824 31.49824-31.49824 17.3056 0 31.49824 14.19264 31.49824 31.49824v64.98304c0 17.3056-14.19264 31.51872-31.49824 31.51872z m-64.49152 351.98976c-17.6128 0-32.01024-14.39744-32.01024-32.01024v-192c0-17.59232 14.41792-31.98976 32.01024-31.98976 17.6128 0 32.01024 14.39744 32.01024 32.01024v192c0 17.59232-14.41792 31.98976-32.01024 31.98976z m-128 0c-17.6128 0-32.01024-14.39744-32.01024-32.01024v-64c0-17.59232 14.41792-31.98976 32.01024-31.98976 17.6128 0 32.01024 14.39744 32.01024 32.01024v64c0 17.59232-14.41792 31.98976-32.01024 31.98976z m256 0c-17.6128 0-32.01024-14.39744-32.01024-32.01024v-128c0-17.59232 14.41792-31.98976 32.01024-31.98976 17.6128 0 32.01024 14.39744 32.01024 32.01024v128c0 17.59232-14.41792 31.98976-32.01024 31.98976z m128 0c-17.6128 0-32.01024-14.39744-32.01024-32.01024V384c0-17.6128 14.41792-32.01024 32.01024-32.01024 17.6128 0 32.01024 14.41792 32.01024 32.01024v160.01024c0 17.59232-14.41792 31.98976-32.01024 31.98976z"
          fill="#ffffff" p-id="20001"></path>
</svg>