<?xml version="1.0" encoding="UTF-8" standalone="no"?>
<!DOCTYPE svg PUBLIC "-//W3C//DTD SVG 1.1//EN" "http://www.w3.org/Graphics/SVG/1.1/DTD/svg11.dtd">
<svg width="100%" height="100%" viewBox="0 0 200 200" version="1.1" xmlns="http://www.w3.org/2000/svg" xmlns:xlink="http://www.w3.org/1999/xlink" xml:space="preserve" xmlns:serif="http://www.serif.com/" style="fill-rule:evenodd;clip-rule:evenodd;stroke-linejoin:round;stroke-miterlimit:2;">
    <path d="M162.5,35L37.5,35C23.691,35 12.5,46.191 12.5,60L12.5,127.5C12.5,141.309 23.691,152.5 37.5,152.5L75,152.5L96.25,168.438C97.363,169.277 98.672,169.688 100,169.688C101.328,169.688 102.637,169.277 103.75,168.438L125,152.5L162.5,152.5C176.309,152.5 187.5,141.309 187.5,127.5L187.5,60C187.5,46.191 176.309,35 162.5,35ZM100,155.625L82.5,142.5C80.332,140.879 77.695,140 75,140L37.5,140C30.605,140 25,134.395 25,127.5L25,60C25,53.105 30.605,47.5 37.5,47.5L162.5,47.5C169.395,47.5 175,53.105 175,60L175,127.5C175,134.395 169.395,140 162.5,140L125,140C122.305,140 119.668,140.879 117.5,142.5" style="fill:white;fill-rule:nonzero;"/>
    <path d="M90.625,93.75C90.625,98.893 94.857,103.125 100,103.125C105.143,103.125 109.375,98.893 109.375,93.75C109.375,88.607 105.143,84.375 100,84.375C94.857,84.375 90.625,88.607 90.625,93.75Z" style="fill:white;fill-rule:nonzero;"/>
    <path d="M131.25,93.75C131.25,98.893 135.482,103.125 140.625,103.125C145.768,103.125 150,98.893 150,93.75C150,88.607 145.768,84.375 140.625,84.375C135.482,84.375 131.25,88.607 131.25,93.75Z" style="fill:white;fill-rule:nonzero;"/>
    <path d="M50,93.75C50,98.893 54.232,103.125 59.375,103.125C64.518,103.125 68.75,98.893 68.75,93.75C68.75,88.607 64.518,84.375 59.375,84.375C54.232,84.375 50,88.607 50,93.75Z" style="fill:white;fill-rule:nonzero;"/>
</svg>
