<?xml version="1.0" standalone="no"?><!DOCTYPE svg PUBLIC "-//W3C//DTD SVG 1.1//EN" "http://www.w3.org/Graphics/SVG/1.1/DTD/svg11.dtd"><svg t="1722472518674" class="icon" viewBox="0 0 1024 1024" version="1.1" xmlns="http://www.w3.org/2000/svg" p-id="4272" width="128" height="128" xmlns:xlink="http://www.w3.org/1999/xlink"><path d="M510.3 168.2c14-0.8 25.8 4.3 37 10.6 94.1 52.5 188.3 104.9 282.2 157.6 27.3 15.3 27.6 43.4 0.2 59C737 448.1 644 500.2 551.2 552.7c-25.6 14.5-50.5 14.5-76.1 0-93.9-52.8-188.2-105.1-282-158-25.2-14.2-25.6-43-0.3-57.5 95-54.2 190.4-107.8 285.8-161.4 9.7-5.4 20.4-8.6 31.7-7.6z" fill="#ffffff" opacity=".43" p-id="4273"></path><path d="M836.2 629.7l-6.3-3.6c-3.8-2.2-7.7-4.4-11.6-6.5-12.4-6.3-29.8-1.9-38.2 1.7-12.2 5.2-16.5 12.6-18.1 17.8-5.5 18.8 13.6 30 27.1 36.3l-59.9 33.8c-67.2 38-134.5 75.9-201.7 114-10 5.7-18.6 5.6-28.6 0-28.7-16.2-57.6-32.3-86.4-48.4l-68.8-38.5c-36.6-20.5-73.3-41-110.1-61.2 10-6.5 23.9-17.7 25.3-30.1 0.8-6.8-1.9-13.4-7.2-17.7-23.6-19-44.7-10.2-60.4-0.5-23 14.2-34.5 30.4-34.2 47.9 0.4 17.5 12.5 33 36 46.2l68.9 38.8c58.8 33.2 117.7 66.4 176.8 99 3.6 2 7.2 4.1 10.8 6.3 17.7 10.6 37.8 22.5 65.9 22.8 0.7 0 1.4 0.1 2.1 0.1 14.9 0 29.7-7.1 43.5-14.9l214.1-120.4c20.7-11.6 41.3-23.2 61.8-35.2 18.4-10.8 28.9-26.9 28.7-44.3-0.2-17.2-10.9-33.1-29.5-43.4z" fill="#ffffff" p-id="4274"></path><path d="M179.3 567c4.7 3.3 9.7 6.1 14.7 8.9l79.4 44.2C336 655 398.7 689.8 460.9 725.4c17.9 10.3 35.3 15.4 52.4 15.4 15.9 0 31.5-4.4 47.1-13.3 47.7-27.1 95.6-54.1 143.4-81.1 44.1-24.8 88.2-49.7 132.1-74.6 34.9-19.8 31.8-45.6 26.8-59.3-4.8-13.1-47.9-44.3-62.3-43-4.2 0.3-8.3 1.9-12.6 4.8-7.5 5.3-17.9 18.5-15.5 33.3 1 6 4.9 16.6 20 22.4l0.1 0.1C719 571 646 612.3 573.1 653.5l-47.9 27c-8.6 4.9-15.7 4.6-25.5-0.9-30-16.9-60.1-33.6-90.2-50.2l-179-99.6c3.4-5.2 5.4-11.7 5.5-18.7 0.2-12.4-5.2-22.9-14.5-28.3-5.7-3.2-17.6-7.2-34.3 3.1l-2.1 1.2c-2 1.2-4 2.4-5.8 3.7-13.7 9.6-21.5 23.5-21.5 38.1 0.1 14.7 7.9 28.5 21.5 38.1z" fill="#ffffff" p-id="4275"></path><path d="M513.2 595.5c-18.1 0-36.2-5-53.8-14.9-42.9-24.1-85.8-48.1-128.7-72.1-51.2-28.6-102.3-57.2-153.4-85.9-22.1-12.5-35.3-33.6-35.4-56.6-0.1-22.9 13-44 34.9-56.6 85.4-48.8 171.1-97 256.9-145.2l29.1-16.3c15.7-8.8 31.8-12.7 47.9-11.9 21.5-0.6 39.1 7.4 52.1 14.6l6.8 3.8c91.9 51.2 183.8 102.4 275.5 153.9 23.4 13.2 36.9 34 36.9 57.3 0.1 23.2-13.3 44.1-36.6 57.4-52.3 29.8-104.7 59.3-157.1 88.9-40.5 22.8-81 45.7-121.4 68.6-17.5 10-35.6 15-53.7 15zM207.3 366c0.4 0.3 0.9 0.6 1.5 1 51 28.7 102.1 57.3 153.1 85.8 43 24 85.9 48 128.8 72.1 16 9 28.9 9 44.7 0 40.5-22.9 81-45.8 121.6-68.7 52.3-29.5 104.6-59 156.8-88.7 1-0.6 1.8-1.1 2.5-1.6-0.7-0.5-1.5-1.1-2.5-1.6-91.6-51.5-183.5-102.6-275.3-153.8l-6.8-3.8c-9-5-14.4-6.9-19.5-6.6l-2.4 0.1-2.4-0.2c-3.8-0.3-8.2 0.9-13.3 3.8L465 220.1c-85.6 48.1-171.2 96.3-256.5 145-0.4 0.3-0.9 0.6-1.2 0.9z" fill="#ffffff" p-id="4276"></path></svg>