<?xml version="1.0" standalone="no"?><!--
  - Copyright (c) 2022 船山信息 chuanshaninfo.com
  - The project is licensed under Mulan PubL v2.
  - You can use this software according to the terms and conditions of the Mulan
  - PubL v2. You may obtain a copy of Mulan PubL v2 at:
  -          http://license.coscl.org.cn/MulanPubL-2.0
  - THIS SOFTWARE IS PROVIDED ON AN "AS IS" BASIS, WITHOUT WARRANTIES OF ANY KIND,
  - EITHER EXPRESS OR IMPLIED, INCLUDING BUT NOT LIMITED TO NON-INFRINGEMENT,
  - MERCHANTABILITY OR FIT FOR A PARTICULAR PURPOSE.
  - See the Mulan PubL v2 for more details.
  -->

<!DOCTYPE svg PUBLIC "-//W3C//DTD SVG 1.1//EN" "http://www.w3.org/Graphics/SVG/1.1/DTD/svg11.dtd">
<svg t="1736994287077" class="icon" viewBox="0 0 1024 1024" version="1.1" xmlns="http://www.w3.org/2000/svg" p-id="8036"
     width="200" height="200">
    <path d="M397.141333 964.266667h-3.242666a25.770667 25.770667 0 0 1-22.186667-28.672l16.213333-125.610667H85.333333a25.6 25.6 0 0 1 0-51.2h331.776a25.429333 25.429333 0 0 1 19.114667 8.704 26.112 26.112 0 0 1 6.314667 20.309333l-19.968 153.6a25.770667 25.770667 0 0 1-25.429334 22.869334z"
          fill="#d81e06" p-id="8037"></path>
    <path d="M626.858667 964.266667a25.770667 25.770667 0 0 1-25.429334-22.357334l-19.968-153.6a26.112 26.112 0 0 1 6.314667-20.309333 25.429333 25.429333 0 0 1 19.114667-8.704H938.666667a25.6 25.6 0 0 1 0 51.2H636.074667l16.213333 125.610667a25.770667 25.770667 0 0 1-22.186667 28.672z"
          fill="#d81e06" p-id="8038"></path>
    <path d="M509.952 494.933333a25.6 25.6 0 0 1-20.48-10.410666L422.4 392.533333H307.2a25.6 25.6 0 0 1-25.6-25.6v-256A25.6 25.6 0 0 1 307.2 85.333333h409.6a25.6 25.6 0 0 1 25.6 25.6v256A25.6 25.6 0 0 1 716.8 392.533333h-124.245333l-61.269334 90.453334a25.6 25.6 0 0 1-20.821333 11.264zM332.8 341.333333h102.4a25.770667 25.770667 0 0 1 20.650667 10.410667l53.248 72.533333 48.469333-71.68a25.770667 25.770667 0 0 1 21.333333-11.264h112.298667V136.533333h-358.4z"
          fill="#d81e06" p-id="8039"></path>
    <path d="M212.821333 604.842667a95.402667 95.402667 0 1 1 95.402667-95.402667 95.573333 95.573333 0 0 1-95.402667 95.402667z m0-139.605334a44.202667 44.202667 0 1 0 44.202667 44.202667 44.202667 44.202667 0 0 0-44.202667-44.202667z"
          fill="#d81e06" p-id="8040"></path>
    <path d="M340.309333 809.813333a25.6 25.6 0 0 1-25.6-25.6v-18.602666a102.4 102.4 0 0 0-203.776 0V785.066667a25.6 25.6 0 0 1-51.2 0v-19.456a153.6 153.6 0 0 1 306.176 0V785.066667a25.6 25.6 0 0 1-25.6 24.746666z"
          fill="#d81e06" p-id="8041"></path>
    <path d="M811.178667 604.842667a95.402667 95.402667 0 1 1 95.402666-95.402667 95.573333 95.573333 0 0 1-95.402666 95.402667z m0-139.605334a44.202667 44.202667 0 1 0 44.202666 44.202667 44.202667 44.202667 0 0 0-44.202666-44.202667z"
          fill="#d81e06" p-id="8042"></path>
    <path d="M938.666667 809.813333A25.6 25.6 0 0 1 913.066667 785.066667v-19.456a102.4 102.4 0 0 0-203.776 0V785.066667a25.6 25.6 0 0 1-51.2 0v-19.456a153.6 153.6 0 0 1 306.176 0V785.066667a25.6 25.6 0 0 1-25.6 24.746666z"
          fill="#d81e06" p-id="8043"></path>
</svg>