<?xml version="1.0" encoding="UTF-8" standalone="no"?>
<!DOCTYPE svg PUBLIC "-//W3C//DTD SVG 1.1//EN" "http://www.w3.org/Graphics/SVG/1.1/DTD/svg11.dtd">
<svg width="100%" height="100%" viewBox="0 0 32 32" version="1.1" xmlns="http://www.w3.org/2000/svg" xmlns:xlink="http://www.w3.org/1999/xlink" xml:space="preserve" xmlns:serif="http://www.serif.com/" style="fill-rule:evenodd;clip-rule:evenodd;stroke-linejoin:round;stroke-miterlimit:2;">
    <g transform="matrix(6.12323e-17,-1,1,6.12323e-17,0.0773236,31.9659)">
        <path d="M1.976,22.121C1.976,21.643 2.16,21.198 2.494,20.866L14.694,8.688C14.737,8.643 14.774,8.608 14.814,8.58L14.904,8.508C15.261,8.153 15.681,7.978 16.125,7.978C16.578,7.978 17.001,8.157 17.316,8.48L29.448,20.742C29.775,21.074 29.956,21.516 29.956,21.989C29.956,22.45 29.781,22.886 29.463,23.216C29.145,23.544 28.701,23.733 28.246,23.733C27.796,23.733 27.371,23.554 27.047,23.229L16.104,12.167L4.872,23.37C4.55,23.69 4.129,23.867 3.685,23.867C3.219,23.867 2.783,23.678 2.456,23.336C2.147,23.01 1.976,22.578 1.976,22.121Z" style="fill:rgb(39,38,54);fill-rule:nonzero;"/>
    </g>
</svg>
