<?xml version="1.0" standalone="no"?><!DOCTYPE svg PUBLIC "-//W3C//DTD SVG 1.1//EN" "http://www.w3.org/Graphics/SVG/1.1/DTD/svg11.dtd"><svg t="1731835085794" class="icon" viewBox="0 0 1024 1024" version="1.1" xmlns="http://www.w3.org/2000/svg" p-id="8320" xmlns:xlink="http://www.w3.org/1999/xlink" width="32" height="32"><path d="M760 568c-106 0-192 86-192 192s86 192 192 192 192-86 192-192-86-192-192-192z m112 216a4 4 0 0 1-4 4h-80v80a4 4 0 0 1-4 4h-48a4 4 0 0 1-4-4v-80h-80a4 4 0 0 1-4-4v-48a4 4 0 0 1 4-4h80v-80a4 4 0 0 1 4-4h48a4 4 0 0 1 4 4v80h80a4 4 0 0 1 4 4zM512 563.5c133.7 0 242-108.3 242-242s-108.3-242-242-242-242 108.3-242 242 108.3 242 242 242z m4.8 299.3a264.4 264.4 0 0 1 0-205.6c2.3-5.4 4.8-10.8 7.4-16a4 4 0 0 0-3.7-5.8H512a311.4 311.4 0 0 1-122.2-24.7 319.8 319.8 0 0 1-57.9-32 4 4 0 0 0-4.2-0.3C208.7 643.8 128 770.2 128 915.5v25a4 4 0 0 0 4 4h429.9a4 4 0 0 0 3-6.7 261.9 261.9 0 0 1-48.1-75z" p-id="8321"></path></svg>