<?xml version="1.0" encoding="UTF-8" standalone="no"?>
<!DOCTYPE svg PUBLIC "-//W3C//DTD SVG 1.1//EN" "http://www.w3.org/Graphics/SVG/1.1/DTD/svg11.dtd">
<svg width="100%" height="100%" viewBox="0 0 32 32" version="1.1" xmlns="http://www.w3.org/2000/svg" xmlns:xlink="http://www.w3.org/1999/xlink" xml:space="preserve" xmlns:serif="http://www.serif.com/" style="fill-rule:evenodd;clip-rule:evenodd;stroke-linejoin:round;stroke-miterlimit:2;">
    <path d="M20.058,16L20.058,6.438C20.058,3.96 18.384,2.125 16,2.125C13.616,2.125 11.942,3.959 11.942,6.438L11.942,16C11.942,18.465 13.616,20.313 16,20.313C18.384,20.313 20.058,18.465 20.058,16ZM9.746,27.853C9.21,27.853 8.741,28.335 8.741,28.87C8.741,29.406 9.21,29.875 9.746,29.875L22.254,29.875C22.79,29.875 23.259,29.406 23.259,28.87C23.259,28.335 22.79,27.853 22.254,27.853L17.005,27.853L17.005,24.919C21.879,24.491 25.107,20.889 25.107,15.987L25.107,12.839C25.107,12.317 24.639,11.862 24.116,11.862C23.594,11.862 23.139,12.317 23.139,12.839L23.139,15.987C23.139,20.071 20.192,23.071 16,23.071C11.808,23.071 8.862,20.071 8.862,15.987L8.862,12.839C8.862,12.317 8.406,11.862 7.884,11.862C7.362,11.862 6.893,12.317 6.893,12.839L6.893,15.987C6.893,20.889 10.121,24.491 14.982,24.919L14.982,27.853L9.746,27.853Z" style="fill-rule:nonzero;"/>
    <g transform="matrix(0.866022,-0.866022,1.78713,1.78713,-7.85016,19.6252)">
        <path d="M27.294,5.54C27.294,5.278 26.846,5.065 26.294,5.065L5.432,5.065C4.88,5.065 4.432,5.278 4.432,5.54L4.432,5.777C4.432,6.039 4.88,6.252 5.432,6.252L26.294,6.252C26.846,6.252 27.294,6.039 27.294,5.777L27.294,5.54Z" style="fill:rgb(215,38,46);"/>
    </g>
</svg>
