<?xml version="1.0" standalone="no"?><!DOCTYPE svg PUBLIC "-//W3C//DTD SVG 1.1//EN" "http://www.w3.org/Graphics/SVG/1.1/DTD/svg11.dtd">
<svg class="icon" width="32px" height="32.00px" viewBox="0 0 1024 1024" version="1.1"
    xmlns="http://www.w3.org/2000/svg">
    <path fill="#000000" d="M641.865143 512V206.006857c0-79.286857-53.577143-138.002286-129.865143-138.002286-76.288 0-129.865143 58.697143-129.865143 138.002286V512c0 78.866286 53.577143 138.002286 129.865143 138.002286 76.288 0 129.865143-59.136 129.865143-138.002286zM311.862857 891.282286c-17.152 0-32.146286 15.433143-32.146286 32.566857 0 17.152 14.994286 32.146286 32.146286 32.146286h400.274286c17.152 0 32.146286-14.994286 32.146286-32.146286 0-17.133714-14.994286-32.548571-32.146286-32.548572h-167.990857v-93.878857c155.995429-13.714286 259.291429-128.987429 259.291428-285.842285v-100.717715c0-16.713143-14.994286-31.286857-31.725714-31.286857-16.713143 0-31.268571 14.573714-31.268571 31.268572v100.736c0 130.706286-94.299429 226.706286-228.443429 226.706285s-228.425143-96-228.425143-226.706285v-100.717715c0-16.713143-14.573714-31.286857-31.286857-31.286857s-31.725714 14.573714-31.725714 31.268572v100.736c0 156.854857 103.296 272.128 258.870857 285.842285v93.860572z" />
</svg>