<?xml version="1.0" standalone="no"?><!DOCTYPE svg PUBLIC "-//W3C//DTD SVG 1.1//EN" "http://www.w3.org/Graphics/SVG/1.1/DTD/svg11.dtd"><svg t="1731684328783" class="icon" viewBox="0 0 1024 1024" version="1.1" xmlns="http://www.w3.org/2000/svg" p-id="11684" xmlns:xlink="http://www.w3.org/1999/xlink" width="32" height="32"><path d="M227.14123 413.647995c-52.14973 0-94.587262 42.439578-94.587262 94.587262 0 52.14973 42.437531 94.587262 94.587262 94.587262 52.147684 0 94.587262-42.437531 94.587262-94.587262C321.728492 456.087573 279.288914 413.647995 227.14123 413.647995z" fill="#272636" p-id="11685"></path><path d="M510.903016 413.647995c-52.14973 0-94.587262 42.439578-94.587262 94.587262 0 52.14973 42.437531 94.587262 94.587262 94.587262 52.147684 0 94.587262-42.437531 94.587262-94.587262C605.490278 456.087573 563.051723 413.647995 510.903016 413.647995z" fill="#272636" p-id="11686"></path><path d="M794.665825 413.647995c-52.14973 0-94.587262 42.439578-94.587262 94.587262 0 52.14973 42.437531 94.587262 94.587262 94.587262 52.147684 0 94.587262-42.437531 94.587262-94.587262C889.253086 456.087573 846.813508 413.647995 794.665825 413.647995z" fill="#272636" p-id="11687"></path></svg>