<?xml version="1.0" encoding="UTF-8" standalone="no"?>
<!DOCTYPE svg PUBLIC "-//W3C//DTD SVG 1.1//EN" "http://www.w3.org/Graphics/SVG/1.1/DTD/svg11.dtd">
<svg width="100%" height="100%" viewBox="0 0 32 32" version="1.1" xmlns="http://www.w3.org/2000/svg" xmlns:xlink="http://www.w3.org/1999/xlink" xml:space="preserve" xmlns:serif="http://www.serif.com/" style="fill-rule:evenodd;clip-rule:evenodd;stroke-linejoin:round;stroke-miterlimit:2;">
    <path d="M3.467,19.733L6.4,19.733C6.933,19.733 7.333,20.133 7.333,20.667L7.333,26.133C7.333,26.667 6.933,27.067 6.4,27.067L3.467,27.067C2.933,27.067 2.533,26.667 2.533,26.133L2.533,20.667C2.4,20.133 2.933,19.733 3.467,19.733Z" style="fill:rgb(68,181,73);"/>
    <path d="M10.8,14.8L13.733,14.8C14.267,14.8 14.667,15.2 14.667,15.733L14.667,26.133C14.667,26.667 14.267,27.067 13.733,27.067L10.8,27.067C10.267,27.067 9.867,26.667 9.867,26.133L9.867,15.733C9.867,15.2 10.267,14.8 10.8,14.8Z" style="fill:rgb(68,181,73);"/>
    <path d="M18.267,9.867L21.2,9.867C21.733,9.867 22.133,10.267 22.133,10.8L22.133,26C22.133,26.533 21.733,26.933 21.2,26.933L18.267,26.933C17.733,26.933 17.333,26.533 17.333,26L17.333,10.8C17.2,10.267 17.733,9.867 18.267,9.867Z" style="fill:rgb(68,181,73);"/>
    <path d="M25.6,4.933L28.533,4.933C29.067,4.933 29.467,5.333 29.467,5.867L29.467,26C29.467,26.533 29.067,26.933 28.533,26.933L25.6,26.933C25.067,26.933 24.667,26.533 24.667,26L24.667,5.867C24.667,5.333 25.067,4.933 25.6,4.933Z" style="fill:rgb(68,181,73);"/>
</svg>
