<?xml version="1.0" standalone="no"?><!DOCTYPE svg PUBLIC "-//W3C//DTD SVG 1.1//EN" "http://www.w3.org/Graphics/SVG/1.1/DTD/svg11.dtd"><svg t="1731684134486" class="icon" viewBox="0 0 1024 1024" version="1.1" xmlns="http://www.w3.org/2000/svg" p-id="5069" xmlns:xlink="http://www.w3.org/1999/xlink" width="32" height="32"><path style="fill:#ffffff" d="M278.2 656c-2.4 1.1-55.3 25-107.6 35.6-19.8 3.9-52.8 10.5-75.2-5.4-15.3-11-24.7-30.6-28.8-60.2-1.2-7.5-10.3-73.3 33.9-138.8 12.1-18 27.3-34.6 45.1-49.4 18.7-15.6 40.7-29.4 65.3-41.1C306.1 349.4 402 328 522 327.2c206.3-1.4 329 77.4 351.5 93.2 105 71.1 84.9 190.2 82.2 203.5-3.3 18.6-8.6 33.2-16.4 44.7-3.7 5.5-8 10.3-12.7 14.2-9.7 8.1-26.7 16.9-52.6 13.1-35.1-5.1-81.2-18.6-126.5-37.1-47.1-19.1-42.4-51-37.9-81.8l0.2-1.2s11.3-52.3 13.3-61.5c1.9-9-3.2-18-11.9-20.3-59.5-16-126.8-24.4-194.4-24.4-66.5 0-133.5 8.2-193.7 23.7-4.3 1.1-8 3.7-10.5 7.5l-0.8 1.3c-2.4 4.3-3 9.4-1.6 14.1 3.5 11.5 8.2 28.6 10.6 45 4.6 31.1 1.4 54.2-9.8 70.7-3.1 4.5-6.7 8.6-10.9 12.1-4 3.3-12 7.7-21.9 12" p-id="5070"></path></svg>