<?xml version="1.0" standalone="no"?><!DOCTYPE svg PUBLIC "-//W3C//DTD SVG 1.1//EN" "http://www.w3.org/Graphics/SVG/1.1/DTD/svg11.dtd"><svg t="1731665552532" class="icon" viewBox="0 0 1024 1024" version="1.1" xmlns="http://www.w3.org/2000/svg" p-id="9366" xmlns:xlink="http://www.w3.org/1999/xlink" width="32" height="32"><path d="M868.2496 594.5856a25.6 25.6 0 0 0-25.6 25.6v149.2992A90.0096 90.0096 0 0 1 752.64 859.392H248.0128a90.0096 90.0096 0 0 1-89.9072-89.9072V314.5728a90.0096 90.0096 0 0 1 89.9072-89.9072H460.8a25.6 25.6 0 0 0 0-51.2H248.0128a141.312 141.312 0 0 0-141.1072 141.1072v454.912a141.2608 141.2608 0 0 0 141.1072 141.1072H752.64a141.2608 141.2608 0 0 0 141.1072-141.1072v-149.2992a25.6 25.6 0 0 0-25.4976-25.6z" fill="#050202" p-id="9367"></path><path d="M915.1488 256.6656l-148.48-152.4224a25.6 25.6 0 0 0-36.6592 35.84L853.0944 266.24A541.8496 541.8496 0 0 0 332.8 669.9008a25.6 25.6 0 0 0 18.3808 31.5392 26.5216 26.5216 0 0 0 6.5536 0.8704 25.6 25.6 0 0 0 24.7296-19.0976A490.7008 490.7008 0 0 1 856.9344 317.44a25.6 25.6 0 0 0 24.1664-17.5616 12.6976 12.6976 0 0 1-3.584 9.472l-136.704 147.3536A25.6 25.6 0 0 0 778.24 491.52l136.192-146.6368a64.1024 64.1024 0 0 0 0.7168-88.2176z" fill="#050202" p-id="9368"></path></svg>