<?xml version="1.0" encoding="UTF-8" standalone="no"?>
<!DOCTYPE svg PUBLIC "-//W3C//DTD SVG 1.1//EN" "http://www.w3.org/Graphics/SVG/1.1/DTD/svg11.dtd">
<svg width="100%" height="100%" viewBox="0 0 32 32" version="1.1" xmlns="http://www.w3.org/2000/svg" xmlns:xlink="http://www.w3.org/1999/xlink" xml:space="preserve" xmlns:serif="http://www.serif.com/" style="fill-rule:evenodd;clip-rule:evenodd;stroke-linejoin:round;stroke-miterlimit:2;">
    <g transform="matrix(1,0,0,1,0,0.214286)">
        <path d="M20.857,25.429C21.171,25.429 21.429,25.687 21.429,26L21.429,26.714C21.429,27.028 21.171,27.286 20.857,27.286L11.143,27.286C10.829,27.286 10.571,27.028 10.571,26.714L10.571,26C10.571,25.687 10.829,25.429 11.143,25.429L20.857,25.429ZM26.571,4.286C27.355,4.286 28,4.931 28,5.714L28,22C28,22.784 27.355,23.429 26.571,23.429L5.429,23.429C4.645,23.429 4,22.784 4,22L4,5.714C4,4.931 4.645,4.286 5.429,4.286L26.571,4.286ZM15.607,9.273C15.599,9.28 15.592,9.287 15.585,9.294L11.172,13.946C11.122,13.999 11.094,14.07 11.094,14.143C11.094,14.3 11.222,14.428 11.379,14.429L14.143,14.429L14.143,18C14.143,18.297 14.375,18.548 14.671,18.57L14.714,18.571L17.286,18.571C17.583,18.572 17.833,18.339 17.856,18.043L17.857,18L17.857,14.429L20.621,14.429C20.778,14.428 20.906,14.3 20.906,14.143C20.906,14.07 20.878,13.999 20.828,13.946L16.415,9.294C16.307,9.18 16.157,9.116 16,9.116C15.854,9.116 15.713,9.172 15.607,9.273Z" style="fill-rule:nonzero;"/>
    </g>
</svg>
