<?xml version="1.0" encoding="UTF-8" standalone="no"?>
<!--
  - Copyright (c) 2022 船山信息 chuanshaninfo.com
  - The project is licensed under Mulan PubL v2.
  - You can use this software according to the terms and conditions of the Mulan
  - PubL v2. You may obtain a copy of Mulan PubL v2 at:
  -          http://license.coscl.org.cn/MulanPubL-2.0
  - THIS SOFTWARE IS PROVIDED ON AN "AS IS" BASIS, WITHOUT WARRANTIES OF ANY KIND,
  - EITHER EXPRESS OR IMPLIED, INCLUDING BUT NOT LIMITED TO NON-INFRINGEMENT,
  - MERCHANTABILITY OR FIT FOR A PARTICULAR PURPOSE.
  - See the Mulan PubL v2 for more details.
  -->

<!DOCTYPE svg PUBLIC "-//W3C//DTD SVG 1.1//EN" "http://www.w3.org/Graphics/SVG/1.1/DTD/svg11.dtd">
<svg width="100%" height="100%" viewBox="0 0 32 32" version="1.1" xmlns="http://www.w3.org/2000/svg"
     xml:space="preserve"
     style="fill-rule:evenodd;clip-rule:evenodd;stroke-linejoin:round;stroke-miterlimit:2;">
    <g>
        <path d="M7.97,10.662L14.486,5.432C14.792,5.186 15.213,5.138 15.567,5.307C15.92,5.477 16.146,5.836 16.146,6.228L16.146,25.698C16.146,26.09 15.921,26.448 15.567,26.618C15.215,26.787 14.794,26.74 14.488,26.495L7.793,21.151L2.731,21.151C2.172,21.151 1.71,20.691 1.71,20.131L1.71,11.682C1.71,11.122 2.172,10.662 2.731,10.662L7.97,10.662ZM24.764,14.558L21.351,11.145C20.953,10.747 20.307,10.747 19.909,11.145C19.511,11.543 19.511,12.19 19.909,12.588L23.321,16L19.909,19.412C19.511,19.81 19.511,20.457 19.909,20.855C20.307,21.253 20.953,21.253 21.351,20.855L24.764,17.442L28.176,20.855C28.574,21.253 29.22,21.253 29.618,20.855C30.017,20.457 30.017,19.81 29.618,19.412L26.206,16L29.618,12.588C30.017,12.19 30.017,11.543 29.618,11.145C29.22,10.747 28.574,10.747 28.176,11.145L24.764,14.558Z"/>
    </g>
</svg>
