<?xml version="1.0" standalone="no"?><!DOCTYPE svg PUBLIC "-//W3C//DTD SVG 1.1//EN" "http://www.w3.org/Graphics/SVG/1.1/DTD/svg11.dtd"><svg t="1730996482024" class="icon" viewBox="0 0 1024 1024" version="1.1" xmlns="http://www.w3.org/2000/svg" p-id="13369" xmlns:xlink="http://www.w3.org/1999/xlink" width="32" height="32"><path d="M63.238788 707.870016c0-15.286148 5.879917-29.522384 16.564257-40.166815L470.192314 278.006711c1.393743-1.425466 2.577708-2.538823 3.846608-3.449565l2.904143-2.304486c11.416004-11.361769 24.848944-16.944927 39.068807-16.944927 14.475689 0 28.010961 5.708002 38.110993 16.056698l388.216789 392.376529c10.467399 10.613732 16.236799 24.786523 16.236799 39.893592 0 14.772448-5.599532 28.726252-15.753799 39.286772-10.18599 10.497075-24.390503 16.539698-38.95215 16.539698-14.382569 0-28.009937-5.723352-38.366819-16.142655L515.335467 389.348566 155.906328 747.834216c-10.30981 10.248412-23.781636 15.909341-37.993313 15.909341-14.889105 0-28.859281-6.05081-39.333844-16.999163C68.68994 736.325092 63.238788 722.494085 63.238788 707.870016z" fill="#272636" p-id="13370"></path></svg>