<?xml version="1.0" encoding="UTF-8" standalone="no"?>
<!DOCTYPE svg PUBLIC "-//W3C//DTD SVG 1.1//EN" "http://www.w3.org/Graphics/SVG/1.1/DTD/svg11.dtd">
<svg width="100%" height="100%" viewBox="0 0 32 32" version="1.1" xmlns="http://www.w3.org/2000/svg" xmlns:xlink="http://www.w3.org/1999/xlink" xml:space="preserve" xmlns:serif="http://www.serif.com/" style="fill-rule:evenodd;clip-rule:evenodd;stroke-linejoin:round;stroke-miterlimit:2;">
    <path d="M6.857,9.143L18.286,9.143C19.81,9.143 20.571,9.905 20.571,11.429L20.571,20.571C20.571,22.095 19.81,22.857 18.286,22.857L6.857,22.857C5.333,22.857 4.571,22.095 4.571,20.571L4.571,11.429C4.571,9.905 5.333,9.143 6.857,9.143ZM22.143,13.371L25.571,10.629C25.774,10.466 26.026,10.378 26.286,10.378C26.912,10.378 27.428,10.893 27.429,11.52L27.429,20.48C27.428,21.107 26.913,21.623 26.286,21.623C26.026,21.623 25.774,21.534 25.571,21.372L22.143,18.629C21.872,18.412 21.714,18.084 21.714,17.737L21.714,14.263C21.714,13.916 21.872,13.588 22.143,13.371Z" style="fill-rule:nonzero;"/>
    <g transform="matrix(0.742304,-0.742304,1.78713,1.78713,-7.56829,17.6627)">
        <path d="M27.294,5.54C27.294,5.278 26.846,5.065 26.294,5.065L5.432,5.065C4.88,5.065 4.432,5.278 4.432,5.54L4.432,5.777C4.432,6.039 4.88,6.252 5.432,6.252L26.294,6.252C26.846,6.252 27.294,6.039 27.294,5.777L27.294,5.54Z" style="fill:rgb(215,38,46);"/>
    </g>
</svg>
