<?xml version="1.0" standalone="no"?><!DOCTYPE svg PUBLIC "-//W3C//DTD SVG 1.1//EN" "http://www.w3.org/Graphics/SVG/1.1/DTD/svg11.dtd">
<svg class="icon" width="32px" height="32.00px" viewBox="0 0 1024 1024" version="1.1"
    xmlns="http://www.w3.org/2000/svg">
    <path fill="#000000" d="M146.285714 292.571429m73.142857 0l365.714286 0q73.142857 0 73.142857 73.142857l0 292.571428q0 73.142857-73.142857 73.142857l-365.714286 0q-73.142857 0-73.142857-73.142857l0-292.571428q0-73.142857 73.142857-73.142857ZM708.571429 427.885714l109.714285-87.771428A36.571429 36.571429 0 0 1 877.714286 368.64V655.36a36.571429 36.571429 0 0 1-59.428572 28.544l-109.714285-87.771429A36.571429 36.571429 0 0 1 694.857143 567.588571V456.411429a36.571429 36.571429 0 0 1 13.714286-28.544z" />
</svg>