<?xml version="1.0" encoding="UTF-8" standalone="no"?>
<!DOCTYPE svg PUBLIC "-//W3C//DTD SVG 1.1//EN" "http://www.w3.org/Graphics/SVG/1.1/DTD/svg11.dtd">
<svg width="100%" height="100%" viewBox="0 0 32 32" version="1.1" xmlns="http://www.w3.org/2000/svg" xmlns:xlink="http://www.w3.org/1999/xlink" xml:space="preserve" xmlns:serif="http://www.serif.com/" style="fill-rule:evenodd;clip-rule:evenodd;stroke-linejoin:round;stroke-miterlimit:2;">
    <g transform="matrix(0.700843,0,0,0.700843,1.07959,4.76135)">
        <path d="M9.832,8.419L19.129,0.957C19.566,0.606 20.167,0.537 20.671,0.779C21.175,1.021 21.498,1.533 21.498,2.093L21.498,29.874C21.497,30.433 21.176,30.944 20.672,31.186C20.169,31.428 19.569,31.36 19.132,31.011L9.579,23.386L2.356,23.386C1.558,23.386 0.9,22.729 0.9,21.93L0.9,9.875C0.9,9.076 1.558,8.419 2.357,8.419L9.832,8.419ZM28.516,24.965C27.94,25.514 27.029,25.499 26.472,24.931C25.914,24.363 25.916,23.452 26.475,22.886C28.35,21.051 29.407,18.533 29.403,15.909C29.407,13.478 28.501,11.132 26.864,9.335C26.507,8.952 26.384,8.404 26.541,7.904C26.699,7.405 27.114,7.027 27.627,6.918C28.139,6.809 28.672,6.984 29.02,7.376C31.144,9.709 32.32,12.754 32.315,15.909C32.319,19.315 30.948,22.582 28.516,24.965ZM35.439,31.279C35.164,31.568 34.783,31.731 34.385,31.731C33.733,31.731 33.157,31.294 32.982,30.667C32.841,30.163 32.982,29.621 33.351,29.249C36.828,25.682 38.773,20.891 38.765,15.909C38.765,10.962 36.882,6.313 33.558,2.784C33.016,2.197 33.048,1.284 33.63,0.737C34.211,0.189 35.125,0.212 35.678,0.788C39.508,4.851 41.678,10.21 41.678,15.909C41.678,21.727 39.414,27.191 35.439,31.279Z" style="fill-rule:nonzero;"/>
    </g>
</svg>
