<?xml version="1.0" encoding="UTF-8"?>
<svg version="1.1" xmlns="http://www.w3.org/2000/svg" width="256" height="256">
<path d="M0 0 C2.11679584 0.03159028 4.23284332 0.04103564 6.34985352 0.046875 C13.92196378 0.09742895 21.30529085 0.25812472 28.65649414 2.28125 C29.39383789 2.46042969 30.13118164 2.63960937 30.89086914 2.82421875 C42.17647219 5.71571643 54.21490528 9.26932509 63.65649414 16.28125 C64.34098633 16.77753906 65.02547852 17.27382813 65.73071289 17.78515625 C67.72749258 19.25782741 69.69450511 20.76269559 71.65649414 22.28125 C72.64649414 23.02375 73.63649414 23.76625 74.65649414 24.53125 C75.64649414 25.3975 75.64649414 25.3975 76.65649414 26.28125 C76.65649414 26.94125 76.65649414 27.60125 76.65649414 28.28125 C77.22754883 28.51972656 77.79860352 28.75820313 78.38696289 29.00390625 C94.03831395 37.81284221 103.26909025 62.14259972 108.64868164 78.48828125 C111.21096592 88.13160696 112.00287077 97.39155083 111.97216797 107.33129883 C111.96902404 109.44861219 111.99249821 111.56450031 112.01782227 113.68164062 C112.13883724 139.35301326 103.3850072 162.03497255 87.65649414 182.28125 C87.21563477 182.86519531 86.77477539 183.44914063 86.32055664 184.05078125 C82.9300435 188.36287682 78.88244828 191.82429253 74.65649414 195.28125 C73.35905273 196.35246094 73.35905273 196.35246094 72.03540039 197.4453125 C48.51299003 216.0206759 18.76407574 223.6746051 -10.84350586 220.46875 C-17.55402911 219.655664 -23.90999253 218.4010695 -30.34350586 216.28125 C-31.3940918 215.95511719 -32.44467773 215.62898437 -33.52709961 215.29296875 C-47.3552177 210.72545188 -62.20629586 203.91886367 -72.34350586 193.28125 C-73.65061523 191.99154297 -73.65061523 191.99154297 -74.98413086 190.67578125 C-75.84522461 189.82371094 -76.70631836 188.97164062 -77.59350586 188.09375 C-78.90061523 186.80404297 -78.90061523 186.80404297 -80.23413086 185.48828125 C-82.34350586 183.28125 -82.34350586 183.28125 -83.34350586 181.28125 C-84.33350586 180.95125 -85.32350586 180.62125 -86.34350586 180.28125 C-89.0677713 177.3166082 -90.44152415 175.14688592 -91.34350586 171.28125 C-91.77663086 170.848125 -92.20975586 170.415 -92.65600586 169.96875 C-96.8623953 165.76236056 -98.83525357 160.34317178 -100.56225586 154.77734375 C-101.10956833 153.02868041 -101.69645391 151.29214156 -102.31225586 149.56640625 C-110.11700027 127.54165403 -110.76382233 103.98798117 -105.34350586 81.28125 C-105.05733398 80.06179687 -104.77116211 78.84234375 -104.47631836 77.5859375 C-103.79930516 74.80695951 -103.09334447 72.04129426 -102.34350586 69.28125 C-101.68350586 69.28125 -101.02350586 69.28125 -100.34350586 69.28125 C-100.39635742 68.54132813 -100.44920898 67.80140625 -100.50366211 67.0390625 C-100.31931551 63.86470393 -99.63150194 62.69766237 -97.78100586 60.15625 C-95.38880898 56.78593524 -93.17148458 53.37954078 -91.03100586 49.84375 C-87.3664874 44.07374068 -83.07284598 39.19696806 -78.34350586 34.28125 C-77.5481543 33.43433594 -76.75280273 32.58742187 -75.93334961 31.71484375 C-55.96545994 10.98747808 -28.73584527 -0.43176291 0 0 Z " fill="#0A74F6" transform="translate(126.343505859375,17.71875)"/>
<path d="M0 0 C1.07958984 -0.02900391 2.15917969 -0.05800781 3.27148438 -0.08789062 C4.30982422 -0.09626953 5.34816406 -0.10464844 6.41796875 -0.11328125 C7.35793701 -0.12786377 8.29790527 -0.14244629 9.26635742 -0.1574707 C12.57093178 0.45249244 13.76638729 1.70161091 15.8125 4.3125 C15.8125 11.08625341 9.8229693 16.64962352 5.625 21.5 C4.65162709 22.63740792 3.67898291 23.77543984 2.70703125 24.9140625 C2.22314941 25.4802832 1.73926758 26.04650391 1.24072266 26.62988281 C-3.37825908 32.071596 -7.94458516 37.57130585 -12.1875 43.3125 C-10.4240625 43.6528125 -10.4240625 43.6528125 -8.625 44 C-4.15685514 45.00160322 0.20516679 46.28763277 4.5625 47.6875 C5.81546875 48.08710937 7.0684375 48.48671875 8.359375 48.8984375 C12.37320348 50.54210934 15.81916908 52.32583817 17.8125 56.3125 C18.11408918 59.60747437 18.21450727 61.62750876 16.51953125 64.515625 C11.04757381 70.42759551 4.99013111 75.24168905 -1.45654297 80.01660156 C-4.30289616 82.14755258 -7.08673693 84.35642818 -9.875 86.5625 C-15.29530648 90.83476077 -20.73700024 95.07883996 -26.1875 99.3125 C-31.61434662 103.52880832 -37.03483478 107.75274255 -42.4375 112 C-43.26749512 112.65125854 -43.26749512 112.65125854 -44.11425781 113.31567383 C-47.11883792 115.67559813 -50.11152828 118.04936978 -53.09375 120.4375 C-53.73666992 120.94966064 -54.37958984 121.46182129 -55.04199219 121.98950195 C-56.28021773 122.9762229 -57.51539175 123.96678871 -58.74707031 124.96166992 C-62.96249198 128.3125 -62.96249198 128.3125 -65.1875 128.3125 C-65.37860352 127.78930176 -65.56970703 127.26610352 -65.76660156 126.72705078 C-66.65534948 124.29663002 -67.54641685 121.8670655 -68.4375 119.4375 C-68.73785156 118.61507812 -69.03820312 117.79265625 -69.34765625 116.9453125 C-70.84372963 112.87089988 -72.37239729 108.81676433 -74 104.79296875 C-76.78487429 97.88604916 -79.38877842 90.91012036 -82.01641846 83.94229126 C-83.2635933 80.63534821 -84.51309309 77.32928528 -85.76248169 74.0231781 C-86.38129472 72.38565269 -87.0000091 70.74808999 -87.61862183 69.11048889 C-90.01021641 62.77957025 -92.40634977 56.45040337 -94.8125 50.125 C-95.25287598 48.9642395 -95.25287598 48.9642395 -95.70214844 47.7800293 C-98.91419167 39.3441993 -102.21412919 31.04205331 -106.234375 22.953125 C-107.34392388 19.87912892 -107.45989078 17.55886219 -107.1875 14.3125 C-104.53313152 9.74698622 -101.1519645 7.74085504 -96.1875 6.3125 C-91.79802709 5.68007416 -87.40235471 5.42893602 -82.9765625 5.1796875 C-81.69502289 5.09751984 -80.41348328 5.01535217 -79.09310913 4.93069458 C-75.69070599 4.71274458 -72.28756259 4.51002406 -68.8840332 4.31054688 C-65.47809418 4.10823771 -62.0730894 3.89135251 -58.66796875 3.67578125 C-49.3569321 3.09010102 -40.04482561 2.52207305 -30.72949219 2.00878906 C-29.94762543 1.96513214 -29.16575867 1.92147522 -28.36019897 1.87649536 C-26.41136325 1.76888007 -24.46228491 1.66568093 -22.51318359 1.56298828 C-20.20482958 1.38912459 -17.90204677 1.12816192 -15.6105957 0.79956055 C-10.40763137 0.0592486 -5.24795516 0.04750714 0 0 Z " fill="#7FA8F9" transform="translate(173.1875,74.6875)"/>
<path d="M0 0 C1.07958984 -0.02900391 2.15917969 -0.05800781 3.27148438 -0.08789062 C4.30982422 -0.09626953 5.34816406 -0.10464844 6.41796875 -0.11328125 C7.35793701 -0.12786377 8.29790527 -0.14244629 9.26635742 -0.1574707 C12.57093178 0.45249244 13.76638729 1.70161091 15.8125 4.3125 C15.8125 11.08588441 9.82331504 16.65014561 5.625 21.5 C4.64109524 22.64772491 3.65803414 23.79617355 2.67578125 24.9453125 C1.9480249 25.79657715 1.9480249 25.79657715 1.20556641 26.66503906 C-0.79922264 29.03593224 -2.74155635 31.4557187 -4.6875 33.875 C-8.81726283 38.95209194 -13.19555285 43.7561893 -17.640625 48.5546875 C-19.64318782 50.72310675 -21.61975193 52.90334256 -23.5625 55.125 C-24.09230469 55.72957031 -24.62210937 56.33414063 -25.16796875 56.95703125 C-26.92051492 59.00110347 -28.64392442 61.06480138 -30.36328125 63.13671875 C-31.53383919 64.52865842 -32.70441227 65.92058538 -33.875 67.3125 C-34.43429199 67.99675049 -34.99358398 68.68100098 -35.56982422 69.38598633 C-36.10752441 70.02173584 -36.64522461 70.65748535 -37.19921875 71.3125 C-37.91791138 72.17875 -37.91791138 72.17875 -38.65112305 73.0625 C-40.1875 74.3125 -40.1875 74.3125 -44.1875 74.3125 C-46.35058594 72.58764648 -46.35058594 72.58764648 -48.671875 70.18359375 C-49.52523437 69.31283203 -50.37859375 68.44207031 -51.2578125 67.54492188 C-52.14210937 66.62259766 -53.02640625 65.70027344 -53.9375 64.75 C-60.80877434 57.58959076 -60.80877434 57.58959076 -68.109375 50.87890625 C-74.15096796 45.71768143 -79.6202454 39.93501979 -85.19677734 34.28271484 C-95.0664466 24.07000867 -95.0664466 24.07000867 -106.1875 15.3125 C-105.32513439 11.43185475 -104.31736 10.39590159 -100.92553711 8.2175293 C-95.15341139 5.49303059 -89.16707113 5.411014 -82.87890625 5.08203125 C-81.59878159 5.00127853 -80.31865692 4.92052582 -78.9997406 4.83732605 C-75.60573528 4.62346686 -72.21086235 4.43041506 -68.81536865 4.24188232 C-65.41585249 4.04949858 -62.01757831 3.83739137 -58.61914062 3.62695312 C-49.32591985 3.05622314 -40.03072411 2.52149957 -30.73388672 2.01318359 C-29.95206528 1.96957199 -29.17024384 1.92596039 -28.36473083 1.88102722 C-26.41510705 1.77283241 -24.46525491 1.6687722 -22.51538086 1.56518555 C-20.20623695 1.38985256 -17.90267314 1.12817663 -15.61035156 0.79931641 C-10.40746169 0.05933335 -5.24784167 0.04750611 0 0 Z " fill="#FCFDFE" transform="translate(173.1875,74.6875)"/>
<path d="M0 0 C6.52465808 -0.51943444 11.5516606 1.32610086 17.61328125 3.61328125 C18.62287399 3.98349899 19.63246674 4.35371674 20.6726532 4.7351532 C23.88994661 5.91704239 27.10133662 7.11406732 30.3125 8.3125 C33.51394597 9.49731751 36.71655132 10.67889562 39.92021179 11.85771179 C41.90856433 12.59041054 43.89549036 13.32699684 45.88069153 14.06819153 C51.12515624 16.01209834 56.37456866 17.77394078 61.7540741 19.30778503 C64.92112231 20.28389835 67.9415027 21.55474631 71 22.82421875 C73.4463756 23.7830196 75.89074346 24.66728737 78.375 25.51953125 C79.14642334 25.78467529 79.91784668 26.04981934 80.71264648 26.32299805 C82.26476508 26.85273411 83.81895017 27.376458 85.37524414 27.89379883 C90.89040528 29.78081056 90.89040528 29.78081056 92 32 C83.52792008 42.62371926 83.52792008 42.62371926 79.5 46.5 C75.63851517 50.21713026 72.35715536 54.36412021 69.015625 58.546875 C67.41908062 60.48995615 65.82047747 62.2716986 64 64 C60.5465583 62.51891127 58.35078674 60.57178301 55.734375 57.89453125 C54.52201172 56.66573242 54.52201172 56.66573242 53.28515625 55.41210938 C52.44855469 54.55423828 51.61195312 53.69636719 50.75 52.8125 C44.12411576 46.00395489 44.12411576 46.00395489 37.109375 39.60546875 C31.06340517 34.42374898 25.57904797 28.6344734 19.99072266 22.97021484 C10.1210534 12.75750867 10.1210534 12.75750867 -1 4 C-0.67 2.68 -0.34 1.36 0 0 Z " fill="#CFDAFA" transform="translate(68,86)"/>
<path d="M0 0 C2.11679584 0.03159028 4.23284332 0.04103564 6.34985352 0.046875 C13.92196378 0.09742895 21.30529085 0.25812472 28.65649414 2.28125 C29.39383789 2.46042969 30.13118164 2.63960937 30.89086914 2.82421875 C42.17647219 5.71571643 54.21490528 9.26932509 63.65649414 16.28125 C64.34098633 16.77753906 65.02547852 17.27382813 65.73071289 17.78515625 C67.72749258 19.25782741 69.69450511 20.76269559 71.65649414 22.28125 C72.64649414 23.02375 73.63649414 23.76625 74.65649414 24.53125 C75.64649414 25.3975 75.64649414 25.3975 76.65649414 26.28125 C76.65649414 26.94125 76.65649414 27.60125 76.65649414 28.28125 C77.22754883 28.51972656 77.79860352 28.75820313 78.38696289 29.00390625 C94.03831395 37.81284221 103.26909025 62.14259972 108.64868164 78.48828125 C111.21096592 88.13160696 112.00287077 97.39155083 111.97216797 107.33129883 C111.96902404 109.44861219 111.99249821 111.56450031 112.01782227 113.68164062 C112.13883724 139.35301326 103.3850072 162.03497255 87.65649414 182.28125 C87.21563477 182.86519531 86.77477539 183.44914063 86.32055664 184.05078125 C82.9300435 188.36287682 78.88244828 191.82429253 74.65649414 195.28125 C73.35905273 196.35246094 73.35905273 196.35246094 72.03540039 197.4453125 C48.51299003 216.0206759 18.76407574 223.6746051 -10.84350586 220.46875 C-17.55402911 219.655664 -23.90999253 218.4010695 -30.34350586 216.28125 C-31.3940918 215.95511719 -32.44467773 215.62898437 -33.52709961 215.29296875 C-47.3552177 210.72545188 -62.20629586 203.91886367 -72.34350586 193.28125 C-73.65061523 191.99154297 -73.65061523 191.99154297 -74.98413086 190.67578125 C-75.84522461 189.82371094 -76.70631836 188.97164062 -77.59350586 188.09375 C-78.90061523 186.80404297 -78.90061523 186.80404297 -80.23413086 185.48828125 C-82.34350586 183.28125 -82.34350586 183.28125 -83.34350586 181.28125 C-84.33350586 180.95125 -85.32350586 180.62125 -86.34350586 180.28125 C-89.0677713 177.3166082 -90.44152415 175.14688592 -91.34350586 171.28125 C-91.77663086 170.848125 -92.20975586 170.415 -92.65600586 169.96875 C-96.8623953 165.76236056 -98.83525357 160.34317178 -100.56225586 154.77734375 C-101.10956833 153.02868041 -101.69645391 151.29214156 -102.31225586 149.56640625 C-110.11700027 127.54165403 -110.76382233 103.98798117 -105.34350586 81.28125 C-105.05733398 80.06179687 -104.77116211 78.84234375 -104.47631836 77.5859375 C-103.79930516 74.80695951 -103.09334447 72.04129426 -102.34350586 69.28125 C-101.68350586 69.28125 -101.02350586 69.28125 -100.34350586 69.28125 C-100.39635742 68.54132813 -100.44920898 67.80140625 -100.50366211 67.0390625 C-100.31931551 63.86470393 -99.63150194 62.69766237 -97.78100586 60.15625 C-95.38880898 56.78593524 -93.17148458 53.37954078 -91.03100586 49.84375 C-87.3664874 44.07374068 -83.07284598 39.19696806 -78.34350586 34.28125 C-77.5481543 33.43433594 -76.75280273 32.58742187 -75.93334961 31.71484375 C-55.96545994 10.98747808 -28.73584527 -0.43176291 0 0 Z M-80.40600586 39.46875 C-100.47970512 62.82061386 -108.20590621 91.90754789 -106.34350586 122.28125 C-104.56871652 140.16272965 -97.98970412 157.77876215 -87.34350586 172.28125 C-86.47338867 173.48201172 -86.47338867 173.48201172 -85.58569336 174.70703125 C-69.72569187 195.51084073 -48.82901223 209.90231543 -23.34350586 216.28125 C-22.30347412 216.54615234 -22.30347412 216.54615234 -21.24243164 216.81640625 C-13.7950644 218.52809336 -6.46193754 218.66731072 1.15649414 218.65625 C1.81812561 218.65537384 2.47975708 218.65449768 3.16143799 218.65359497 C20.64335431 218.57737565 35.09198846 215.12811937 50.65649414 207.28125 C51.25945312 206.98234863 51.86241211 206.68344727 52.48364258 206.37548828 C77.407724 193.80466816 95.04149643 171.51460997 104.64868164 145.60546875 C105.41913952 143.17892359 106.04368735 140.75243828 106.65649414 138.28125 C106.90826416 137.27827881 107.16003418 136.27530762 107.41943359 135.24194336 C109.41461038 126.70540606 110.16729894 118.66118938 110.09399414 109.90625 C110.087146 108.63837646 110.08029785 107.37050293 110.07324219 106.06420898 C109.90961831 96.49987246 108.80121405 88.31197527 105.65649414 79.28125 C105.30586914 78.12496094 104.95524414 76.96867187 104.59399414 75.77734375 C100.07436526 61.73196928 92.62879692 49.13393264 82.65649414 38.28125 C82.20935059 37.79172852 81.76220703 37.30220703 81.30151367 36.79785156 C63.18422583 17.18167379 37.76665534 3.76818329 10.85375977 2.10839844 C-25.22313417 0.7081537 -55.48694195 12.87858515 -80.40600586 39.46875 Z " fill="#F3F8FE" transform="translate(126.343505859375,17.71875)"/>
<path d="M0 0 C1.93359375 -0.03867188 1.93359375 -0.03867188 3.90625 -0.078125 C7.76662041 0.2743436 10.18007488 1.30313033 13.5 3.25 C12.84 3.91 12.18 4.57 11.5 5.25 C10.84 4.59 10.18 3.93 9.5 3.25 C7.09212086 2.95539193 7.09212086 2.95539193 4.30078125 3.01953125 C3.25599609 3.02146484 2.21121094 3.02339844 1.13476562 3.02539062 C0.03841797 3.03763672 -1.05792969 3.04988281 -2.1875 3.0625 C-3.26451172 3.06314453 -4.34152344 3.06378906 -5.45117188 3.06445312 C-10.9075855 3.09456209 -16.10248434 3.3847494 -21.5 4.25 C-23.3115721 4.3116181 -25.12505032 4.33732808 -26.9375 4.3125 C-28.23494141 4.29896484 -28.23494141 4.29896484 -29.55859375 4.28515625 C-30.19925781 4.27355469 -30.83992187 4.26195313 -31.5 4.25 C-31.5 3.92 -31.5 3.59 -31.5 3.25 C-28.53 3.25 -25.56 3.25 -22.5 3.25 C-22.5 2.59 -22.5 1.93 -22.5 1.25 C-15.00633713 0.5943045 -7.5212279 0.11971992 0 0 Z " fill="#32ABFC" transform="translate(175.5,72.75)"/>
<path d="M0 0 C1.56621094 0.41572266 1.56621094 0.41572266 3.1640625 0.83984375 C15.44281662 3.92012959 27.36599393 4.79364338 40 5 C40 5.33 40 5.66 40 6 C13.15656717 8.24400937 13.15656717 8.24400937 1 3 C0.67 2.01 0.34 1.02 0 0 Z " fill="#E2EBFB" transform="translate(95,231)"/>
<path d="M0 0 C0.66 0.33 1.32 0.66 2 1 C-3.61 6.61 -9.22 12.22 -15 18 C-15.66 17.67 -16.32 17.34 -17 17 C-15.29657414 15.09955869 -13.58752883 13.20471126 -11.875 11.3125 C-11.400625 10.78205078 -10.92625 10.25160156 -10.4375 9.70507812 C-7.18500869 6.12294242 -3.77952775 3.02250068 0 0 Z " fill="#0B68FD" transform="translate(60,44)"/>
<path d="M0 0 C-0.33 0.99 -0.66 1.98 -1 3 C-3.875 3.125 -3.875 3.125 -7 3 C-7.66 2.34 -8.32 1.68 -9 1 C-5.92677456 0.08941469 -3.19902639 -0.08886184 0 0 Z " fill="#E6EDFC" transform="translate(152,234)"/>
</svg>
