<?xml version="1.0" encoding="UTF-8"?>
<svg version="1.1" xmlns="http://www.w3.org/2000/svg" width="48" height="48">
<path d="M0 0 C5.2314099 3.10154883 9.13467617 7.39711201 11.45703125 13.046875 C12.53147026 21.2498036 12.14150114 28.19002849 7.26953125 35.046875 C3.29576519 39.4317203 -0.07627494 40.80697915 -5.95703125 41.37890625 C-13.152538 41.58341013 -18.82059878 41.47495503 -24.37109375 36.36328125 C-24.8403125 35.78449219 -25.30953125 35.20570312 -25.79296875 34.609375 C-26.51226562 33.74505859 -26.51226562 33.74505859 -27.24609375 32.86328125 C-31.47064278 26.9463677 -31.1343485 21.14343197 -30.54296875 14.046875 C-29.16796875 10.421875 -29.16796875 10.421875 -27.54296875 8.046875 C-26.88296875 7.056875 -26.22296875 6.066875 -25.54296875 5.046875 C-24.88296875 5.046875 -24.22296875 5.046875 -23.54296875 5.046875 C-23.54296875 4.386875 -23.54296875 3.726875 -23.54296875 3.046875 C-16.79036129 -2.09796878 -8.00728452 -3.0011942 0 0 Z " fill="#0A70F5" transform="translate(33.54296875,3.953125)"/>
<path d="M0 0 C-0.76403415 3.47153381 -2.08186911 5.99770818 -4 9 C-1.525 9.495 -1.525 9.495 1 10 C-0.54228144 14.40064304 -4.01426977 16.59595898 -7.625 19.25 C-8.23601563 19.70890625 -8.84703125 20.1678125 -9.4765625 20.640625 C-10.9790792 21.76751252 -12.48884409 22.88472437 -14 24 C-16.7984263 21.2015737 -17.76993087 17.82803262 -19.125 14.1875 C-19.40214844 13.47529297 -19.67929687 12.76308594 -19.96484375 12.02929688 C-21.39231971 8.22855423 -22.37309913 5.12842294 -22 1 C-14.64206267 0.08839714 -7.41017023 -0.11459026 0 0 Z " fill="#81AAF9" transform="translate(35,14)"/>
<path d="M0 0 C5.2314099 3.10154883 9.13467617 7.39711201 11.45703125 13.046875 C12.53147026 21.2498036 12.14150114 28.19002849 7.26953125 35.046875 C3.29576519 39.4317203 -0.07627494 40.80697915 -5.95703125 41.37890625 C-13.152538 41.58341013 -18.82059878 41.47495503 -24.37109375 36.36328125 C-24.8403125 35.78449219 -25.30953125 35.20570312 -25.79296875 34.609375 C-26.51226562 33.74505859 -26.51226562 33.74505859 -27.24609375 32.86328125 C-31.47064278 26.9463677 -31.1343485 21.14343197 -30.54296875 14.046875 C-29.16796875 10.421875 -29.16796875 10.421875 -27.54296875 8.046875 C-26.88296875 7.056875 -26.22296875 6.066875 -25.54296875 5.046875 C-24.88296875 5.046875 -24.22296875 5.046875 -23.54296875 5.046875 C-23.54296875 4.386875 -23.54296875 3.726875 -23.54296875 3.046875 C-16.79036129 -2.09796878 -8.00728452 -3.0011942 0 0 Z M-18.54296875 2.046875 C-18.54296875 2.706875 -18.54296875 3.366875 -18.54296875 4.046875 C-19.53296875 4.046875 -20.52296875 4.046875 -21.54296875 4.046875 C-25.64972708 7.64028854 -29.14359602 10.95417152 -29.86328125 16.52734375 C-30.12638189 22.88560931 -29.37898737 27.86942655 -25.54296875 33.046875 C-22.04565613 36.71250748 -18.12237441 39.70242021 -13.02734375 40.3828125 C-5.85245979 40.48531084 -0.39224389 39.63102149 4.98828125 34.62109375 C9.85007751 29.15157296 10.97413633 23.95344403 10.83984375 16.8359375 C10.05924701 11.14873265 7.00346125 7.48015158 2.89453125 3.671875 C-1.47982871 0.75563503 -4.26461677 -0.22959762 -9.60546875 -0.203125 C-11.16974609 -0.21085938 -11.16974609 -0.21085938 -12.765625 -0.21875 C-15.7542586 -0.15385077 -15.7542586 -0.15385077 -18.54296875 2.046875 Z " fill="#E0ECFD" transform="translate(33.54296875,3.953125)"/>
<path d="M0 0 C-0.53176995 4.13813705 -2.77932166 6.27082318 -5.5625 9.25 C-6.38878906 10.14203125 -7.21507812 11.0340625 -8.06640625 11.953125 C-8.70449219 12.62859375 -9.34257812 13.3040625 -10 14 C-10.44730469 13.61328125 -10.89460938 13.2265625 -11.35546875 12.828125 C-11.96003906 12.30734375 -12.56460937 11.7865625 -13.1875 11.25 C-13.82171875 10.70214844 -14.4559375 10.15429688 -15.109375 9.58984375 C-16.67331099 8.27471576 -18.29861024 7.03294982 -19.9375 5.8125 C-20.618125 5.214375 -21.29875 4.61625 -22 4 C-22 3.01 -22 2.02 -22 1 C-14.64206267 0.08839714 -7.41017023 -0.11459026 0 0 Z " fill="#F0F7FE" transform="translate(35,14)"/>
<path d="M0 0 C5.08522234 3.01487853 9.44977263 7.39005525 11.45703125 13.046875 C11.16754047 14.39040914 10.83858562 15.72653218 10.45703125 17.046875 C10.15410156 16.37140625 9.85117187 15.6959375 9.5390625 15 C6.40366731 8.32402009 3.44930087 3.9541871 -3.54296875 1.046875 C-6.48812889 0.69389166 -6.48812889 0.69389166 -9.60546875 0.734375 C-10.64832031 0.71761719 -11.69117188 0.70085938 -12.765625 0.68359375 C-15.92654004 1.09704677 -16.50107272 1.75049935 -18.54296875 4.046875 C-19.53296875 4.046875 -20.52296875 4.046875 -21.54296875 4.046875 C-21.79046875 4.624375 -22.03796875 5.201875 -22.29296875 5.796875 C-23.71822298 8.36233262 -25.4090914 10.04636498 -27.54296875 12.046875 C-28.20296875 12.706875 -28.86296875 13.366875 -29.54296875 14.046875 C-29.01687625 10.25900903 -28.16192964 7.87535276 -25.54296875 5.046875 C-24.88296875 5.046875 -24.22296875 5.046875 -23.54296875 5.046875 C-23.54296875 4.386875 -23.54296875 3.726875 -23.54296875 3.046875 C-16.79036129 -2.09796878 -8.00728452 -3.0011942 0 0 Z " fill="#E9F6FE" transform="translate(33.54296875,3.953125)"/>
<path d="M0 0 C6.18160604 0.53753096 11.326858 2.54582388 17 5 C15.35 6.98 13.7 8.96 12 11 C7.81576108 7.49102731 3.80411834 3.91939465 0 0 Z " fill="#D1DBFA" transform="translate(13,17)"/>
<path d="M0 0 C0.66 0.66 1.32 1.32 2 2 C1.6442194 5.37991574 0.64284201 8.04288438 -1 11 C-1.99 11 -2.98 11 -4 11 C-3.29931534 7.21630285 -2.16594448 5.60990747 0 2 C-5.94 2.33 -11.88 2.66 -18 3 C-18 2.34 -18 1.68 -18 1 C-16.12528812 0.83012319 -14.25021305 0.66425224 -12.375 0.5 C-11.33085937 0.4071875 -10.28671875 0.314375 -9.2109375 0.21875 C-6.10755066 0.00732705 -3.10690629 -0.17804621 0 0 Z " fill="#1694FC" transform="translate(35,12)"/>
<path d="M0 0 C0.33 0.66 0.66 1.32 1 2 C0.01 2 -0.98 2 -2 2 C-2.2475 2.5775 -2.495 3.155 -2.75 3.75 C-4.17525423 6.31545762 -5.86612265 7.99948998 -8 10 C-8.66 10.66 -9.32 11.32 -10 12 C-9.4739075 8.21213403 -8.61896089 5.82847776 -6 3 C-5.34 3 -4.68 3 -4 3 C-4 2.34 -4 1.68 -4 1 C-2.68 0.67 -1.36 0.34 0 0 Z " fill="#8FBBFE" transform="translate(14,6)"/>
</svg>
