<?xml version="1.0" encoding="UTF-8"?>
<svg version="1.1" xmlns="http://www.w3.org/2000/svg" width="32" height="32">
<path d="M0 0 C10.56 0 21.12 0 32 0 C32 10.56 32 21.12 32 32 C21.44 32 10.88 32 0 32 C0 21.44 0 10.88 0 0 Z " fill="#21A1FC" transform="translate(0,0)"/>
<path d="M0 0 C10.56 0 21.12 0 32 0 C32 10.56 32 21.12 32 32 C21.44 32 10.88 32 0 32 C0 21.44 0 10.88 0 0 Z M4.1875 8.0625 C2.07315022 13.29273366 2.07315022 18.70726634 4.1875 23.9375 C6.96135304 27.09395345 9.0792811 28.73662383 13.3359375 29.3203125 C19.04377462 29.57742228 22.59990469 28.96008578 27 25 C29.75573924 20.55861957 29.52682022 16.07064462 29 11 C27.71866686 7.83038644 26.4799767 6.42179771 23.9375 4.1875 C16.63868291 1.23691437 9.45659719 2.06663078 4.1875 8.0625 Z " fill="#F4F8FE" transform="translate(0,0)"/>
<path d="M0 0 C0.66 0 1.32 0 2 0 C2.65134925 1.56020867 3.29582964 3.12328579 3.9375 4.6875 C4.47697266 5.99267578 4.47697266 5.99267578 5.02734375 7.32421875 C5.9570312 9.88179265 6.54162625 12.3221323 7 15 C8.5159375 13.7934375 8.5159375 13.7934375 10.0625 12.5625 C13.75545309 9.89452981 16.49377556 9.27589129 21 9 C21.8125 10.6875 21.8125 10.6875 22 13 C16.99521702 18.81636941 16.99521702 18.81636941 12.79296875 19.203125 C3.82846142 19.36440549 3.82846142 19.36440549 0 16 C-3.52139964 11.75003492 -3.26853954 8.28127753 -3 3 C-2.34 3 -1.68 3 -1 3 C-0.67 2.01 -0.34 1.02 0 0 Z " fill="#0554EB" transform="translate(6,10)"/>
<path d="M0 0 C4.62 0 9.24 0 14 0 C13.34 1.65 12.68 3.3 12 5 C12.99 5.33 13.98 5.66 15 6 C15 6.66 15 7.32 15 8 C13.1015625 9.7265625 13.1015625 9.7265625 10.625 11.625 C9.81289063 12.25664062 9.00078125 12.88828125 8.1640625 13.5390625 C6 15 6 15 4 15 C3.32779649 13.06441401 2.66241923 11.12645628 2 9.1875 C1.62875 8.10855469 1.2575 7.02960937 0.875 5.91796875 C0 3 0 3 0 0 Z " fill="#80A9F9" transform="translate(9,10)"/>
<path d="M0 0 C-0.20477354 3.68592365 -0.80636053 4.82052927 -3.5625 7.375 C-8.05407905 9.49829191 -10.20843479 8.99135832 -15 8 C-13.36587557 6.29159719 -12.13093906 5.06546953 -10 4 C-9.690625 3.34 -9.38125 2.68 -9.0625 2 C-6.94448973 -1.98684287 -3.76850831 -0.91666418 0 0 Z " fill="#0760F6" transform="translate(28,20)"/>
<path d="M0 0 C4.62 0 9.24 0 14 0 C12.04783565 3.90432869 10.12613393 6.03839944 7 9 C5.82460004 8.07347299 4.65989423 7.13336613 3.5 6.1875 C2.52546875 5.40439453 2.52546875 5.40439453 1.53125 4.60546875 C0 3 0 3 0 0 Z " fill="#F8FAFE" transform="translate(9,10)"/>
<path d="M0 0 C0.33 0.66 0.66 1.32 1 2 C1.66 2 2.32 2 3 2 C3.33 1.34 3.66 0.68 4 0 C5 1 5 1 5.09765625 3.28515625 C5.08605469 4.20167969 5.07445312 5.11820313 5.0625 6.0625 C5.05347656 6.98160156 5.04445313 7.90070312 5.03515625 8.84765625 C5.02355469 9.55792969 5.01195312 10.26820312 5 11 C-0.75 10.125 -0.75 10.125 -3 9 C-2.01 8.67 -1.02 8.34 0 8 C-0.99 7.01 -1.98 6.02 -3 5 C-1.125 1.125 -1.125 1.125 0 0 Z " fill="#0A7AFD" transform="translate(24,10)"/>
<path d="M0 0 C0.5775 0.2475 1.155 0.495 1.75 0.75 C0.265 2.235 0.265 2.235 -1.25 3.75 C1.72 3.75 4.69 3.75 7.75 3.75 C7.75 4.08 7.75 4.41 7.75 4.75 C4.45 5.08 1.15 5.41 -2.25 5.75 C-1.92 7.4 -1.59 9.05 -1.25 10.75 C-1.91 10.42 -2.57 10.09 -3.25 9.75 C-3.25 8.43 -3.25 7.11 -3.25 5.75 C-3.70375 6.245 -4.1575 6.74 -4.625 7.25 C-6.25 8.75 -6.25 8.75 -8.25 8.75 C-6.88064896 4.64194688 -5.04707216 -0.5607858 0 0 Z " fill="#0C6DFD" transform="translate(11.25,4.25)"/>
<path d="M0 0 C7.75 0.875 7.75 0.875 10 2 C9.34 3.65 8.68 5.3 8 7 C6.66382648 6.02471263 5.3311249 5.04466681 4 4.0625 C3.2575 3.51722656 2.515 2.97195312 1.75 2.41015625 C1.1725 1.94480469 0.595 1.47945312 0 1 C0 0.67 0 0.34 0 0 Z " fill="#CED9FA" transform="translate(9,12)"/>
<path d="M0 0 C1.69141656 0.08963062 3.37959602 0.24577676 5.0625 0.4375 C6.44115234 0.59025391 6.44115234 0.59025391 7.84765625 0.74609375 C8.55792969 0.82988281 9.26820312 0.91367188 10 1 C10 1.33 10 1.66 10 2 C6.7 2.33 3.4 2.66 0 3 C0.33 4.65 0.66 6.3 1 8 C0.34 7.67 -0.32 7.34 -1 7 C-1.04254356 5.00045254 -1.04080783 2.99958364 -1 1 C-0.67 0.67 -0.34 0.34 0 0 Z " fill="#1682FD" transform="translate(9,7)"/>
<path d="M0 0 C0.33 0.66 0.66 1.32 1 2 C1.66 2 2.32 2 3 2 C3.33 1.34 3.66 0.68 4 0 C4.33 0.99 4.66 1.98 5 3 C3.25 4.125 3.25 4.125 1 5 C-1.25 4.125 -1.25 4.125 -3 3 C-2.01 2.01 -1.02 1.02 0 0 Z " fill="#0F8EFD" transform="translate(24,10)"/>
</svg>
