<?xml version="1.0" encoding="UTF-8"?>
<svg version="1.1" xmlns="http://www.w3.org/2000/svg" width="64" height="64">
<path d="M0 0 C21.12 0 42.24 0 64 0 C64 21.12 64 42.24 64 64 C42.88 64 21.76 64 0 64 C0 42.88 0 21.76 0 0 Z " fill="#0C73F6" transform="translate(0,0)"/>
<path d="M0 0 C21.12 0 42.24 0 64 0 C64 21.12 64 42.24 64 64 C42.88 64 21.76 64 0 64 C0 42.88 0 21.76 0 0 Z M19 8 C18.39414062 8.31710938 17.78828125 8.63421875 17.1640625 8.9609375 C10.96734677 12.77638256 7.2663981 19.2008057 5 26 C3.85919155 35.2275519 5.61881222 42.389463 11 50 C16.66878811 55.69862384 22.52783342 59.26605919 30.6875 59.375 C38.33167649 59.23396353 43.98806112 56.98901624 50.3125 52.8125 C57.23552944 45.56746919 59.36868677 38.13351147 59.28125 28.296875 C58.89246656 23.73946908 57.57369298 20.71945664 55 17 C54.34 15.96875 53.68 14.9375 53 13.875 C48.48742319 8.8364173 41.65467742 5.59618743 35.0546875 4.51953125 C29.20929937 4.34856586 24.18250702 5.28745377 19 8 Z " fill="#FBFDFE" transform="translate(0,0)"/>
<path d="M0 0 C-0.71160767 3.14364834 -1.61996552 5.15995402 -3.5625 7.75 C-4.01753906 8.36359375 -4.47257812 8.9771875 -4.94140625 9.609375 C-5.29074219 10.06828125 -5.64007813 10.5271875 -6 11 C-4.02 11.66 -2.04 12.32 0 13 C-0.0078125 15.109375 -0.0078125 15.109375 -1 18 C-3.40472788 20.38482879 -6.1176421 22.29347475 -8.875 24.25 C-9.60847656 24.79140625 -10.34195313 25.3328125 -11.09765625 25.890625 C-16.51663306 29.83887769 -16.51663306 29.83887769 -20 31 C-24.85431682 22.0105244 -29.04087896 12.24341272 -30 2 C-25.04095069 -2.95904931 -6.87595785 -0.06807879 0 0 Z " fill="#F4F9FE" transform="translate(47,19)"/>
<path d="M0 0 C5.03163018 4.29785078 10.02718443 8.63425542 15 13 C18.76488042 11.27845212 21.15063897 9.00765886 24 6 C25.98 6.99 27.96 7.98 30 9 C29.9921875 11.109375 29.9921875 11.109375 29 14 C26.59527212 16.38482879 23.8823579 18.29347475 21.125 20.25 C20.39152344 20.79140625 19.65804687 21.3328125 18.90234375 21.890625 C13.48336694 25.83887769 13.48336694 25.83887769 10 27 C5.46628303 18.60422783 1.61798475 9.44120774 0 0 Z " fill="#80A9F9" transform="translate(17,23)"/>
<path d="M0 0 C3.46156377 1.11522438 6.91862018 2.24382115 10.375 3.375 C11.35984375 3.69210938 12.3446875 4.00921875 13.359375 4.3359375 C14.30039062 4.6453125 15.24140625 4.9546875 16.2109375 5.2734375 C17.08024902 5.55622559 17.94956055 5.83901367 18.84521484 6.13037109 C21 7 21 7 23 9 C21.02 11.31 19.04 13.62 17 16 C12.97552686 13.98776343 10.07104775 11.57734454 6.8125 8.5625 C6.26658203 8.07201172 5.72066406 7.58152344 5.15820312 7.07617188 C2.62938635 4.75417283 1.10288398 3.30865193 0 0 Z " fill="#CED9FA" transform="translate(17,21)"/>
</svg>
