<?xml version="1.0" encoding="UTF-8"?>
<svg version="1.1" xmlns="http://www.w3.org/2000/svg" width="128" height="128">
<path d="M0 0 C42.24 0 84.48 0 128 0 C128 42.24 128 84.48 128 128 C85.76 128 43.52 128 0 128 C0 85.76 0 43.52 0 0 Z " fill="#0B74F6" transform="translate(0,0)"/>
<path d="M0 0 C42.24 0 84.48 0 128 0 C128 42.24 128 84.48 128 128 C85.76 128 43.52 128 0 128 C0 85.76 0 43.52 0 0 Z M23 28 C12.79514165 41.37529978 8.15205975 55.12267444 10 72 C12.6212187 86.49033256 19.89309753 99.0366813 31.671875 108.04296875 C45.40928958 117.14303576 58.73509669 119.64617283 75 118 C84.32111407 116.04268539 92.72303952 111.01313736 100 105 C100.63292969 104.47921875 101.26585938 103.9584375 101.91796875 103.421875 C111.62476086 94.59362257 117.53274278 81.3618851 118.37890625 68.375 C118.98879821 52.04615939 114.42199145 39.47175163 103.9375 26.875 C96.72500394 19.15166948 87.32009543 13.4389288 77 11 C75.87271484 10.72736328 75.87271484 10.72736328 74.72265625 10.44921875 C55.25906415 7.23786568 36.30379929 13.1592997 23 28 Z " fill="#FCFDFE" transform="translate(0,0)"/>
<path d="M0 0 C0.66 0.66 1.32 1.32 2 2 C1.92754115 7.11740653 -1.26346996 10.0881851 -4.5 13.6875 C-8.12504917 17.58007982 -8.12504917 17.58007982 -11 22 C-10.24074219 22.19335938 -9.48148438 22.38671875 -8.69921875 22.5859375 C-7.70535156 22.84632812 -6.71148437 23.10671875 -5.6875 23.375 C-4.70136719 23.63023438 -3.71523437 23.88546875 -2.69921875 24.1484375 C0 25 0 25 3 27 C2.91071136 32.91537257 2.91071136 32.91537257 0.62695312 35.63525391 C-1.27229389 37.29053687 -3.22666009 38.81137956 -5.25 40.3125 C-5.97002197 40.8708252 -6.69004395 41.42915039 -7.43188477 42.00439453 C-9.60853434 43.68701695 -11.80313052 45.34391389 -14 47 C-15.21399625 47.93652937 -16.42636704 48.87517147 -17.63671875 49.81640625 C-19.77568541 51.47770038 -21.92293306 53.12510577 -24.078125 54.765625 C-27.52360371 57.40040284 -30.91465168 60.10010914 -34.29296875 62.8203125 C-36 64 -36 64 -38 64 C-41.83092202 56.30284792 -44.68490455 48.39358916 -47.47827148 40.27636719 C-49.85662729 33.36957509 -52.38809052 26.58252557 -55.38671875 19.91796875 C-55.85722656 18.85191406 -56.32773437 17.78585938 -56.8125 16.6875 C-57.25207031 15.72199219 -57.69164062 14.75648437 -58.14453125 13.76171875 C-59.1220054 10.60612868 -59.17096995 9.07959939 -58 6 C-54.32617723 2.02787016 -49.65837243 2.33779005 -44.58984375 2.05078125 C-43.66716202 1.98843796 -42.74448029 1.92609467 -41.7938385 1.86186218 C-39.83993663 1.73224778 -37.88559664 1.60909931 -35.9309082 1.49194336 C-32.97180087 1.31455621 -30.01435017 1.11914328 -27.05664062 0.91992188 C-4.35038965 -0.57390094 -4.35038965 -0.57390094 0 0 Z " fill="#7FA8F9" transform="translate(92,37)"/>
<path d="M0 0 C0.90379898 -0.01759872 1.80759796 -0.03519745 2.73878479 -0.05332947 C4.97436523 0.16381836 4.97436523 0.16381836 6.97436523 2.16381836 C6.87803679 7.14662582 3.83626934 10.09591731 0.66186523 13.60131836 C-0.42840581 14.83531597 -1.51823629 16.06970293 -2.60766602 17.30444336 C-3.45192139 18.25287109 -3.45192139 18.25287109 -4.31323242 19.22045898 C-6.01786787 21.15500392 -7.68867929 23.11375693 -9.34985352 25.08569336 C-10.14879028 26.03230835 -10.14879028 26.03230835 -10.96386719 26.99804688 C-11.98317428 28.20760763 -13.000365 29.41895596 -14.01513672 30.63232422 C-16.47533714 33.52919643 -18.85598824 36.04822882 -22.02563477 38.16381836 C-22.96922852 37.20282227 -22.96922852 37.20282227 -23.93188477 36.22241211 C-29.72073489 30.36154032 -29.72073489 30.36154032 -35.83813477 24.85131836 C-41.91361431 19.66523891 -47.42020723 13.84614963 -53.02563477 8.16381836 C-51.27563477 4.28881836 -51.27563477 4.28881836 -49.02563477 3.16381836 C-47.69729945 2.99092464 -46.36211867 2.86887168 -45.02587891 2.77490234 C-43.78802391 2.68492226 -43.78802391 2.68492226 -42.52516174 2.59312439 C-41.18154823 2.50243431 -41.18154823 2.50243431 -39.81079102 2.40991211 C-38.88527939 2.34473892 -37.95976776 2.27956573 -37.00621033 2.2124176 C-35.04009242 2.07506834 -33.07382314 1.93987173 -31.10742188 1.80664062 C-28.13113845 1.60424276 -25.15554745 1.39335748 -22.17993164 1.18139648 C-20.26525381 1.04871868 -18.35054117 0.91654209 -16.43579102 0.78491211 C-15.11950462 0.69118568 -15.11950462 0.69118568 -13.77662659 0.5955658 C-9.18633588 0.28993634 -4.59991447 0.08499562 0 0 Z " fill="#F8FBFE" transform="translate(87.025634765625,36.836181640625)"/>
<path d="M0 0 C2 1 2 1 5 3 C7.2984651 3.81172559 9.613747 4.57628517 11.9375 5.3125 C17.79890725 7.20621804 23.4613782 9.36521129 29.125 11.796875 C33.6863555 13.70570312 38.3374661 15.35709928 43 17 C42.41503796 20.18849773 41.5016539 21.8929959 39.27734375 24.234375 C38.73916016 24.80800781 38.20097656 25.38164063 37.64648438 25.97265625 C37.08251953 26.55917969 36.51855469 27.14570312 35.9375 27.75 C35.36966797 28.35199219 34.80183594 28.95398438 34.21679688 29.57421875 C32.81768425 31.05563212 31.40969053 32.5286488 30 34 C25.11627955 29.86231644 20.3594497 25.62480466 15.6875 21.25 C15.04031006 20.64526855 14.39312012 20.04053711 13.72631836 19.41748047 C8.36872919 14.39013089 3.14072677 9.24958922 -2 4 C-1.34 2.68 -0.68 1.36 0 0 Z " fill="#CFDAFA" transform="translate(36,41)"/>
</svg>
