<?xml version="1.0" encoding="UTF-8"?>
<svg version="1.1" xmlns="http://www.w3.org/2000/svg" width="256" height="256">
<path d="M0 0 C84.48 0 168.96 0 256 0 C256 84.48 256 168.96 256 256 C171.52 256 87.04 256 0 256 C0 171.52 0 87.04 0 0 Z " fill="#0A74F6" transform="translate(0,0)"/>
<path d="M0 0 C84.48 0 168.96 0 256 0 C256 84.48 256 168.96 256 256 C171.52 256 87.04 256 0 256 C0 171.52 0 87.04 0 0 Z M84 29 C82.97390625 29.42925781 81.9478125 29.85851563 80.890625 30.30078125 C55.00896142 42.15738119 36.39601327 64.9809996 26 91 C24.41393405 95.28947984 23.0980717 99.56147859 22 104 C21.77570312 104.86625 21.55140625 105.7325 21.3203125 106.625 C15.51770519 133.96879333 22.15322681 162.20344966 36 186 C51.93740446 209.94902608 74.99866825 226.99136299 103 234 C104.04003174 234.26490234 104.04003174 234.26490234 105.10107422 234.53515625 C112.54844146 236.24684336 119.88156832 236.38606072 127.5 236.375 C128.16163147 236.37412384 128.82326294 236.37324768 129.50494385 236.37234497 C147.0483864 236.2958574 161.348997 232.76244522 177 225 C178.01964844 224.50371094 179.03929687 224.00742188 180.08984375 223.49609375 C186.72910754 220.07868869 192.34723619 215.85419877 198 211 C199.21816406 210.00033203 199.21816406 210.00033203 200.4609375 208.98046875 C216.52566688 195.32291491 227.95156144 176.43725294 233 156 C233.26184082 154.95674561 233.52368164 153.91349121 233.79345703 152.83862305 C235.77648248 144.34626358 236.51042251 136.33428128 236.4375 127.625 C236.43065186 126.35712646 236.42380371 125.08925293 236.41674805 123.78295898 C236.25312417 114.21862246 235.14471991 106.03072527 232 97 C231.649375 95.84371094 231.29875 94.68742187 230.9375 93.49609375 C226.41787112 79.45071928 218.97230278 66.85268264 209 56 C208.55285645 55.51047852 208.10571289 55.02095703 207.64501953 54.51660156 C189.52773169 34.90042379 164.1101612 21.48693329 137.19726562 19.82714844 C118.10176819 19.08599899 101.59600764 21.49749512 84 29 Z " fill="#FEFEFE" transform="translate(0,0)"/>
<path d="M0 0 C1.07958984 -0.02900391 2.15917969 -0.05800781 3.27148438 -0.08789062 C4.30982422 -0.09626953 5.34816406 -0.10464844 6.41796875 -0.11328125 C7.35793701 -0.12786377 8.29790527 -0.14244629 9.26635742 -0.1574707 C12.57093178 0.45249244 13.76638729 1.70161091 15.8125 4.3125 C15.8125 11.08625341 9.8229693 16.64962352 5.625 21.5 C4.65162709 22.63740792 3.67898291 23.77543984 2.70703125 24.9140625 C2.22314941 25.4802832 1.73926758 26.04650391 1.24072266 26.62988281 C-3.37825908 32.071596 -7.94458516 37.57130585 -12.1875 43.3125 C-10.4240625 43.6528125 -10.4240625 43.6528125 -8.625 44 C-4.15685514 45.00160322 0.20516679 46.28763277 4.5625 47.6875 C5.81546875 48.08710937 7.0684375 48.48671875 8.359375 48.8984375 C12.37320348 50.54210934 15.81916908 52.32583817 17.8125 56.3125 C18.11408918 59.60747437 18.21450727 61.62750876 16.51953125 64.515625 C11.04757381 70.42759551 4.99013111 75.24168905 -1.45654297 80.01660156 C-4.30289616 82.14755258 -7.08673693 84.35642818 -9.875 86.5625 C-15.29530648 90.83476077 -20.73700024 95.07883996 -26.1875 99.3125 C-31.61434662 103.52880832 -37.03483478 107.75274255 -42.4375 112 C-43.26749512 112.65125854 -43.26749512 112.65125854 -44.11425781 113.31567383 C-47.11883792 115.67559813 -50.11152828 118.04936978 -53.09375 120.4375 C-53.73666992 120.94966064 -54.37958984 121.46182129 -55.04199219 121.98950195 C-56.28021773 122.9762229 -57.51539175 123.96678871 -58.74707031 124.96166992 C-62.96249198 128.3125 -62.96249198 128.3125 -65.1875 128.3125 C-65.37860352 127.78930176 -65.56970703 127.26610352 -65.76660156 126.72705078 C-66.65534948 124.29663002 -67.54641685 121.8670655 -68.4375 119.4375 C-68.73785156 118.61507812 -69.03820312 117.79265625 -69.34765625 116.9453125 C-70.84372963 112.87089988 -72.37239729 108.81676433 -74 104.79296875 C-76.78487429 97.88604916 -79.38877842 90.91012036 -82.01641846 83.94229126 C-83.2635933 80.63534821 -84.51309309 77.32928528 -85.76248169 74.0231781 C-86.38129472 72.38565269 -87.0000091 70.74808999 -87.61862183 69.11048889 C-90.01021641 62.77957025 -92.40634977 56.45040337 -94.8125 50.125 C-95.25287598 48.9642395 -95.25287598 48.9642395 -95.70214844 47.7800293 C-98.91419167 39.3441993 -102.21412919 31.04205331 -106.234375 22.953125 C-107.34392388 19.87912892 -107.45989078 17.55886219 -107.1875 14.3125 C-104.53313152 9.74698622 -101.1519645 7.74085504 -96.1875 6.3125 C-91.79802709 5.68007416 -87.40235471 5.42893602 -82.9765625 5.1796875 C-81.69502289 5.09751984 -80.41348328 5.01535217 -79.09310913 4.93069458 C-75.69070599 4.71274458 -72.28756259 4.51002406 -68.8840332 4.31054688 C-65.47809418 4.10823771 -62.0730894 3.89135251 -58.66796875 3.67578125 C-49.3569321 3.09010102 -40.04482561 2.52207305 -30.72949219 2.00878906 C-29.94762543 1.96513214 -29.16575867 1.92147522 -28.36019897 1.87649536 C-26.41136325 1.76888007 -24.46228491 1.66568093 -22.51318359 1.56298828 C-20.20482958 1.38912459 -17.90204677 1.12816192 -15.6105957 0.79956055 C-10.40763137 0.0592486 -5.24795516 0.04750714 0 0 Z " fill="#7FA8F9" transform="translate(173.1875,74.6875)"/>
<path d="M0 0 C1.07958984 -0.02900391 2.15917969 -0.05800781 3.27148438 -0.08789062 C4.30982422 -0.09626953 5.34816406 -0.10464844 6.41796875 -0.11328125 C7.35793701 -0.12786377 8.29790527 -0.14244629 9.26635742 -0.1574707 C12.57093178 0.45249244 13.76638729 1.70161091 15.8125 4.3125 C15.8125 11.08588441 9.82331504 16.65014561 5.625 21.5 C4.64109524 22.64772491 3.65803414 23.79617355 2.67578125 24.9453125 C1.9480249 25.79657715 1.9480249 25.79657715 1.20556641 26.66503906 C-0.79922264 29.03593224 -2.74155635 31.4557187 -4.6875 33.875 C-8.81726283 38.95209194 -13.19555285 43.7561893 -17.640625 48.5546875 C-19.64318782 50.72310675 -21.61975193 52.90334256 -23.5625 55.125 C-24.09230469 55.72957031 -24.62210937 56.33414063 -25.16796875 56.95703125 C-26.92051492 59.00110347 -28.64392442 61.06480138 -30.36328125 63.13671875 C-31.53383919 64.52865842 -32.70441227 65.92058538 -33.875 67.3125 C-34.43429199 67.99675049 -34.99358398 68.68100098 -35.56982422 69.38598633 C-36.10752441 70.02173584 -36.64522461 70.65748535 -37.19921875 71.3125 C-37.91791138 72.17875 -37.91791138 72.17875 -38.65112305 73.0625 C-40.1875 74.3125 -40.1875 74.3125 -44.1875 74.3125 C-46.35058594 72.58764648 -46.35058594 72.58764648 -48.671875 70.18359375 C-49.52523437 69.31283203 -50.37859375 68.44207031 -51.2578125 67.54492188 C-52.14210937 66.62259766 -53.02640625 65.70027344 -53.9375 64.75 C-60.80877434 57.58959076 -60.80877434 57.58959076 -68.109375 50.87890625 C-74.15096796 45.71768143 -79.6202454 39.93501979 -85.19677734 34.28271484 C-95.0664466 24.07000867 -95.0664466 24.07000867 -106.1875 15.3125 C-105.32513439 11.43185475 -104.31736 10.39590159 -100.92553711 8.2175293 C-95.15341139 5.49303059 -89.16707113 5.411014 -82.87890625 5.08203125 C-81.59878159 5.00127853 -80.31865692 4.92052582 -78.9997406 4.83732605 C-75.60573528 4.62346686 -72.21086235 4.43041506 -68.81536865 4.24188232 C-65.41585249 4.04949858 -62.01757831 3.83739137 -58.61914062 3.62695312 C-49.32591985 3.05622314 -40.03072411 2.52149957 -30.73388672 2.01318359 C-29.95206528 1.96957199 -29.17024384 1.92596039 -28.36473083 1.88102722 C-26.41510705 1.77283241 -24.46525491 1.6687722 -22.51538086 1.56518555 C-20.20623695 1.38985256 -17.90267314 1.12817663 -15.61035156 0.79931641 C-10.40746169 0.05933335 -5.24784167 0.04750611 0 0 Z " fill="#FCFDFE" transform="translate(173.1875,74.6875)"/>
<path d="M0 0 C6.52465808 -0.51943444 11.5516606 1.32610086 17.61328125 3.61328125 C18.62287399 3.98349899 19.63246674 4.35371674 20.6726532 4.7351532 C23.88994661 5.91704239 27.10133662 7.11406732 30.3125 8.3125 C33.51394597 9.49731751 36.71655132 10.67889562 39.92021179 11.85771179 C41.90856433 12.59041054 43.89549036 13.32699684 45.88069153 14.06819153 C51.12515624 16.01209834 56.37456866 17.77394078 61.7540741 19.30778503 C64.92112231 20.28389835 67.9415027 21.55474631 71 22.82421875 C73.4463756 23.7830196 75.89074346 24.66728737 78.375 25.51953125 C79.14642334 25.78467529 79.91784668 26.04981934 80.71264648 26.32299805 C82.26476508 26.85273411 83.81895017 27.376458 85.37524414 27.89379883 C90.89040528 29.78081056 90.89040528 29.78081056 92 32 C83.52792008 42.62371926 83.52792008 42.62371926 79.5 46.5 C75.63851517 50.21713026 72.35715536 54.36412021 69.015625 58.546875 C67.41908062 60.48995615 65.82047747 62.2716986 64 64 C60.5465583 62.51891127 58.35078674 60.57178301 55.734375 57.89453125 C54.52201172 56.66573242 54.52201172 56.66573242 53.28515625 55.41210938 C52.44855469 54.55423828 51.61195312 53.69636719 50.75 52.8125 C44.12411576 46.00395489 44.12411576 46.00395489 37.109375 39.60546875 C31.06340517 34.42374898 25.57904797 28.6344734 19.99072266 22.97021484 C10.1210534 12.75750867 10.1210534 12.75750867 -1 4 C-0.67 2.68 -0.34 1.36 0 0 Z " fill="#CFDAFA" transform="translate(68,86)"/>
<path d="M0 0 C1.93359375 -0.03867188 1.93359375 -0.03867188 3.90625 -0.078125 C7.76662041 0.2743436 10.18007488 1.30313033 13.5 3.25 C12.84 3.91 12.18 4.57 11.5 5.25 C10.84 4.59 10.18 3.93 9.5 3.25 C7.09212086 2.95539193 7.09212086 2.95539193 4.30078125 3.01953125 C3.25599609 3.02146484 2.21121094 3.02339844 1.13476562 3.02539062 C0.03841797 3.03763672 -1.05792969 3.04988281 -2.1875 3.0625 C-3.26451172 3.06314453 -4.34152344 3.06378906 -5.45117188 3.06445312 C-10.9075855 3.09456209 -16.10248434 3.3847494 -21.5 4.25 C-23.3115721 4.3116181 -25.12505032 4.33732808 -26.9375 4.3125 C-28.23494141 4.29896484 -28.23494141 4.29896484 -29.55859375 4.28515625 C-30.19925781 4.27355469 -30.83992187 4.26195313 -31.5 4.25 C-31.5 3.92 -31.5 3.59 -31.5 3.25 C-28.53 3.25 -25.56 3.25 -22.5 3.25 C-22.5 2.59 -22.5 1.93 -22.5 1.25 C-15.00633713 0.5943045 -7.5212279 0.11971992 0 0 Z " fill="#32ABFC" transform="translate(175.5,72.75)"/>
<path d="M0 0 C-0.66902344 0.38027344 -1.33804688 0.76054688 -2.02734375 1.15234375 C-12.48596844 7.56790279 -20.56997456 16.17941743 -29 25 C-29.66 24.67 -30.32 24.34 -31 24 C-7.96272285 -2.65424095 -7.96272285 -2.65424095 0 0 Z " fill="#0F6CFE" transform="translate(74,37)"/>
<path d="M0 0 C4.29 0 8.58 0 13 0 C13 3.63 13 7.26 13 11 C12.1028125 9.8553125 12.1028125 9.8553125 11.1875 8.6875 C7.6007083 4.2808702 5.58559851 2.61361735 0 1 C0 0.67 0 0.34 0 0 Z " fill="#A0ECF2" transform="translate(243,0)"/>
<path d="M0 0 C3.63 0 7.26 0 11 0 C9.9171875 0.7734375 9.9171875 0.7734375 8.8125 1.5625 C5.51023043 4.42446696 3.48158025 7.4154952 1 11 C0.67 11 0.34 11 0 11 C0 7.37 0 3.74 0 0 Z " fill="#82B0FF" transform="translate(0,0)"/>
<path d="M0 0 C0.33 0 0.66 0 1 0 C1 3.63 1 7.26 1 11 C-2.96 11 -6.92 11 -11 11 C-10.01 10.34 -9.02 9.68 -8 9 C-3.04049332 5.25790036 -3.04049332 5.25790036 0 0 Z " fill="#8EC8FB" transform="translate(255,245)"/>
<path d="M0 0 C0.556875 0.7425 1.11375 1.485 1.6875 2.25 C4.72919198 5.86714722 8.08360369 8.38906913 12 11 C8.04 11 4.08 11 0 11 C0 7.37 0 3.74 0 0 Z " fill="#83A0EA" transform="translate(0,245)"/>
</svg>
