<?xml version="1.0" encoding="UTF-8"?>
<svg version="1.1" xmlns="http://www.w3.org/2000/svg" width="48" height="48">
<path d="M0 0 C15.84 0 31.68 0 48 0 C48 15.84 48 31.68 48 48 C32.16 48 16.32 48 0 48 C0 32.16 0 16.32 0 0 Z " fill="#0B70F5" transform="translate(0,0)"/>
<path d="M0 0 C15.84 0 31.68 0 48 0 C48 15.84 48 31.68 48 48 C32.16 48 16.32 48 0 48 C0 32.16 0 16.32 0 0 Z M7.625 11.5625 C3.73088662 17.40367007 3.23533285 22.02120236 4 29 C5.77181483 35.20665674 9.70122095 39.44699038 15 43 C20.93353187 44.97784396 27.63853119 45.00831235 33.375 42.375 C38.78325983 39.2386526 41.99330172 34.92370322 44 29 C44.94682082 22.33238811 44.41626275 17.15922312 40.4296875 11.65234375 C36.8325896 7.49504208 32.77185907 4.37618087 27.265625 3.62890625 C18.51256796 3.43615758 13.57917975 5.13825342 7.625 11.5625 Z " fill="#F9FCFE" transform="translate(0,0)"/>
<path d="M0 0 C-0.76403415 3.47153381 -2.08186911 5.99770818 -4 9 C-1.525 9.495 -1.525 9.495 1 10 C-0.54228144 14.40064304 -4.01426977 16.59595898 -7.625 19.25 C-8.23601563 19.70890625 -8.84703125 20.1678125 -9.4765625 20.640625 C-10.9790792 21.76751252 -12.48884409 22.88472437 -14 24 C-16.7984263 21.2015737 -17.76993087 17.82803262 -19.125 14.1875 C-19.40214844 13.47529297 -19.67929687 12.76308594 -19.96484375 12.02929688 C-21.39231971 8.22855423 -22.37309913 5.12842294 -22 1 C-14.64206267 0.08839714 -7.41017023 -0.11459026 0 0 Z " fill="#81AAF9" transform="translate(35,14)"/>
<path d="M0 0 C-0.53176995 4.13813705 -2.77932166 6.27082318 -5.5625 9.25 C-6.38878906 10.14203125 -7.21507812 11.0340625 -8.06640625 11.953125 C-8.70449219 12.62859375 -9.34257812 13.3040625 -10 14 C-10.44730469 13.61328125 -10.89460938 13.2265625 -11.35546875 12.828125 C-11.96003906 12.30734375 -12.56460937 11.7865625 -13.1875 11.25 C-13.82171875 10.70214844 -14.4559375 10.15429688 -15.109375 9.58984375 C-16.67331099 8.27471576 -18.29861024 7.03294982 -19.9375 5.8125 C-20.618125 5.214375 -21.29875 4.61625 -22 4 C-22 3.01 -22 2.02 -22 1 C-14.64206267 0.08839714 -7.41017023 -0.11459026 0 0 Z " fill="#F0F7FE" transform="translate(35,14)"/>
<path d="M0 0 C6.18160604 0.53753096 11.326858 2.54582388 17 5 C15.35 6.98 13.7 8.96 12 11 C7.81576108 7.49102731 3.80411834 3.91939465 0 0 Z " fill="#D1DBFA" transform="translate(13,17)"/>
<path d="M0 0 C0.66 0.66 1.32 1.32 2 2 C1.6442194 5.37991574 0.64284201 8.04288438 -1 11 C-1.99 11 -2.98 11 -4 11 C-3.29931534 7.21630285 -2.16594448 5.60990747 0 2 C-5.94 2.33 -11.88 2.66 -18 3 C-18 2.34 -18 1.68 -18 1 C-16.12528812 0.83012319 -14.25021305 0.66425224 -12.375 0.5 C-11.33085937 0.4071875 -10.28671875 0.314375 -9.2109375 0.21875 C-6.10755066 0.00732705 -3.10690629 -0.17804621 0 0 Z " fill="#1694FC" transform="translate(35,12)"/>
</svg>
