<?xml version="1.0" encoding="UTF-8"?>
<svg version="1.1" xmlns="http://www.w3.org/2000/svg" width="16" height="16">
<path d="M0 0 C5.28 0 10.56 0 16 0 C16 5.28 16 10.56 16 16 C10.72 16 5.44 16 0 16 C0 10.72 0 5.44 0 0 Z " fill="#1552E5" transform="translate(0,0)"/>
<path d="M0 0 C5.28 0 10.56 0 16 0 C16 5.28 16 10.56 16 16 C10.72 16 5.44 16 0 16 C0 10.72 0 5.44 0 0 Z M2.625 3.125 C0.74372018 5.90300794 0.74372018 5.90300794 1 9.125 C1.8074796 12.02189293 1.8074796 12.02189293 3.6875 13.9375 C6.89943934 15.41325591 8.66474802 15.06444212 12 14 C14.0785608 12.42304368 14.0785608 12.42304368 15 10 C14.92857348 6.50010028 14.66021066 4.70736857 12.25 2.125 C8.17761061 0.0888053 6.07740204 0.0360087 2.625 3.125 Z " fill="#F7FAFE" transform="translate(0,0)"/>
<path d="M0 0 C6.4100295 0.48377581 6.4100295 0.48377581 9 2.75 C10.25805827 5.5806311 9.89063845 7.08518324 9 10 C8.34 9.34 7.68 8.68 7 8 C6.38125 8.495 5.7625 8.99 5.125 9.5 C3 11 3 11 1 11 C0.67 8.69 0.34 6.38 0 4 C0.99 3.67 1.98 3.34 3 3 C3.33 2.34 3.66 1.68 4 1 C2.68 0.67 1.36 0.34 0 0 Z " fill="#1D89FD" transform="translate(5,1)"/>
<path d="M0 0 C0.78375 0.04125 1.5675 0.0825 2.375 0.125 C2.045 1.115 1.715 2.105 1.375 3.125 C0.385 3.125 -0.605 3.125 -1.625 3.125 C-1.955 4.775 -2.285 6.425 -2.625 8.125 C-3.615 8.125 -4.605 8.125 -5.625 8.125 C-4.59375 0.21875 -4.59375 0.21875 0 0 Z " fill="#1766F9" transform="translate(6.625,1.875)"/>
<path d="M0 0 C1.98 0 3.96 0 6 0 C5.34 1.32 4.68 2.64 4 4 C2.68 3.34 1.36 2.68 0 2 C0 1.34 0 0.68 0 0 Z " fill="#E5ECFC" transform="translate(5,5)"/>
<path d="M0 0 C0.66 1.32 1.32 2.64 2 4 C1.01 4.66 0.02 5.32 -1 6 C-1.99 5.01 -2.98 4.02 -4 3 C-2.68 2.01 -1.36 1.02 0 0 Z " fill="#0C65FB" transform="translate(12,8)"/>
<path d="M0 0 C2.31 0.33 4.62 0.66 7 1 C5.71034824 2.37562854 4.37310707 3.70766393 3 5 C2.34 5 1.68 5 1 5 C0.67 3.35 0.34 1.7 0 0 Z " fill="#80A9F9" transform="translate(5,7)"/>
<path d="M0 0 C2.3431213 0.25561323 4.67843403 0.59270772 7 1 C7.33 1.66 7.66 2.32 8 3 C7.34 3.66 6.68 4.32 6 5 C5.01 4.34 4.02 3.68 3 3 C3.33 2.34 3.66 1.68 4 1 C2.68 0.67 1.36 0.34 0 0 Z " fill="#48B5FC" transform="translate(5,1)"/>
<path d="M0 0 C1.2065625 0.0309375 1.2065625 0.0309375 2.4375 0.0625 C2.1075 1.0525 1.7775 2.0425 1.4375 3.0625 C0.4475 3.0625 -0.5425 3.0625 -1.5625 3.0625 C-1.8925 3.7225 -2.2225 4.3825 -2.5625 5.0625 C-3.125 3.125 -3.125 3.125 -3.5625 1.0625 C-2.5625 0.0625 -2.5625 0.0625 0 0 Z " fill="#1A86FD" transform="translate(6.5625,1.9375)"/>
</svg>
