<?xml version="1.0" encoding="UTF-8"?>
<svg version="1.1" xmlns="http://www.w3.org/2000/svg" width="512" height="512">
<path d="M0 0 C168.96 0 337.92 0 512 0 C512 168.96 512 337.92 512 512 C343.04 512 174.08 512 0 512 C0 343.04 0 174.08 0 0 Z " fill="#0974F6" transform="translate(0,0)"/>
<path d="M0 0 C168.96 0 337.92 0 512 0 C512 168.96 512 337.92 512 512 C343.04 512 174.08 512 0 512 C0 343.04 0 174.08 0 0 Z M103 103 C102.21753906 103.72832031 101.43507812 104.45664063 100.62890625 105.20703125 C94.01278041 111.56370118 88.50286613 118.68713602 83 126 C82.57041992 126.56348145 82.14083984 127.12696289 81.69824219 127.70751953 C63.72554841 151.3874775 51.73847948 178.98793405 44.6875 207.75 C44.44499512 208.73033203 44.20249023 209.71066406 43.95263672 210.72070312 C40.62464224 224.93582585 39.61816648 238.96235833 39.6875 253.5 C39.68899048 254.2793692 39.69048096 255.0587384 39.6920166 255.86172485 C39.73829401 269.40425451 40.57990798 282.65130962 43 296 C43.13390137 296.74588379 43.26780273 297.49176758 43.40576172 298.26025391 C51.09523683 339.00049113 71.43086757 376.24698769 100 406 C100.53641113 406.56364258 101.07282227 407.12728516 101.62548828 407.70800781 C118.34535357 425.19554812 137.61391613 438.7612371 159 450 C159.65129883 450.34272949 160.30259766 450.68545898 160.97363281 451.03857422 C189.11746135 465.59837061 220.42608581 472.62599309 252.00146484 472.33618164 C254.76298972 472.31238808 257.52355305 472.31568225 260.28515625 472.32226562 C271.01776201 472.30559573 281.39171493 471.66753574 292 470 C292.91539551 469.85941162 293.83079102 469.71882324 294.77392578 469.57397461 C330.39040359 463.72633264 365.43776507 447.29319704 393 424 C393.54543457 423.54334961 394.09086914 423.08669922 394.65283203 422.61621094 C405.54709684 413.48560953 415.10686671 404.13602228 424 393 C424.65871094 392.20851563 425.31742187 391.41703125 425.99609375 390.6015625 C447.859871 364.11867738 462.50879441 331.63211226 469 298 C469.16226074 297.22269531 469.32452148 296.44539063 469.49169922 295.64453125 C472.2596433 282.00190903 472.31125316 268.2397147 472.375 254.375 C472.38294586 253.46901062 472.39089172 252.56302124 472.39907837 251.62957764 C472.76744696 196.8869097 449.56122802 145.25904966 412 106 C411.48099121 105.44844238 410.96198242 104.89688477 410.42724609 104.32861328 C397.55109736 90.69074437 382.96895201 79.7631002 367 70 C365.65035156 69.13181641 365.65035156 69.13181641 364.2734375 68.24609375 C341.66023284 54.20244647 315.16255748 46.00257506 289 42 C287.90099365 41.82412354 286.8019873 41.64824707 285.66967773 41.46704102 C275.73144322 39.99062044 265.97236979 39.55969835 255.9375 39.5625 C255.11661896 39.5614325 254.29573792 39.56036499 253.44998169 39.55926514 C195.7099188 39.66661329 144.5319676 63.86740329 103 103 Z " fill="#FEFEFE" transform="translate(0,0)"/>
<path d="M0 0 C0.86809296 -0.0231427 1.73618591 -0.0462854 2.63058472 -0.07012939 C9.69622333 -0.05643371 15.36621082 2.16661101 21.1171875 6.234375 C22.69559331 8.63629688 23.25519032 10.37593883 23.046875 13.26171875 C20.60486345 23.97943612 13.13675481 31.85691542 6.01806641 39.76855469 C3.90857252 42.15185342 1.92069442 44.62680509 -0.0703125 47.109375 C-3.86857629 51.79207205 -7.88693747 56.22840864 -11.96875 60.6640625 C-15.19980552 64.26205177 -18.23025858 68.00317165 -21.26171875 71.76953125 C-24.06189192 75.17081495 -27.01599848 78.41522655 -30.01171875 81.64453125 C-31.65458561 83.30075311 -31.65458561 83.30075311 -31.4453125 85.421875 C-30.29643555 85.81455566 -29.14755859 86.20723633 -27.96386719 86.61181641 C-23.64452257 88.09065854 -19.32907969 89.58062101 -15.01464844 91.07373047 C-13.1575991 91.71472446 -11.29954636 92.35281994 -9.44042969 92.98779297 C22.2536083 103.81971661 22.2536083 103.81971661 27.5546875 114.421875 C28.38886294 121.09527849 26.22636132 125.88113645 22.5546875 131.421875 C16.41291856 138.76231632 8.8786776 144.45319594 1.25341797 150.14208984 C-1.57686671 152.27436238 -4.35294482 154.47453553 -7.1328125 156.671875 C-12.55333455 160.94386464 -17.9948104 165.18821315 -23.4453125 169.421875 C-30.56868599 174.95627481 -37.67228013 180.51495715 -44.75976562 186.09521484 C-47.65340077 188.37273706 -50.54950573 190.64711507 -53.4453125 192.921875 C-54.61199046 193.8385273 -55.77865714 194.75519395 -56.9453125 195.671875 C-59.27864583 197.50520833 -61.61197917 199.33854167 -63.9453125 201.171875 C-64.52249023 201.6253833 -65.09966797 202.0788916 -65.69433594 202.54614258 C-66.86421266 203.46530813 -68.03413473 204.38441595 -69.20410156 205.3034668 C-72.07202407 207.55643594 -74.9392224 209.81031223 -77.8046875 212.06640625 C-85.10547024 217.81239267 -92.42962505 223.52752108 -99.76806641 229.2253418 C-103.81732637 232.37107993 -107.85588266 235.52927011 -111.87792969 238.7097168 C-117.60559407 243.23516657 -123.37825637 247.69935596 -129.1953125 252.109375 C-129.8877002 252.63934082 -130.58008789 253.16930664 -131.29345703 253.71533203 C-136.21291596 257.421875 -136.21291596 257.421875 -138.4453125 257.421875 C-138.80085205 256.40061523 -139.1563916 255.37935547 -139.52270508 254.32714844 C-143.23401064 243.71283512 -147.1318718 233.17997104 -151.1328125 222.671875 C-151.75074932 221.04458319 -152.36850324 219.4172219 -152.98608398 217.78979492 C-154.22443932 214.52729446 -155.46381925 211.26518634 -156.70410156 208.00341797 C-158.25398947 203.92671417 -159.79972725 199.84846011 -161.34375 195.76953125 C-166.05051677 183.33715725 -170.77706265 170.91236409 -175.51998901 158.4937439 C-176.08625008 157.01094624 -176.65227755 155.52805935 -177.2180481 154.04507446 C-179.95468077 146.87336175 -182.71057098 139.71233396 -185.58032227 132.5925293 C-187.17606124 128.58809372 -188.6607927 124.5426648 -190.15625 120.5 C-191.49228415 116.90851036 -192.87151731 113.33925053 -194.30371094 109.78491211 C-196.340535 104.70360942 -198.31501474 99.60021703 -200.2734375 94.48828125 C-200.99855616 92.60215904 -201.72382142 90.71609318 -202.44921875 88.83007812 C-203.56702494 85.92217613 -204.68397983 83.01396084 -205.79833984 80.10473633 C-206.89139417 77.25232708 -207.98764987 74.40117938 -209.0859375 71.55078125 C-209.44464935 70.61870346 -209.80336121 69.68662567 -210.17294312 68.7263031 C-211.95690014 64.12693946 -213.79231081 59.56023899 -215.74462891 55.02954102 C-216.11303894 54.17428329 -216.48144897 53.31902557 -216.86102295 52.43785095 C-217.55472336 50.84168513 -218.25678378 49.24911376 -218.96905518 47.66114807 C-221.7458097 41.29524311 -223.07153304 35.33084831 -221.4453125 28.421875 C-219.0286454 22.91474885 -214.77397368 19.12420041 -209.39770508 16.53149414 C-205.88706801 15.21206592 -202.38079853 14.47907506 -198.69921875 13.84375 C-197.95283142 13.71435532 -197.20644409 13.58496063 -196.43743896 13.4516449 C-189.15221804 12.26100628 -181.90904332 11.83494628 -174.54043579 11.57067871 C-170.26641787 11.41338907 -165.99464091 11.20832484 -161.72265625 11.00390625 C-160.80796066 10.96035004 -159.89326508 10.91679382 -158.95085144 10.87191772 C-148.20477968 10.34045671 -137.48375981 9.50737745 -126.7578125 8.671875 C-122.29303229 8.32729904 -117.82815572 7.98397723 -113.36328125 7.640625 C-111.56241058 7.50197273 -111.56241058 7.50197273 -109.72515869 7.36051941 C-93.83289233 6.13985443 -77.93830382 4.95076954 -62.04141712 3.79182053 C-57.37846616 3.45173591 -52.71577661 3.10874685 -48.05361938 2.75793457 C-13.88723459 0.19098613 -13.88723459 0.19098613 0 0 Z " fill="#7FA8F9" transform="translate(354.4453125,148.578125)"/>
<path d="M0 0 C0.86809296 -0.0231427 1.73618591 -0.0462854 2.63058472 -0.07012939 C9.69622333 -0.05643371 15.36621082 2.16661101 21.1171875 6.234375 C22.69559331 8.63629688 23.25519032 10.37593883 23.046875 13.26171875 C20.60486345 23.97943612 13.13675481 31.85691542 6.01806641 39.76855469 C3.90857252 42.15185342 1.92069442 44.62680509 -0.0703125 47.109375 C-3.87090813 51.79494687 -7.8916923 56.23399133 -11.9765625 60.671875 C-14.38909354 63.35925134 -16.6778746 66.11152944 -18.9453125 68.921875 C-22.78483052 73.68071423 -26.84390929 78.18250475 -30.984375 82.6796875 C-33.35571145 85.32203383 -35.59784247 88.02881667 -37.8203125 90.796875 C-41.68750113 95.5932821 -45.79511966 100.0922896 -50.00341797 104.58544922 C-53.12070586 107.93269285 -56.08097732 111.35183406 -58.9453125 114.921875 C-63.28060183 120.3212808 -67.93982711 125.36237866 -72.66015625 130.421875 C-75.40932579 133.3704995 -78.07343516 136.38479773 -80.7109375 139.43359375 C-84.23698315 143.47583978 -87.84895528 147.44223255 -91.4453125 151.421875 C-94.36365467 150.10703927 -96.39452179 148.70554224 -98.6171875 146.41015625 C-99.19984375 145.81654297 -99.7825 145.22292969 -100.3828125 144.61132812 C-100.9809375 143.99193359 -101.5790625 143.37253906 -102.1953125 142.734375 C-105.76868063 139.05428017 -109.34330404 135.45862481 -113.2421875 132.12109375 C-119.39025081 126.82214069 -124.97377591 120.93604482 -130.66796875 115.16015625 C-134.48983033 111.30491596 -138.28723102 107.48320488 -142.4140625 103.953125 C-148.23136154 98.97107011 -153.50862146 93.41476625 -158.88183594 87.96484375 C-165.48154862 81.25139374 -165.48154862 81.25139374 -172.4453125 74.921875 C-178.25417858 69.95298752 -183.51914465 64.40409283 -188.88183594 58.96484375 C-193.97801007 53.80257589 -199.09406035 48.72783946 -204.60498047 44.00439453 C-207.65932747 41.37793165 -210.59995126 38.64621542 -213.5078125 35.859375 C-214.10013672 35.32119141 -214.69246094 34.78300781 -215.30273438 34.22851562 C-219.42227374 30.24325694 -219.42227374 30.24325694 -219.53515625 26.21875 C-217.52853815 21.06914942 -213.22234452 18.70239532 -208.3359375 16.44921875 C-197.63019719 12.56155028 -186.18149488 12.09986612 -174.91763306 11.64611816 C-158.83845569 10.98393258 -142.80103466 9.91845216 -126.7578125 8.671875 C-122.29301428 8.32753337 -117.82814747 7.98408368 -113.36328125 7.640625 C-112.16267563 7.54818512 -110.96207001 7.45574524 -109.7250824 7.36050415 C-93.83283864 6.13987992 -77.93827829 4.95076768 -62.04141712 3.79182053 C-57.37846616 3.45173591 -52.71577661 3.10874685 -48.05361938 2.75793457 C-13.88723459 0.19098613 -13.88723459 0.19098613 0 0 Z " fill="#FDFEFE" transform="translate(354.4453125,148.578125)"/>
<path d="M0 0 C3.93694732 0.95872516 7.67741427 2.32094704 11.46875 3.7421875 C12.56136642 4.13707367 13.65398285 4.53195984 14.77970886 4.93881226 C18.35870007 6.2361334 21.92912292 7.55552732 25.5 8.875 C28.01352061 9.79031896 30.52748716 10.70428576 33.04223633 11.61621094 C38.19615139 13.48731575 43.34656183 15.36775156 48.49462891 17.25488281 C58.5187435 20.92801743 68.56605792 24.53635916 78.61346436 28.14517212 C81.68644705 29.24962156 84.75863537 30.35625215 87.83056641 31.46362305 C102.00047143 36.57088408 116.18292318 41.64218769 130.375 46.6875 C131.73605362 47.17156311 131.73605362 47.17156311 133.12460327 47.66540527 C145.73613165 52.14936295 158.36296794 56.58845015 171 61 C170.14225601 65.47021189 167.58713716 67.88889104 164.5 71.0625 C160.68994418 75.07518842 157.01379904 79.10570195 153.5625 83.4375 C149.53488871 88.45922225 145.20654144 93.12582761 140.79711914 97.80834961 C136.7891211 102.08787796 133.07269416 106.53339739 129.41015625 111.11328125 C124.52478721 116.96463898 119.23260564 122.46006977 114 128 C111.08165783 126.68516427 109.05079071 125.28366724 106.828125 122.98828125 C105.95414063 122.09786133 105.95414063 122.09786133 105.0625 121.18945312 C104.464375 120.57005859 103.86625 119.95066406 103.25 119.3125 C99.67663187 115.63240517 96.10200846 112.03674981 92.203125 108.69921875 C86.05506169 103.40026569 80.47153659 97.51416982 74.77734375 91.73828125 C70.95548217 87.88304096 67.15808148 84.06132988 63.03125 80.53125 C57.21395096 75.54919511 51.93669104 69.99289125 46.56347656 64.54296875 C39.96376388 57.82951874 39.96376388 57.82951874 33 51.5 C27.19113392 46.53111252 21.92616785 40.98221783 16.56347656 35.54296875 C11.4681809 30.38159076 6.35165825 25.31228897 0.84033203 20.59130859 C-2.23001848 17.93642074 -5.15632344 15.14476225 -8.0625 12.3125 C-8.65482422 11.75755859 -9.24714844 11.20261719 -9.85742188 10.63085938 C-11.53515625 8.98828125 -11.53515625 8.98828125 -14 6 C-13.84155273 3.93823242 -13.84155273 3.93823242 -13 2 C-8.67883726 -0.88077516 -5.07495825 -0.53617199 0 0 Z " fill="#CFDAFA" transform="translate(149,172)"/>
<path d="M0 0 C0.33 0 0.66 0 1 0 C1 8.58 1 17.16 1 26 C-8.9 26 -18.8 26 -29 26 C-29 25.67 -29 25.34 -29 25 C-28.39414062 24.92523438 -27.78828125 24.85046875 -27.1640625 24.7734375 C-18.49649088 23.41329549 -11.17229257 20.12702118 -5.5625 13.1875 C-2.77172064 9.10015459 -1.25611218 4.76000406 0 0 Z " fill="#89C6FB" transform="translate(511,486)"/>
<path d="M0 0 C9.57 0 19.14 0 29 0 C29 0.33 29 0.66 29 1 C28.39414062 1.06316406 27.78828125 1.12632813 27.1640625 1.19140625 C18.85098495 2.40639451 12.36893347 5.7192271 7.109375 12.40234375 C3.91903132 17.4279094 2.08103036 22.16243605 1 28 C0.67 28 0.34 28 0 28 C0 18.76 0 9.52 0 0 Z " fill="#81B0FF" transform="translate(0,0)"/>
<path d="M0 0 C1.66717977 2.50076965 2.69783245 4.56614888 3.8125 7.3125 C7.78196907 16.20065901 13.1404711 20.14528343 22 24 C24.43998622 24.6425437 26.46831045 24.88748046 29 25 C29 25.33 29 25.66 29 26 C19.43 26 9.86 26 0 26 C0 17.42 0 8.84 0 0 Z " fill="#809EEA" transform="translate(0,486)"/>
<path d="M0 0 C8.91 0 17.82 0 27 0 C27 8.58 27 17.16 27 26 C25 22 25 22 24.10546875 20.0703125 C19.35064779 9.99413872 14.0349616 6.58267847 4 2 C2.68 1.34 1.36 0.68 0 0 Z " fill="#9BECF2" transform="translate(485,0)"/>
<path d="M0 0 C0.79875549 -0.0014502 1.59751099 -0.00290039 2.42047119 -0.00439453 C12.88217695 -0.0022454 22.97710165 0.71222833 33.3125 2.375 C30.29475153 4.15195534 28.54732543 4.56607521 25.10009766 4.01269531 C20.6102519 3.39068071 16.2396581 3.19879005 11.7109375 3.171875 C10.91932724 3.16517792 10.12771698 3.15848083 9.31211853 3.15158081 C6.77054459 3.13494574 4.22912389 3.12865671 1.6875 3.125 C0.82232758 3.1219989 -0.04284485 3.1189978 -0.93423462 3.11590576 C-12.49999381 3.09367293 -23.71525661 3.48450664 -35.13720703 5.48339844 C-36.37446533 5.69657715 -36.37446533 5.69657715 -37.63671875 5.9140625 C-38.33112061 6.05021973 -39.02552246 6.18637695 -39.7409668 6.32666016 C-42.19350212 6.38756596 -43.59961127 5.60468038 -45.6875 4.375 C-30.40937553 1.22987282 -15.55525337 -0.0274983 0 0 Z " fill="#229DFD" transform="translate(255.6875,39.625)"/>
<path d="M0 0 C0 2.31 0 4.62 0 7 C-6.6 7 -13.2 7 -20 7 C-20 6.67 -20 6.34 -20 6 C-19.03900391 5.85304688 -19.03900391 5.85304688 -18.05859375 5.703125 C-11.99450646 4.654788 -5.63806565 0 0 0 Z " fill="#A1D0FA" transform="translate(502,505)"/>
<path d="M0 0 C6.27 0 12.54 0 19 0 C19 0.33 19 0.66 19 1 C18.02160156 1.14695313 18.02160156 1.14695313 17.0234375 1.296875 C11.28732211 2.27827527 7.66845338 3.5840585 3 7 C2.01 7 1.02 7 0 7 C0 4.69 0 2.38 0 0 Z " fill="#99BFFF" transform="translate(10,0)"/>
<path d="M0 0 C2.91164434 0.61977352 5.21451001 1.56078762 7.8125 3 C11.60534187 4.96402318 14.76037624 5.64669802 19 6 C19 6.33 19 6.66 19 7 C12.73 7 6.46 7 0 7 C0 4.69 0 2.38 0 0 Z " fill="#99B0EE" transform="translate(10,505)"/>
<path d="M0 0 C5.61 0 11.22 0 17 0 C17 2.31 17 4.62 17 7 C13.97972618 6.33416691 11.31430777 5.33954034 8.5 4.0625 C7.7471875 3.72347656 6.994375 3.38445312 6.21875 3.03515625 C4.12842356 2.05991592 2.06311577 1.03155788 0 0 Z " fill="#ADEFF4" transform="translate(485,0)"/>
<path d="M0 0 C-1.3584202 3.04332765 -2.88463024 5.12309151 -5.2578125 7.453125 C-5.88300781 8.071875 -6.50820312 8.690625 -7.15234375 9.328125 C-7.80332031 9.96234375 -8.45429687 10.5965625 -9.125 11.25 C-9.78371094 11.8996875 -10.44242188 12.549375 -11.12109375 13.21875 C-12.74296643 14.81711727 -14.3693281 16.41061897 -16 18 C-16.99 17.67 -17.98 17.34 -19 17 C-16.21641519 14.15862758 -13.42184273 11.32831845 -10.625 8.5 C-9.43390625 7.28376953 -9.43390625 7.28376953 -8.21875 6.04296875 C-7.45820312 5.27597656 -6.69765625 4.50898437 -5.9140625 3.71875 C-5.2123291 3.00654297 -4.5105957 2.29433594 -3.78759766 1.56054688 C-2 0 -2 0 0 0 Z " fill="#126EFE" transform="translate(113,95)"/>
</svg>
