<?xml version="1.0" encoding="UTF-8"?>
<!--
  - Copyright (c) 2022 船山信息 chuanshaninfo.com
  - The project is licensed under Mulan PubL v2.
  - You can use this software according to the terms and conditions of the Mulan
  - PubL v2. You may obtain a copy of Mulan PubL v2 at:
  -          http://license.coscl.org.cn/MulanPubL-2.0
  - THIS SOFTWARE IS PROVIDED ON AN "AS IS" BASIS, WITHOUT WARRANTIES OF ANY KIND,
  - EITHER EXPRESS OR IMPLIED, INCLUDING BUT NOT LIMITED TO NON-INFRINGEMENT,
  - MERCHANTABILITY OR FIT FOR A PARTICULAR PURPOSE.
  - See the Mulan PubL v2 for more details.
  -->

<!DOCTYPE svg PUBLIC "-//W3C//DTD SVG 1.1//EN" "http://www.w3.org/Graphics/SVG/1.1/DTD/svg11.dtd">
<!-- Creator: CorelDRAW -->
<svg xmlns="http://www.w3.org/2000/svg" xml:space="preserve" width="256px" height="256px" style="shape-rendering:geometricPrecision; text-rendering:geometricPrecision; image-rendering:optimizeQuality; fill-rule:evenodd; clip-rule:evenodd"
viewBox="0 0 251.445 251.445"
 xmlns:xlink="http://www.w3.org/1999/xlink">
 <defs>
  <style type="text/css">
   <![CDATA[
    .fil2 {fill:none}
    .fil0 {fill:#CC0000;fill-rule:nonzero}
    .fil1 {fill:white;fill-rule:nonzero}
   ]]>
  </style>
 </defs>
 <g id="图层_x0020_2">
  <metadata id="CorelCorpID_0Corel-Layer"/>
  <g id="_235909416">
   <polygon id="_235910424" class="fil0" points="24.1528,26.735 227.293,26.735 228.995,26.7352 228.995,28.4373 228.995,140.695 228.995,142.398 227.293,142.398 24.1528,142.398 22.4505,142.398 22.4505,140.695 22.4505,28.4373 22.4505,26.7352 "/>
   <path id="_235910208" class="fil1" d="M79.0632 38.8445c9.02838,0 16.9803,1.53456 23.8558,4.60436 8.02846,3.7085 13.6676,9.89644 16.9178,18.5638 2.52824,6.76434 3.79214,14.7094 3.79214,23.8351 0,9.20882 -1.5349,17.2027 -4.6047,23.9808 -3.88905,8.02823 -9.84775,13.6677 -17.8762,16.9178 -5.95881,2.34757 -12.8204,3.52124 -20.5848,3.52124 -10.1951,0 -19.0431,-1.89612 -26.5436,-5.68803 -6.31992,-3.16671 -11.1467,-8.13275 -14.4803,-14.8967 -3.34727,-6.77841 -5.02119,-14.9945 -5.02119,-24.6477 0,-17.2514 4.29204,-29.5302 12.876,-36.8362 7.22271,-6.13925 17.779,-9.25751 31.669,-9.35454zm0.145943 15.1675l0 0c-8.84794,0 -15.168,2.88901 -18.9598,8.6675 -3.0698,4.51413 -4.60447,11.7854 -4.60447,21.8139 0,10.5561 1.8959,18.3208 5.68781,23.2932 3.79202,4.87547 9.79929,7.31304 18.022,7.31304 7.94516,0 13.7858,-2.48625 17.5221,-7.45876 3.75037,-4.95855 5.6255,-12.626 5.6255,-23.0018 0,-9.48653 -1.5349,-16.7164 -4.60458,-21.689 -3.52805,-5.86144 -9.75753,-8.84068 -18.6887,-8.93816zm57.9621 -14.626l0 0 19.2308 0 0 90.3397 -19.2308 0 0 -90.3397zm52.6913 90.3397l0 0 -32.7732 -45.6487 34.5234 -44.6909 25.3143 0 -37.7736 44.6909 36.0234 45.6487 -25.3143 0z"/>
   <path id="_235910736" class="fil0" d="M225.59 142.398l-199.735 0 0 78.9075 199.735 0 0 -78.9075zm-201.438 -3.40447l0 0 203.14 0 1.70229 0 0 1.70218 0 82.3121 0 1.70229 -1.70229 0 -203.14 0 -1.70229 0 0 -1.70229 0 -82.3121 0 -1.70218 1.70229 0z"/>
   <path id="_235910688" class="fil0" d="M63.4184 149.179l23.2282 0 0 11.5769 -17.9931 0c-4.66666,0 -8.06681,0.324003 -10.2007,0.972121 -2.13399,0.648346 -3.91368,1.90918 -5.33975,3.78419 -0.977228,1.29612 -1.64509,2.59236 -2.00416,3.8886 -0.358956,1.29646 -0.668092,3.50502 -0.927294,6.62588l36.465 0 0 11.5618 -36.465 0c0.528391,5.57398 2.18381,9.44771 4.9657,11.6213 2.79198,2.16395 7.52344,3.24581 14.1939,3.24581l17.3054 0 0 11.5766 -17.9931 0c-4.85618,0 -9.12893,-0.289162 -12.8181,-0.867487 -5.84317,-0.977115 -10.4798,-3.53997 -13.9099,-7.68766 -4.92586,-5.96324 -7.38885,-14.0346 -7.38885,-24.2154 0,-11.2774 3.46995,-20.0573 10.4101,-26.3389 2.39308,-2.13422 4.93562,-3.62497 7.62796,-4.4726 2.69223,-0.847514 6.30676,-1.27127 10.8437,-1.27127zm30.4688 64.8533l0 0 0 -64.8533 27.5056 0c6.8701,0 12.1849,0.683186 15.944,2.04933 6.94013,2.53255 11.5766,7.16426 13.91,13.8949 1.75495,5.18495 2.6322,10.7291 2.6322,16.6322 0,5.83318 -0.84252,11.3421 -2.52745,16.5273 -1.68538,5.31455 -4.47214,9.23356 -8.36097,11.7561 -2.46276,1.56577 -5.1702,2.62244 -8.12163,3.17069 -2.95143,0.548478 -7.44344,0.822774 -13.4761,0.822774l-27.5056 0zm27.5056 -53.2764l0 0 -13.7004 0 0 41.6998 13.7004 0c6.03269,0 10.2156,-1.3262 12.5487,-3.97859 1.42573,-1.68515 2.57761,-4.05349 3.45508,-7.10457 0.867601,-3.04097 1.30123,-6.2768 1.30123,-9.70692 0,-3.82913 -0.513524,-7.33415 -1.54035,-10.5147 -1.03704,-3.1708 -2.3983,-5.53392 -4.08323,-7.08959 -2.47309,-2.20379 -6.36668,-3.30539 -11.6815,-3.30539zm38.934 -11.5769l0 0 13.7003 0 0 38.8883c0,3.11099 0.264196,5.52904 0.792927,7.25391 0.508417,1.71511 1.3809,3.19077 2.61744,4.42732 2.72208,2.65217 6.51103,3.97825 11.3672,3.97825 3.11088,0 5.81832,-0.533498 8.12163,-1.60015 2.30331,-1.07687 3.9088,-2.52279 4.81612,-4.33755 0.907434,-1.81476 1.36115,-5.05535 1.36115,-9.72178l0 -38.8883 13.805 0 0 38.2151c0,5.05558 -0.533271,9.21847 -1.60027,12.489 -1.06711,3.28065 -2.7071,5.92295 -4.92098,7.92711 -5.11516,4.47702 -12.3744,6.71554 -21.7771,6.71554 -10.0411,0 -17.3651,-2.20367 -21.9718,-6.61102 -2.39308,-2.27335 -4.04339,-4.821 -4.95083,-7.64294 -0.907207,-2.8216 -1.36081,-6.7901 -1.36081,-11.9057l0 -39.1871z"/>
  </g>
  <rect class="fil2" width="251.445" height="251.445"/>
 </g>
</svg>
