<?xml version="1.0" standalone="no"?><!DOCTYPE svg PUBLIC "-//W3C//DTD SVG 1.1//EN"
        "http://www.w3.org/Graphics/SVG/1.1/DTD/svg11.dtd">
<svg t="1728026517876" class="icon" viewBox="0 0 1024 1024" version="1.1" xmlns="http://www.w3.org/2000/svg" p-id="4541"
     width="50" height="50" xmlns:xlink="http://www.w3.org/1999/xlink">
    <path d="M409.493333 149.354667C438.592 118.314667 490.666667 138.901333 490.666667 181.461333V320c247.424 0 448 200.576 448 448 0 3.541333-0.042667 7.04-0.128 10.56-0.853333 37.461333-45.845333 55.744-72.661334 29.866667A446.357333 446.357333 0 0 0 554.666667 682.666667c-21.76 0-43.114667 1.536-64 4.522666v155.349334c0 42.56-52.053333 63.146667-81.173334 32.106666L110.549333 555.776a64 64 0 0 1 0-87.552L409.493333 149.354667zM405.333333 278.549333L186.474667 512 405.333333 745.429333V617.386667l33.429334-7.424A535.04 535.04 0 0 1 554.666667 597.333333c106.24 0 205.248 31.082667 288.405333 84.629334C804.458667 523.2 661.312 405.333333 490.666667 405.333333c-12.928 0-25.685333 0.682667-38.229334 1.984L405.333333 412.245333v-133.696z"
          p-id="4542"></path>
</svg>