<?xml version="1.0" standalone="no"?><!DOCTYPE svg PUBLIC "-//W3C//DTD SVG 1.1//EN" "http://www.w3.org/Graphics/SVG/1.1/DTD/svg11.dtd"><svg t="1730365962565" class="icon" viewBox="0 0 1024 1024" version="1.1" xmlns="http://www.w3.org/2000/svg" p-id="4288" xmlns:xlink="http://www.w3.org/1999/xlink" width="32" height="32"><path d="M337.469045 552.015921 136.637579 552.015921c-73.916171 0-133.871518 59.945269-133.871518 133.897722L2.766061 886.745109c0 73.933304 59.955347 133.877565 133.871518 133.877565L337.469045 1020.622674c73.94943 0 133.904777-59.945269 133.904777-133.877565L471.373822 685.913643C471.373822 611.96119 411.419483 552.015921 337.469045 552.015921zM404.447134 853.277229c0 55.446199-44.962479 100.412709-100.432866 100.412709L170.126624 953.689939c-55.453254 0-100.415733-44.96651-100.415733-100.412709L69.710891 719.379507c0-55.463332 44.962479-100.408678 100.415733-100.408678l133.887644 0c55.469379 0 100.432866 44.946353 100.432866 100.408678L404.447134 853.277229zM973.449463 953.688931c-18.480051 0-33.471911 14.978758-33.471911 33.464856 0 18.490129 14.99186 33.468887 33.471911 33.468887 18.496176 0 33.50517-14.978758 33.50517-33.468887C1006.955641 968.667689 991.946647 953.688931 973.449463 953.688931zM270.525223 150.363068l-66.943822 0c-36.95607 0-66.943822 29.967595-66.943822 66.943822l0 66.933743c0 36.976227 29.987752 66.9539 66.943822 66.9539l66.943822 0c36.99336 0 66.943822-29.977674 66.943822-66.9539L337.469045 217.30689C337.469045 180.330663 307.518583 150.363068 270.525223 150.363068zM337.469045 16.46837 136.637579 16.46837c-73.916171 0-133.871518 59.941237-133.871518 133.894699l0 200.831466c0 73.943383 59.955347 133.887644 133.871518 133.887644L337.469045 485.082178c73.94943 0 133.904777-59.945269 133.904777-133.887644L471.373822 150.363068C471.373822 76.409607 411.419483 16.46837 337.469045 16.46837zM404.447134 317.729678c0 55.446199-44.962479 100.408678-100.432866 100.408678L170.126624 418.138356c-55.453254 0-100.415733-44.962479-100.415733-100.408678L69.710891 183.830948c0-55.456277 44.962479-100.418756 100.415733-100.418756l133.887644 0c55.469379 0 100.432866 44.962479 100.432866 100.418756L404.447134 317.729678zM873.03373 16.46837 672.222421 16.46837c-73.969587 0-133.887644 59.941237-133.887644 133.894699l0 200.831466c0 73.943383 59.918057 133.887644 133.887644 133.887644L873.03373 485.082178c73.986721 0 133.920903-59.945269 133.920903-133.887644L1006.954633 150.363068C1006.955641 76.409607 947.02045 16.46837 873.03373 16.46837zM939.977552 317.729678c0 55.446199-44.959455 100.408678-100.415733 100.408678L705.643939 418.138356c-55.423018 0-100.36534-44.962479-100.36534-100.408678L605.278599 183.830948c0-55.456277 44.942322-100.418756 100.36534-100.418756l133.917879 0c55.456277 0 100.415733 44.962479 100.415733 100.418756L939.977552 317.729678zM806.089908 150.363068l-66.940798 0c-36.99336 0-66.926688 29.967595-66.926688 66.943822l0 66.933743c0 36.976227 29.934336 66.9539 66.926688 66.9539l66.940798 0c36.960101 0 66.943822-29.977674 66.943822-66.9539L873.03373 217.30689C873.03373 180.330663 843.050009 150.363068 806.089908 150.363068zM605.278599 685.913643c-18.480051 0-33.489044 14.978758-33.489044 33.464856 0 18.490129 15.008994 33.468887 33.489044 33.468887l66.943822 0c18.476019 0 33.421518-14.978758 33.421518-33.468887l0-100.408678 33.50517 0c18.476019 0 33.454777-14.998915 33.454777-33.468887 0-18.486098-14.978758-33.485013-33.454777-33.485013L605.278599 552.015921c-18.480051 0-33.489044 14.998915-33.489044 33.485013 0 18.469972 15.008994 33.468887 33.489044 33.468887l33.471911 0 0 66.943822L605.278599 685.913643zM973.449463 552.015921c-18.480051 0-33.471911 14.998915-33.471911 33.485013l0 234.290274L806.089908 819.791208c-6.09753 0-11.812074 1.641798-16.738475 4.495038-4.927409-2.853241-10.643969-4.495038-16.746538-4.495038-18.480051 0-33.454777 14.998915-33.454777 33.485013l0 100.412709-100.399607 0L638.75051 886.745109c0-18.490129-14.995892-33.468887-33.471911-33.468887-18.480051 0-33.489044 14.978758-33.489044 33.468887l0 100.408678c0 18.490129 15.008994 33.468887 33.489044 33.468887l167.326295 0c18.493153 0 33.485013-14.978758 33.485013-33.468887L806.089908 886.745109l167.359555 0c18.496176 0 33.50517-14.998915 33.50517-33.468887L1006.954633 585.500934C1006.955641 567.014836 991.946647 552.015921 973.449463 552.015921zM806.089908 752.847387c18.480051 0 33.471911-14.978758 33.471911-33.468887 0-18.486098-14.99186-33.464856-33.471911-33.464856-18.476019 0-33.485013 14.978758-33.485013 33.464856C772.604895 737.868628 787.613889 752.847387 806.089908 752.847387zM270.525223 685.913643l-66.943822 0c-36.95607 0-66.943822 29.977674-66.943822 66.933743l0 66.943822c0 36.976227 29.987752 66.9539 66.943822 66.9539l66.943822 0c36.99336 0 66.943822-29.977674 66.943822-66.9539l0-66.943822C337.469045 715.891317 307.518583 685.913643 270.525223 685.913643z" p-id="4289"></path></svg>