<svg t="1741000755051" class="icon" viewBox="0 0 1024 1024" version="1.1" xmlns="http://www.w3.org/2000/svg" p-id="2785" width="200" height="200"><path d="M926.293333 482.56l-128-128a42.666667 42.666667 0 0 0-60.586666 60.586667L792.746667 469.333333H554.666667V230.826667l55.04 55.466666A42.666667 42.666667 0 0 0 640 298.666667a42.666667 42.666667 0 0 0 30.293333-12.373334 42.666667 42.666667 0 0 0 0-60.586666l-128-128A42.666667 42.666667 0 0 0 512 85.333333a42.666667 42.666667 0 0 0-29.866667 12.373334l-128 128a42.666667 42.666667 0 0 0 60.16 60.586666L469.333333 231.253333V469.333333H230.826667l55.466666-55.04a42.666667 42.666667 0 0 0-60.586666-60.586666l-128 128A42.666667 42.666667 0 0 0 85.333333 512a42.666667 42.666667 0 0 0 12.373334 30.293333l128 128A42.666667 42.666667 0 0 0 256 682.666667a42.666667 42.666667 0 0 0 30.293333-12.373334 42.666667 42.666667 0 0 0 0-60.586666L231.253333 554.666667H469.333333v238.506666l-55.04-55.466666a42.666667 42.666667 0 0 0-60.586666 60.586666l128 128A42.666667 42.666667 0 0 0 512 938.666667a42.666667 42.666667 0 0 0 29.866667-12.373334l128-128a42.666667 42.666667 0 0 0-60.586667-60.586666L554.666667 792.746667V554.666667h238.506666l-55.466666 55.04a42.666667 42.666667 0 0 0 0 60.586666A42.666667 42.666667 0 0 0 768 682.666667a42.666667 42.666667 0 0 0 30.293333-12.373334l128-128A42.666667 42.666667 0 0 0 938.666667 512a42.666667 42.666667 0 0 0-12.373334-29.44z" p-id="2786" fill="#ffffff"></path></svg>